solid OpenSCAD_Model
  facet normal -0 0 -1
    outer loop
      vertex -2.2891 -1.38282 -6.325
      vertex -3.04056 -1.95944 -6.325
      vertex -2.3 -1.3 -6.325
    endloop
  endfacet
  facet normal 0 0 -1
    outer loop
      vertex 3.04056 -1.95944 -6.325
      vertex 2.2891 -1.38282 -6.325
      vertex 2.3 -1.3 -6.325
    endloop
  endfacet
  facet normal 0 0 -1
    outer loop
      vertex 4.3 -10.3 -6.325
      vertex 5.3 -9.3 -6.325
      vertex 5.26593 -9.55882 -6.325
    endloop
  endfacet
  facet normal 0 0 -1
    outer loop
      vertex 5.3 -9.3 -6.325
      vertex 4.3 -4.7 -6.325
      vertex 5.3 9.3 -6.325
    endloop
  endfacet
  facet normal 0 0 -1
    outer loop
      vertex 4.3 -10.3 -6.325
      vertex 5.26593 -9.55882 -6.325
      vertex 5.16603 -9.8 -6.325
    endloop
  endfacet
  facet normal 0 0 -1
    outer loop
      vertex 4.15348 -3.88708 -6.325
      vertex 5.3 9.3 -6.325
      vertex 4.3 -4.7 -6.325
    endloop
  endfacet
  facet normal 0 0 -1
    outer loop
      vertex 4.3 -10.3 -6.325
      vertex 5.16603 -9.8 -6.325
      vertex 5.00711 -10.0071 -6.325
    endloop
  endfacet
  facet normal 0 0 -1
    outer loop
      vertex 3.72391 -2.85 -6.325
      vertex 5.3 9.3 -6.325
      vertex 4.15348 -3.88708 -6.325
    endloop
  endfacet
  facet normal 0 0 -1
    outer loop
      vertex 4.3 -10.3 -6.325
      vertex 5.00711 -10.0071 -6.325
      vertex 4.8 -10.166 -6.325
    endloop
  endfacet
  facet normal 0 0 -1
    outer loop
      vertex 3.04056 -1.95944 -6.325
      vertex 5.3 9.3 -6.325
      vertex 3.72391 -2.85 -6.325
    endloop
  endfacet
  facet normal 0 0 -1
    outer loop
      vertex 4.3 -10.3 -6.325
      vertex 4.8 -10.166 -6.325
      vertex 4.55882 -10.2659 -6.325
    endloop
  endfacet
  facet normal 0 0 -1
    outer loop
      vertex 1.99186 -0.15 -6.325
      vertex 5.3 9.3 -6.325
      vertex 3.04056 -1.95944 -6.325
    endloop
  endfacet
  facet normal 0 0 -1
    outer loop
      vertex 5.3 -9.3 -6.325
      vertex 4.3 -5 -6.325
      vertex 4.3 -4.7 -6.325
    endloop
  endfacet
  facet normal -0 0 -1
    outer loop
      vertex 5.3 -9.3 -6.325
      vertex 4.3 -10.3 -6.325
      vertex 4.3 -5.00001 -6.325
    endloop
  endfacet
  facet normal 0 0 -1
    outer loop
      vertex 5.3 -9.3 -6.325
      vertex 4.3 -5.00001 -6.325
      vertex 4.3 -5 -6.325
    endloop
  endfacet
  facet normal 0 0 -1
    outer loop
      vertex 4.3 -4.7 -6.325
      vertex 4.3 -5 -6.325
      vertex 4.3 -4.99999 -6.325
    endloop
  endfacet
  facet normal 0 0 -1
    outer loop
      vertex 1.62635 0.326345 -6.325
      vertex 5.3 9.3 -6.325
      vertex 1.99186 -0.15 -6.325
    endloop
  endfacet
  facet normal 0 0 -1
    outer loop
      vertex 1.15 0.691858 -6.325
      vertex 5.3 9.3 -6.325
      vertex 1.62635 0.326345 -6.325
    endloop
  endfacet
  facet normal 0 0 -1
    outer loop
      vertex 4.15348 -3.88708 -6.325
      vertex 4.3 -4.7 -6.325
      vertex 4.2605 -4.7 -6.325
    endloop
  endfacet
  facet normal 0 0 -1
    outer loop
      vertex 0.595284 0.921629 -6.325
      vertex 5.3 9.3 -6.325
      vertex 1.15 0.691858 -6.325
    endloop
  endfacet
  facet normal 0 -0 -1
    outer loop
      vertex 4.3 10.3 -6.325
      vertex 5.3 9.3 -6.325
      vertex 0.595284 0.921629 -6.325
    endloop
  endfacet
  facet normal 0 0 -1
    outer loop
      vertex 5.3 9.3 -6.325
      vertex 4.3 10.3 -6.325
      vertex 5.26593 9.55882 -6.325
    endloop
  endfacet
  facet normal 0 0 -1
    outer loop
      vertex 2.22163 -0.704717 -6.325
      vertex 3.04056 -1.95944 -6.325
      vertex 2.3 -1.3 -6.325
    endloop
  endfacet
  facet normal 0 0 -1
    outer loop
      vertex 1.99186 -0.15 -6.325
      vertex 3.04056 -1.95944 -6.325
      vertex 2.22163 -0.704717 -6.325
    endloop
  endfacet
  facet normal 0 0 -1
    outer loop
      vertex 5.26593 9.55882 -6.325
      vertex 4.3 10.3 -6.325
      vertex 5.16603 9.8 -6.325
    endloop
  endfacet
  facet normal 0 0 -1
    outer loop
      vertex 5.00711 10.0071 -6.325
      vertex 4.3 10.3 -6.325
      vertex 4.8 10.166 -6.325
    endloop
  endfacet
  facet normal 0 0 -1
    outer loop
      vertex 4.8 10.166 -6.325
      vertex 4.3 10.3 -6.325
      vertex 4.55882 10.2659 -6.325
    endloop
  endfacet
  facet normal 0 0 -1
    outer loop
      vertex 5.16603 9.8 -6.325
      vertex 4.3 10.3 -6.325
      vertex 5.00711 10.0071 -6.325
    endloop
  endfacet
  facet normal 0 0 -1
    outer loop
      vertex 7.62939e-007 0.999999 -6.325
      vertex 4.3 10.3 -6.325
      vertex 0.595284 0.921629 -6.325
    endloop
  endfacet
  facet normal 0 0 -1
    outer loop
      vertex -4.3 10.3 -6.325
      vertex 7.62939e-007 0.999999 -6.325
      vertex -0.595284 0.921629 -6.325
    endloop
  endfacet
  facet normal 0 0 -1
    outer loop
      vertex -5.3 9.3 -6.325
      vertex -0.595284 0.921629 -6.325
      vertex -1.15 0.691858 -6.325
    endloop
  endfacet
  facet normal 0 0 -1
    outer loop
      vertex -5.3 9.3 -6.325
      vertex -1.15 0.691858 -6.325
      vertex -1.62634 0.326345 -6.325
    endloop
  endfacet
  facet normal 0 0 -1
    outer loop
      vertex -5.3 9.3 -6.325
      vertex -1.62634 0.326345 -6.325
      vertex -1.99186 -0.15 -6.325
    endloop
  endfacet
  facet normal 0 0 -1
    outer loop
      vertex -3.04056 -1.95944 -6.325
      vertex -2.22163 -0.704717 -6.325
      vertex -2.3 -1.3 -6.325
    endloop
  endfacet
  facet normal 0 0 -1
    outer loop
      vertex -3.04056 -1.95944 -6.325
      vertex -1.99186 -0.15 -6.325
      vertex -2.22163 -0.704717 -6.325
    endloop
  endfacet
  facet normal 0 0 -1
    outer loop
      vertex -5.3 9.3 -6.325
      vertex -3.04056 -1.95944 -6.325
      vertex -3.72391 -2.85 -6.325
    endloop
  endfacet
  facet normal 0 0 -1
    outer loop
      vertex -3.04056 -1.95944 -6.325
      vertex -5.3 9.3 -6.325
      vertex -1.99186 -0.15 -6.325
    endloop
  endfacet
  facet normal 0 0 -1
    outer loop
      vertex -4.3 -4.7 -6.325
      vertex -4.15348 -3.88708 -6.325
      vertex -4.2605 -4.7 -6.325
    endloop
  endfacet
  facet normal 0 0 -1
    outer loop
      vertex -0.595284 0.921629 -6.325
      vertex -5.3 9.3 -6.325
      vertex -4.3 10.3 -6.325
    endloop
  endfacet
  facet normal 0 0 -1
    outer loop
      vertex -5.3 9.3 -6.325
      vertex -3.72391 -2.85 -6.325
      vertex -4.15348 -3.88708 -6.325
    endloop
  endfacet
  facet normal 0 0 -1
    outer loop
      vertex -5.3 9.3 -6.325
      vertex -4.15348 -3.88708 -6.325
      vertex -4.3 -4.7 -6.325
    endloop
  endfacet
  facet normal 0 0 -1
    outer loop
      vertex -5.3 -9.3 -6.325
      vertex -4.3 -5 -6.325
      vertex -4.3 -10.3 -6.325
    endloop
  endfacet
  facet normal -0 0 -1
    outer loop
      vertex -4.3 -5 -6.325
      vertex -5.3 -9.3 -6.325
      vertex -4.3 -4.7 -6.325
    endloop
  endfacet
  facet normal 0 0 -1
    outer loop
      vertex -5.3 -9.3 -6.325
      vertex -4.3 -10.3 -6.325
      vertex -4.55882 -10.2659 -6.325
    endloop
  endfacet
  facet normal 0 0 -1
    outer loop
      vertex -5.3 9.3 -6.325
      vertex -4.3 -4.7 -6.325
      vertex -5.3 -9.3 -6.325
    endloop
  endfacet
  facet normal 0 0 -1
    outer loop
      vertex -5.3 -9.3 -6.325
      vertex -4.55882 -10.2659 -6.325
      vertex -4.8 -10.166 -6.325
    endloop
  endfacet
  facet normal 0 0 -1
    outer loop
      vertex 7.62939e-007 0.999999 -6.325
      vertex -4.3 10.3 -6.325
      vertex 4.3 10.3 -6.325
    endloop
  endfacet
  facet normal 0 0 -1
    outer loop
      vertex -5.3 -9.3 -6.325
      vertex -4.8 -10.166 -6.325
      vertex -5.00711 -10.0071 -6.325
    endloop
  endfacet
  facet normal 0 0 -1
    outer loop
      vertex -4.3 10.3 -6.325
      vertex -5.3 9.3 -6.325
      vertex -4.55882 10.2659 -6.325
    endloop
  endfacet
  facet normal 0 0 -1
    outer loop
      vertex -5.3 -9.3 -6.325
      vertex -5.00711 -10.0071 -6.325
      vertex -5.16603 -9.8 -6.325
    endloop
  endfacet
  facet normal 0 0 -1
    outer loop
      vertex -4.55882 10.2659 -6.325
      vertex -5.3 9.3 -6.325
      vertex -4.8 10.166 -6.325
    endloop
  endfacet
  facet normal 0 0 -1
    outer loop
      vertex -5.3 -9.3 -6.325
      vertex -5.16603 -9.8 -6.325
      vertex -5.26593 -9.55882 -6.325
    endloop
  endfacet
  facet normal 0 0 -1
    outer loop
      vertex -4.8 10.166 -6.325
      vertex -5.3 9.3 -6.325
      vertex -5.00711 10.0071 -6.325
    endloop
  endfacet
  facet normal 0 0 -1
    outer loop
      vertex -5.00711 10.0071 -6.325
      vertex -5.3 9.3 -6.325
      vertex -5.16603 9.8 -6.325
    endloop
  endfacet
  facet normal 0 0 -1
    outer loop
      vertex -5.16603 9.8 -6.325
      vertex -5.3 9.3 -6.325
      vertex -5.26593 9.55882 -6.325
    endloop
  endfacet
  facet normal -0.923879 -0.382684 0
    outer loop
      vertex -5.16603 -9.8 -6.325
      vertex -5.26593 -9.55882 13.325
      vertex -5.26593 -9.55882 -6.325
    endloop
  endfacet
  facet normal -0.923879 -0.382684 0
    outer loop
      vertex -5.26593 -9.55882 13.325
      vertex -5.16603 -9.8 -6.325
      vertex -5.16603 -9.8 13.325
    endloop
  endfacet
  facet normal -1 0 0
    outer loop
      vertex -5.3 -9.3 -6.325
      vertex -5.3 9.3 13.325
      vertex -5.3 9.3 -6.325
    endloop
  endfacet
  facet normal -1 -0 0
    outer loop
      vertex -5.3 9.3 13.325
      vertex -5.3 -9.3 -6.325
      vertex -5.3 -9.3 13.325
    endloop
  endfacet
  facet normal 0.991445 0.130525 0
    outer loop
      vertex 5.3 9.3 13.325
      vertex 5.26593 9.55882 -6.325
      vertex 5.26593 9.55882 13.325
    endloop
  endfacet
  facet normal 0.991445 0.130525 0
    outer loop
      vertex 5.26593 9.55882 -6.325
      vertex 5.3 9.3 13.325
      vertex 5.3 9.3 -6.325
    endloop
  endfacet
  facet normal -0.991445 -0.130525 0
    outer loop
      vertex -5.26593 -9.55882 -6.325
      vertex -5.3 -9.3 13.325
      vertex -5.3 -9.3 -6.325
    endloop
  endfacet
  facet normal -0.991445 -0.130525 0
    outer loop
      vertex -5.3 -9.3 13.325
      vertex -5.26593 -9.55882 -6.325
      vertex -5.26593 -9.55882 13.325
    endloop
  endfacet
  facet normal 0.793355 -0.608759 0
    outer loop
      vertex 5.00711 -10.0071 13.325
      vertex 5.16603 -9.8 -6.325
      vertex 5.16603 -9.8 13.325
    endloop
  endfacet
  facet normal 0.793355 -0.608759 0
    outer loop
      vertex 5.16603 -9.8 -6.325
      vertex 5.00711 -10.0071 13.325
      vertex 5.00711 -10.0071 -6.325
    endloop
  endfacet
  facet normal -0.793355 0.608759 0
    outer loop
      vertex -5.16603 9.8 -6.325
      vertex -5.00711 10.0071 13.325
      vertex -5.00711 10.0071 -6.325
    endloop
  endfacet
  facet normal -0.793355 0.608759 0
    outer loop
      vertex -5.00711 10.0071 13.325
      vertex -5.16603 9.8 -6.325
      vertex -5.16603 9.8 13.325
    endloop
  endfacet
  facet normal 0 0 1
    outer loop
      vertex 4.3 10.3 13.325
      vertex 5.3 9.3 13.325
      vertex 5.26593 9.55882 13.325
    endloop
  endfacet
  facet normal 0 0 1
    outer loop
      vertex 5.3 9.3 13.325
      vertex -5.3 9.3 13.325
      vertex 5.3 -9.3 13.325
    endloop
  endfacet
  facet normal 0 0 1
    outer loop
      vertex 4.3 10.3 13.325
      vertex 5.26593 9.55882 13.325
      vertex 5.16603 9.8 13.325
    endloop
  endfacet
  facet normal 0 0 1
    outer loop
      vertex -5.3 -9.3 13.325
      vertex 5.3 -9.3 13.325
      vertex -5.3 9.3 13.325
    endloop
  endfacet
  facet normal 0 0 1
    outer loop
      vertex 4.3 10.3 13.325
      vertex 5.16603 9.8 13.325
      vertex 5.00711 10.0071 13.325
    endloop
  endfacet
  facet normal 0 0 1
    outer loop
      vertex 5.3 9.3 13.325
      vertex 4.3 10.3 13.325
      vertex -5.3 9.3 13.325
    endloop
  endfacet
  facet normal 0 0 1
    outer loop
      vertex 4.3 10.3 13.325
      vertex 5.00711 10.0071 13.325
      vertex 4.8 10.166 13.325
    endloop
  endfacet
  facet normal 0 -0 1
    outer loop
      vertex 4.3 -10.3 13.325
      vertex 5.3 -9.3 13.325
      vertex -5.3 -9.3 13.325
    endloop
  endfacet
  facet normal 0 0 1
    outer loop
      vertex 4.3 10.3 13.325
      vertex 4.8 10.166 13.325
      vertex 4.55882 10.2659 13.325
    endloop
  endfacet
  facet normal 0 0 1
    outer loop
      vertex 5.16603 -9.8 13.325
      vertex 4.3 -10.3 13.325
      vertex 5.00711 -10.0071 13.325
    endloop
  endfacet
  facet normal 0 0 1
    outer loop
      vertex 5.00711 -10.0071 13.325
      vertex 4.3 -10.3 13.325
      vertex 4.8 -10.166 13.325
    endloop
  endfacet
  facet normal 0 0 1
    outer loop
      vertex 4.8 -10.166 13.325
      vertex 4.3 -10.3 13.325
      vertex 4.55882 -10.2659 13.325
    endloop
  endfacet
  facet normal 0 0 1
    outer loop
      vertex -5.3 9.3 13.325
      vertex 4.3 10.3 13.325
      vertex -4.3 10.3 13.325
    endloop
  endfacet
  facet normal 0 0 1
    outer loop
      vertex 5.3 -9.3 13.325
      vertex 4.3 -10.3 13.325
      vertex 5.26593 -9.55882 13.325
    endloop
  endfacet
  facet normal 0 0 1
    outer loop
      vertex -5.3 9.3 13.325
      vertex -4.3 10.3 13.325
      vertex -4.55882 10.2659 13.325
    endloop
  endfacet
  facet normal 0 0 1
    outer loop
      vertex 5.26593 -9.55882 13.325
      vertex 4.3 -10.3 13.325
      vertex 5.16603 -9.8 13.325
    endloop
  endfacet
  facet normal 0 0 1
    outer loop
      vertex -5.3 9.3 13.325
      vertex -4.55882 10.2659 13.325
      vertex -4.8 10.166 13.325
    endloop
  endfacet
  facet normal 0 0 1
    outer loop
      vertex 4.3 -10.3 13.325
      vertex -5.3 -9.3 13.325
      vertex -4.3 -10.3 13.325
    endloop
  endfacet
  facet normal 0 0 1
    outer loop
      vertex -5.3 9.3 13.325
      vertex -4.8 10.166 13.325
      vertex -5.00711 10.0071 13.325
    endloop
  endfacet
  facet normal 0 0 1
    outer loop
      vertex -4.3 -10.3 13.325
      vertex -5.3 -9.3 13.325
      vertex -4.55882 -10.2659 13.325
    endloop
  endfacet
  facet normal 0 0 1
    outer loop
      vertex -5.3 9.3 13.325
      vertex -5.00711 10.0071 13.325
      vertex -5.16603 9.8 13.325
    endloop
  endfacet
  facet normal 0 0 1
    outer loop
      vertex -4.55882 -10.2659 13.325
      vertex -5.3 -9.3 13.325
      vertex -4.8 -10.166 13.325
    endloop
  endfacet
  facet normal 0 0 1
    outer loop
      vertex -5.3 9.3 13.325
      vertex -5.16603 9.8 13.325
      vertex -5.26593 9.55882 13.325
    endloop
  endfacet
  facet normal 0 0 1
    outer loop
      vertex -4.8 -10.166 13.325
      vertex -5.3 -9.3 13.325
      vertex -5.00711 -10.0071 13.325
    endloop
  endfacet
  facet normal 0 0 1
    outer loop
      vertex -5.00711 -10.0071 13.325
      vertex -5.3 -9.3 13.325
      vertex -5.16603 -9.8 13.325
    endloop
  endfacet
  facet normal 0 0 1
    outer loop
      vertex -5.16603 -9.8 13.325
      vertex -5.3 -9.3 13.325
      vertex -5.26593 -9.55882 13.325
    endloop
  endfacet
  facet normal -0.130525 -0.991445 0
    outer loop
      vertex -4.55882 -10.2659 13.325
      vertex -4.3 -10.3 10.825
      vertex -4.3 -10.3 13.325
    endloop
  endfacet
  facet normal -0.130525 -0.991445 0
    outer loop
      vertex -4.55882 -10.2659 -6.325
      vertex -4.3 -10.3 10.825
      vertex -4.55882 -10.2659 13.325
    endloop
  endfacet
  facet normal -0.130525 -0.991445 -0
    outer loop
      vertex -4.3 -10.3 10.825
      vertex -4.55882 -10.2659 -6.325
      vertex -4.3 -10.3 -6.325
    endloop
  endfacet
  facet normal 0.130525 0.991445 -0
    outer loop
      vertex 4.55882 10.2659 -6.325
      vertex 4.3 10.3 13.325
      vertex 4.55882 10.2659 13.325
    endloop
  endfacet
  facet normal 0.130525 0.991445 0
    outer loop
      vertex 4.3 10.3 13.325
      vertex 4.55882 10.2659 -6.325
      vertex 4.3 10.3 -6.325
    endloop
  endfacet
  facet normal 0 1 0
    outer loop
      vertex 4.3 10.3 13.325
      vertex 2 10.3 11.3
      vertex -4.3 10.3 13.325
    endloop
  endfacet
  facet normal 0 1 0
    outer loop
      vertex 4.3 10.3 13.325
      vertex 2 10.3 2.3
      vertex 2 10.3 11.3
    endloop
  endfacet
  facet normal 0 1 0
    outer loop
      vertex 2 10.3 2.3
      vertex 4.3 10.3 -6.325
      vertex -2 10.3 2.3
    endloop
  endfacet
  facet normal 0 1 -0
    outer loop
      vertex 4.3 10.3 -6.325
      vertex 2 10.3 2.3
      vertex 4.3 10.3 13.325
    endloop
  endfacet
  facet normal 0 1 -0
    outer loop
      vertex -2 10.3 11.3
      vertex -4.3 10.3 13.325
      vertex 2 10.3 11.3
    endloop
  endfacet
  facet normal 0 1 -0
    outer loop
      vertex -2 10.3 2.3
      vertex -4.3 10.3 13.325
      vertex -2 10.3 11.3
    endloop
  endfacet
  facet normal 0 1 0
    outer loop
      vertex -2 10.3 2.3
      vertex -4.3 10.3 -6.325
      vertex -4.3 10.3 13.325
    endloop
  endfacet
  facet normal 0 1 0
    outer loop
      vertex -4.3 10.3 -6.325
      vertex -2 10.3 2.3
      vertex 4.3 10.3 -6.325
    endloop
  endfacet
  facet normal -0.923879 0.382684 0
    outer loop
      vertex -5.26593 9.55882 -6.325
      vertex -5.16603 9.8 13.325
      vertex -5.16603 9.8 -6.325
    endloop
  endfacet
  facet normal -0.923879 0.382684 0
    outer loop
      vertex -5.16603 9.8 13.325
      vertex -5.26593 9.55882 -6.325
      vertex -5.26593 9.55882 13.325
    endloop
  endfacet
  facet normal -0.991445 0.130525 0
    outer loop
      vertex -5.3 9.3 -6.325
      vertex -5.26593 9.55882 13.325
      vertex -5.26593 9.55882 -6.325
    endloop
  endfacet
  facet normal -0.991445 0.130525 0
    outer loop
      vertex -5.26593 9.55882 13.325
      vertex -5.3 9.3 -6.325
      vertex -5.3 9.3 13.325
    endloop
  endfacet
  facet normal 0.923879 -0.382684 0
    outer loop
      vertex 5.16603 -9.8 13.325
      vertex 5.26593 -9.55882 -6.325
      vertex 5.26593 -9.55882 13.325
    endloop
  endfacet
  facet normal 0.923879 -0.382684 0
    outer loop
      vertex 5.26593 -9.55882 -6.325
      vertex 5.16603 -9.8 13.325
      vertex 5.16603 -9.8 -6.325
    endloop
  endfacet
  facet normal 1 -0 0
    outer loop
      vertex 5.3 -9.3 13.325
      vertex 5.3 9.3 -6.325
      vertex 5.3 9.3 13.325
    endloop
  endfacet
  facet normal 1 0 0
    outer loop
      vertex 5.3 9.3 -6.325
      vertex 5.3 -9.3 13.325
      vertex 5.3 -9.3 -6.325
    endloop
  endfacet
  facet normal 0 -1 0
    outer loop
      vertex -4.3 -10.3 10.825
      vertex 4.3 -10.3 13.325
      vertex -4.3 -10.3 13.325
    endloop
  endfacet
  facet normal 0 -1 -0
    outer loop
      vertex 4.3 -10.3 13.325
      vertex -4.3 -10.3 10.825
      vertex 4.3 -10.3 10.825
    endloop
  endfacet
  facet normal 0.793355 0.608759 0
    outer loop
      vertex 5.16603 9.8 13.325
      vertex 5.00711 10.0071 -6.325
      vertex 5.00711 10.0071 13.325
    endloop
  endfacet
  facet normal 0.793355 0.608759 0
    outer loop
      vertex 5.00711 10.0071 -6.325
      vertex 5.16603 9.8 13.325
      vertex 5.16603 9.8 -6.325
    endloop
  endfacet
  facet normal 0.923879 0.382684 0
    outer loop
      vertex 5.26593 9.55882 13.325
      vertex 5.16603 9.8 -6.325
      vertex 5.16603 9.8 13.325
    endloop
  endfacet
  facet normal 0.923879 0.382684 0
    outer loop
      vertex 5.16603 9.8 -6.325
      vertex 5.26593 9.55882 13.325
      vertex 5.26593 9.55882 -6.325
    endloop
  endfacet
  facet normal 0.991445 -0.130525 0
    outer loop
      vertex 5.26593 -9.55882 13.325
      vertex 5.3 -9.3 -6.325
      vertex 5.3 -9.3 13.325
    endloop
  endfacet
  facet normal 0.991445 -0.130525 0
    outer loop
      vertex 5.3 -9.3 -6.325
      vertex 5.26593 -9.55882 13.325
      vertex 5.26593 -9.55882 -6.325
    endloop
  endfacet
  facet normal -0.382684 -0.923879 0
    outer loop
      vertex -4.8 -10.166 -6.325
      vertex -4.55882 -10.2659 13.325
      vertex -4.8 -10.166 13.325
    endloop
  endfacet
  facet normal -0.382684 -0.923879 -0
    outer loop
      vertex -4.55882 -10.2659 13.325
      vertex -4.8 -10.166 -6.325
      vertex -4.55882 -10.2659 -6.325
    endloop
  endfacet
  facet normal -0.793355 -0.608759 0
    outer loop
      vertex -5.00711 -10.0071 -6.325
      vertex -5.16603 -9.8 13.325
      vertex -5.16603 -9.8 -6.325
    endloop
  endfacet
  facet normal -0.793355 -0.608759 0
    outer loop
      vertex -5.16603 -9.8 13.325
      vertex -5.00711 -10.0071 -6.325
      vertex -5.00711 -10.0071 13.325
    endloop
  endfacet
  facet normal 0.382684 0.923879 -0
    outer loop
      vertex 4.8 10.166 -6.325
      vertex 4.55882 10.2659 13.325
      vertex 4.8 10.166 13.325
    endloop
  endfacet
  facet normal 0.382684 0.923879 0
    outer loop
      vertex 4.55882 10.2659 13.325
      vertex 4.8 10.166 -6.325
      vertex 4.55882 10.2659 -6.325
    endloop
  endfacet
  facet normal 0.608759 0.793355 -0
    outer loop
      vertex 5.00711 10.0071 -6.325
      vertex 4.8 10.166 13.325
      vertex 5.00711 10.0071 13.325
    endloop
  endfacet
  facet normal 0.608759 0.793355 0
    outer loop
      vertex 4.8 10.166 13.325
      vertex 5.00711 10.0071 -6.325
      vertex 4.8 10.166 -6.325
    endloop
  endfacet
  facet normal -0.382684 0.923879 0
    outer loop
      vertex -4.55882 10.2659 -6.325
      vertex -4.8 10.166 13.325
      vertex -4.55882 10.2659 13.325
    endloop
  endfacet
  facet normal -0.382684 0.923879 0
    outer loop
      vertex -4.8 10.166 13.325
      vertex -4.55882 10.2659 -6.325
      vertex -4.8 10.166 -6.325
    endloop
  endfacet
  facet normal -0.130525 0.991445 0
    outer loop
      vertex -4.3 10.3 -6.325
      vertex -4.55882 10.2659 13.325
      vertex -4.3 10.3 13.325
    endloop
  endfacet
  facet normal -0.130525 0.991445 0
    outer loop
      vertex -4.55882 10.2659 13.325
      vertex -4.3 10.3 -6.325
      vertex -4.55882 10.2659 -6.325
    endloop
  endfacet
  facet normal -0.608759 0.793355 0
    outer loop
      vertex -4.8 10.166 -6.325
      vertex -5.00711 10.0071 13.325
      vertex -4.8 10.166 13.325
    endloop
  endfacet
  facet normal -0.608759 0.793355 0
    outer loop
      vertex -5.00711 10.0071 13.325
      vertex -4.8 10.166 -6.325
      vertex -5.00711 10.0071 -6.325
    endloop
  endfacet
  facet normal 0.130525 -0.991445 0
    outer loop
      vertex 4.3 -10.3 10.825
      vertex 4.55882 -10.2659 13.325
      vertex 4.3 -10.3 13.325
    endloop
  endfacet
  facet normal 0.130525 -0.991445 0
    outer loop
      vertex 4.55882 -10.2659 -6.325
      vertex 4.3 -10.3 10.825
      vertex 4.3 -10.3 -6.325
    endloop
  endfacet
  facet normal 0.130525 -0.991445 0
    outer loop
      vertex 4.3 -10.3 10.825
      vertex 4.55882 -10.2659 -6.325
      vertex 4.55882 -10.2659 13.325
    endloop
  endfacet
  facet normal 0.608759 -0.793355 0
    outer loop
      vertex 4.8 -10.166 -6.325
      vertex 5.00711 -10.0071 13.325
      vertex 4.8 -10.166 13.325
    endloop
  endfacet
  facet normal 0.608759 -0.793355 0
    outer loop
      vertex 5.00711 -10.0071 13.325
      vertex 4.8 -10.166 -6.325
      vertex 5.00711 -10.0071 -6.325
    endloop
  endfacet
  facet normal -0.608759 -0.793355 0
    outer loop
      vertex -5.00711 -10.0071 -6.325
      vertex -4.8 -10.166 13.325
      vertex -5.00711 -10.0071 13.325
    endloop
  endfacet
  facet normal -0.608759 -0.793355 -0
    outer loop
      vertex -4.8 -10.166 13.325
      vertex -5.00711 -10.0071 -6.325
      vertex -4.8 -10.166 -6.325
    endloop
  endfacet
  facet normal 0.382684 -0.923879 0
    outer loop
      vertex 4.55882 -10.2659 -6.325
      vertex 4.8 -10.166 13.325
      vertex 4.55882 -10.2659 13.325
    endloop
  endfacet
  facet normal 0.382684 -0.923879 0
    outer loop
      vertex 4.8 -10.166 13.325
      vertex 4.55882 -10.2659 -6.325
      vertex 4.8 -10.166 -6.325
    endloop
  endfacet
  facet normal 0.998795 0.0490707 0
    outer loop
      vertex 2 -5 15.4
      vertex 1.99037 -4.80397 13.4
      vertex 1.99037 -4.80397 15.4
    endloop
  endfacet
  facet normal 0.998795 0.0490707 0
    outer loop
      vertex 1.99037 -4.80397 13.4
      vertex 2 -5 15.4
      vertex 2 -5 13.4
    endloop
  endfacet
  facet normal -0.998795 0.0490707 0
    outer loop
      vertex -2 -5 13.4
      vertex -1.99037 -4.80397 15.4
      vertex -1.99037 -4.80397 13.4
    endloop
  endfacet
  facet normal -0.998795 0.0490707 0
    outer loop
      vertex -1.99037 -4.80397 15.4
      vertex -2 -5 13.4
      vertex -2 -5 15.4
    endloop
  endfacet
  facet normal -0.0490661 0.998796 0
    outer loop
      vertex 0 -3 13.4
      vertex -0.196033 -3.00963 15.4
      vertex 0 -3 15.4
    endloop
  endfacet
  facet normal -0.0490661 0.998796 0
    outer loop
      vertex -0.196033 -3.00963 15.4
      vertex 0 -3 13.4
      vertex -0.196033 -3.00963 13.4
    endloop
  endfacet
  facet normal -0.049071 -0.998795 0
    outer loop
      vertex -0.196033 -6.99037 13.4
      vertex 0 -7 15.4
      vertex -0.196033 -6.99037 15.4
    endloop
  endfacet
  facet normal -0.049071 -0.998795 -0
    outer loop
      vertex 0 -7 15.4
      vertex -0.196033 -6.99037 13.4
      vertex 0 -7 13.4
    endloop
  endfacet
  facet normal 0.67156 0.740951 -0
    outer loop
      vertex 1.41421 -3.58579 13.4
      vertex 1.26879 -3.45398 15.4
      vertex 1.41421 -3.58579 15.4
    endloop
  endfacet
  facet normal 0.67156 0.740951 0
    outer loop
      vertex 1.26879 -3.45398 15.4
      vertex 1.41421 -3.58579 13.4
      vertex 1.26879 -3.45398 13.4
    endloop
  endfacet
  facet normal -0.740951 0.67156 0
    outer loop
      vertex -1.54602 -3.73121 13.4
      vertex -1.41421 -3.58579 15.4
      vertex -1.41421 -3.58579 13.4
    endloop
  endfacet
  facet normal -0.740951 0.67156 0
    outer loop
      vertex -1.41421 -3.58579 15.4
      vertex -1.54602 -3.73121 13.4
      vertex -1.54602 -3.73121 15.4
    endloop
  endfacet
  facet normal -0.427556 0.903989 0
    outer loop
      vertex -0.765367 -3.15224 13.4
      vertex -0.942793 -3.23616 15.4
      vertex -0.765367 -3.15224 15.4
    endloop
  endfacet
  facet normal -0.427556 0.903989 0
    outer loop
      vertex -0.942793 -3.23616 15.4
      vertex -0.765367 -3.15224 13.4
      vertex -0.942793 -3.23616 13.4
    endloop
  endfacet
  facet normal 0.903989 0.427556 0
    outer loop
      vertex 1.84776 -4.23463 15.4
      vertex 1.76384 -4.05721 13.4
      vertex 1.76384 -4.05721 15.4
    endloop
  endfacet
  facet normal 0.903989 0.427556 0
    outer loop
      vertex 1.76384 -4.05721 13.4
      vertex 1.84776 -4.23463 15.4
      vertex 1.84776 -4.23463 13.4
    endloop
  endfacet
  facet normal 0.336892 0.941543 -0
    outer loop
      vertex 0.765367 -3.15224 13.4
      vertex 0.580569 -3.08612 15.4
      vertex 0.765367 -3.15224 15.4
    endloop
  endfacet
  facet normal 0.336892 0.941543 0
    outer loop
      vertex 0.580569 -3.08612 15.4
      vertex 0.765367 -3.15224 13.4
      vertex 0.580569 -3.08612 13.4
    endloop
  endfacet
  facet normal 0.514099 0.857731 -0
    outer loop
      vertex 1.11114 -3.33706 13.4
      vertex 0.942793 -3.23616 15.4
      vertex 1.11114 -3.33706 15.4
    endloop
  endfacet
  facet normal 0.514099 0.857731 0
    outer loop
      vertex 0.942793 -3.23616 15.4
      vertex 1.11114 -3.33706 13.4
      vertex 0.942793 -3.23616 13.4
    endloop
  endfacet
  facet normal -0.941543 0.336892 0
    outer loop
      vertex -1.91388 -4.41943 13.4
      vertex -1.84776 -4.23463 15.4
      vertex -1.84776 -4.23463 13.4
    endloop
  endfacet
  facet normal -0.941543 0.336892 0
    outer loop
      vertex -1.84776 -4.23463 15.4
      vertex -1.91388 -4.41943 13.4
      vertex -1.91388 -4.41943 15.4
    endloop
  endfacet
  facet normal -0.970032 0.242978 0
    outer loop
      vertex -1.96157 -4.60982 13.4
      vertex -1.91388 -4.41943 15.4
      vertex -1.91388 -4.41943 13.4
    endloop
  endfacet
  facet normal -0.970032 0.242978 0
    outer loop
      vertex -1.91388 -4.41943 15.4
      vertex -1.96157 -4.60982 13.4
      vertex -1.96157 -4.60982 15.4
    endloop
  endfacet
  facet normal -0.242978 0.970032 0
    outer loop
      vertex -0.390181 -3.03843 13.4
      vertex -0.580569 -3.08612 15.4
      vertex -0.390181 -3.03843 15.4
    endloop
  endfacet
  facet normal -0.242978 0.970032 0
    outer loop
      vertex -0.580569 -3.08612 15.4
      vertex -0.390181 -3.03843 13.4
      vertex -0.580569 -3.08612 13.4
    endloop
  endfacet
  facet normal 0.941543 -0.336892 0
    outer loop
      vertex 1.84776 -5.76537 15.4
      vertex 1.91388 -5.58057 13.4
      vertex 1.91388 -5.58057 15.4
    endloop
  endfacet
  facet normal 0.941543 -0.336892 0
    outer loop
      vertex 1.91388 -5.58057 13.4
      vertex 1.84776 -5.76537 15.4
      vertex 1.84776 -5.76537 13.4
    endloop
  endfacet
  facet normal 0 0 -1
    outer loop
      vertex 1.99037 -5.19603 13.4
      vertex 1.99037 -4.80397 13.4
      vertex 2 -5 13.4
    endloop
  endfacet
  facet normal 0 0 -1
    outer loop
      vertex 1.96157 -5.39018 13.4
      vertex 1.99037 -4.80397 13.4
      vertex 1.99037 -5.19603 13.4
    endloop
  endfacet
  facet normal 0 0 -1
    outer loop
      vertex 1.96157 -5.39018 13.4
      vertex 1.96157 -4.60982 13.4
      vertex 1.99037 -4.80397 13.4
    endloop
  endfacet
  facet normal 0 0 -1
    outer loop
      vertex 1.91388 -5.58057 13.4
      vertex 1.96157 -4.60982 13.4
      vertex 1.96157 -5.39018 13.4
    endloop
  endfacet
  facet normal 0 0 -1
    outer loop
      vertex 1.91388 -5.58057 13.4
      vertex 1.91388 -4.41943 13.4
      vertex 1.96157 -4.60982 13.4
    endloop
  endfacet
  facet normal 0 0 -1
    outer loop
      vertex 1.84776 -5.76537 13.4
      vertex 1.91388 -4.41943 13.4
      vertex 1.91388 -5.58057 13.4
    endloop
  endfacet
  facet normal 0 0 -1
    outer loop
      vertex 1.84776 -5.76537 13.4
      vertex 1.84776 -4.23463 13.4
      vertex 1.91388 -4.41943 13.4
    endloop
  endfacet
  facet normal 0 0 -1
    outer loop
      vertex 1.76384 -5.94279 13.4
      vertex 1.84776 -4.23463 13.4
      vertex 1.84776 -5.76537 13.4
    endloop
  endfacet
  facet normal 0 0 -1
    outer loop
      vertex 1.76384 -5.94279 13.4
      vertex 1.76384 -4.05721 13.4
      vertex 1.84776 -4.23463 13.4
    endloop
  endfacet
  facet normal 0 0 -1
    outer loop
      vertex 1.66294 -6.11114 13.4
      vertex 1.76384 -4.05721 13.4
      vertex 1.76384 -5.94279 13.4
    endloop
  endfacet
  facet normal 0 0 -1
    outer loop
      vertex 1.66294 -6.11114 13.4
      vertex 1.66294 -3.88886 13.4
      vertex 1.76384 -4.05721 13.4
    endloop
  endfacet
  facet normal 0 0 -1
    outer loop
      vertex 1.54602 -6.26879 13.4
      vertex 1.66294 -3.88886 13.4
      vertex 1.66294 -6.11114 13.4
    endloop
  endfacet
  facet normal 0 0 -1
    outer loop
      vertex 1.54602 -6.26879 13.4
      vertex 1.54602 -3.73121 13.4
      vertex 1.66294 -3.88886 13.4
    endloop
  endfacet
  facet normal 0 0 -1
    outer loop
      vertex 1.41421 -6.41421 13.4
      vertex 1.54602 -3.73121 13.4
      vertex 1.54602 -6.26879 13.4
    endloop
  endfacet
  facet normal 0 0 -1
    outer loop
      vertex 1.41421 -6.41421 13.4
      vertex 1.41421 -3.58579 13.4
      vertex 1.54602 -3.73121 13.4
    endloop
  endfacet
  facet normal 0 0 -1
    outer loop
      vertex 1.26879 -6.54602 13.4
      vertex 1.41421 -3.58579 13.4
      vertex 1.41421 -6.41421 13.4
    endloop
  endfacet
  facet normal 0 0 -1
    outer loop
      vertex 1.26879 -6.54602 13.4
      vertex 1.26879 -3.45398 13.4
      vertex 1.41421 -3.58579 13.4
    endloop
  endfacet
  facet normal 0 0 -1
    outer loop
      vertex 1.11114 -6.66294 13.4
      vertex 1.26879 -3.45398 13.4
      vertex 1.26879 -6.54602 13.4
    endloop
  endfacet
  facet normal 0 0 -1
    outer loop
      vertex 1.11114 -6.66294 13.4
      vertex 1.11114 -3.33706 13.4
      vertex 1.26879 -3.45398 13.4
    endloop
  endfacet
  facet normal 0 0 -1
    outer loop
      vertex 0.942793 -6.76384 13.4
      vertex 1.11114 -3.33706 13.4
      vertex 1.11114 -6.66294 13.4
    endloop
  endfacet
  facet normal 0 0 -1
    outer loop
      vertex 0.942793 -6.76384 13.4
      vertex 0.942793 -3.23616 13.4
      vertex 1.11114 -3.33706 13.4
    endloop
  endfacet
  facet normal 0 0 -1
    outer loop
      vertex 0.765367 -6.84776 13.4
      vertex 0.942793 -3.23616 13.4
      vertex 0.942793 -6.76384 13.4
    endloop
  endfacet
  facet normal 0 0 -1
    outer loop
      vertex 0.765367 -6.84776 13.4
      vertex 0.765367 -3.15224 13.4
      vertex 0.942793 -3.23616 13.4
    endloop
  endfacet
  facet normal 0 0 -1
    outer loop
      vertex 0.580569 -6.91388 13.4
      vertex 0.765367 -3.15224 13.4
      vertex 0.765367 -6.84776 13.4
    endloop
  endfacet
  facet normal 0 0 -1
    outer loop
      vertex 0.580569 -6.91388 13.4
      vertex 0.580569 -3.08612 13.4
      vertex 0.765367 -3.15224 13.4
    endloop
  endfacet
  facet normal 0 0 -1
    outer loop
      vertex 0.390181 -6.96157 13.4
      vertex 0.580569 -3.08612 13.4
      vertex 0.580569 -6.91388 13.4
    endloop
  endfacet
  facet normal 0 0 -1
    outer loop
      vertex 0.390181 -6.96157 13.4
      vertex 0.390181 -3.03843 13.4
      vertex 0.580569 -3.08612 13.4
    endloop
  endfacet
  facet normal 0 0 -1
    outer loop
      vertex 0.196033 -6.99037 13.4
      vertex 0.390181 -3.03843 13.4
      vertex 0.390181 -6.96157 13.4
    endloop
  endfacet
  facet normal 0 0 -1
    outer loop
      vertex 0.196033 -6.99037 13.4
      vertex 0.196033 -3.00963 13.4
      vertex 0.390181 -3.03843 13.4
    endloop
  endfacet
  facet normal 0 0 -1
    outer loop
      vertex 0 -7 13.4
      vertex 0.196033 -3.00963 13.4
      vertex 0.196033 -6.99037 13.4
    endloop
  endfacet
  facet normal 0 0 -1
    outer loop
      vertex 0 -7 13.4
      vertex 0 -3 13.4
      vertex 0.196033 -3.00963 13.4
    endloop
  endfacet
  facet normal 0 0 -1
    outer loop
      vertex -0.196033 -6.99037 13.4
      vertex 0 -3 13.4
      vertex 0 -7 13.4
    endloop
  endfacet
  facet normal 0 0 -1
    outer loop
      vertex -0.196033 -6.99037 13.4
      vertex -0.196033 -3.00963 13.4
      vertex 0 -3 13.4
    endloop
  endfacet
  facet normal 0 0 -1
    outer loop
      vertex -0.390181 -6.96157 13.4
      vertex -0.196033 -3.00963 13.4
      vertex -0.196033 -6.99037 13.4
    endloop
  endfacet
  facet normal 0 0 -1
    outer loop
      vertex -0.390181 -6.96157 13.4
      vertex -0.390181 -3.03843 13.4
      vertex -0.196033 -3.00963 13.4
    endloop
  endfacet
  facet normal 0 0 -1
    outer loop
      vertex -0.580569 -6.91388 13.4
      vertex -0.390181 -3.03843 13.4
      vertex -0.390181 -6.96157 13.4
    endloop
  endfacet
  facet normal 0 0 -1
    outer loop
      vertex -0.580569 -6.91388 13.4
      vertex -0.580569 -3.08612 13.4
      vertex -0.390181 -3.03843 13.4
    endloop
  endfacet
  facet normal 0 0 -1
    outer loop
      vertex -0.765367 -6.84776 13.4
      vertex -0.580569 -3.08612 13.4
      vertex -0.580569 -6.91388 13.4
    endloop
  endfacet
  facet normal 0 0 -1
    outer loop
      vertex -0.765367 -6.84776 13.4
      vertex -0.765367 -3.15224 13.4
      vertex -0.580569 -3.08612 13.4
    endloop
  endfacet
  facet normal 0 0 -1
    outer loop
      vertex -0.942793 -6.76384 13.4
      vertex -0.765367 -3.15224 13.4
      vertex -0.765367 -6.84776 13.4
    endloop
  endfacet
  facet normal 0 0 -1
    outer loop
      vertex -0.942793 -6.76384 13.4
      vertex -0.942793 -3.23616 13.4
      vertex -0.765367 -3.15224 13.4
    endloop
  endfacet
  facet normal 0 0 -1
    outer loop
      vertex -1.11114 -6.66294 13.4
      vertex -0.942793 -3.23616 13.4
      vertex -0.942793 -6.76384 13.4
    endloop
  endfacet
  facet normal 0 0 -1
    outer loop
      vertex -1.11114 -6.66294 13.4
      vertex -1.11114 -3.33706 13.4
      vertex -0.942793 -3.23616 13.4
    endloop
  endfacet
  facet normal 0 0 -1
    outer loop
      vertex -1.26879 -6.54602 13.4
      vertex -1.11114 -3.33706 13.4
      vertex -1.11114 -6.66294 13.4
    endloop
  endfacet
  facet normal 0 0 -1
    outer loop
      vertex -1.26879 -6.54602 13.4
      vertex -1.26879 -3.45398 13.4
      vertex -1.11114 -3.33706 13.4
    endloop
  endfacet
  facet normal 0 0 -1
    outer loop
      vertex -1.41421 -6.41421 13.4
      vertex -1.26879 -3.45398 13.4
      vertex -1.26879 -6.54602 13.4
    endloop
  endfacet
  facet normal 0 0 -1
    outer loop
      vertex -1.41421 -6.41421 13.4
      vertex -1.41421 -3.58579 13.4
      vertex -1.26879 -3.45398 13.4
    endloop
  endfacet
  facet normal 0 0 -1
    outer loop
      vertex -1.54602 -6.26879 13.4
      vertex -1.41421 -3.58579 13.4
      vertex -1.41421 -6.41421 13.4
    endloop
  endfacet
  facet normal 0 0 -1
    outer loop
      vertex -1.54602 -6.26879 13.4
      vertex -1.54602 -3.73121 13.4
      vertex -1.41421 -3.58579 13.4
    endloop
  endfacet
  facet normal 0 0 -1
    outer loop
      vertex -1.66294 -6.11114 13.4
      vertex -1.54602 -3.73121 13.4
      vertex -1.54602 -6.26879 13.4
    endloop
  endfacet
  facet normal 0 0 -1
    outer loop
      vertex -1.66294 -6.11114 13.4
      vertex -1.66294 -3.88886 13.4
      vertex -1.54602 -3.73121 13.4
    endloop
  endfacet
  facet normal 0 0 -1
    outer loop
      vertex -1.76384 -5.94279 13.4
      vertex -1.66294 -3.88886 13.4
      vertex -1.66294 -6.11114 13.4
    endloop
  endfacet
  facet normal 0 0 -1
    outer loop
      vertex -1.76384 -5.94279 13.4
      vertex -1.76384 -4.05721 13.4
      vertex -1.66294 -3.88886 13.4
    endloop
  endfacet
  facet normal 0 0 -1
    outer loop
      vertex -1.84776 -5.76537 13.4
      vertex -1.76384 -4.05721 13.4
      vertex -1.76384 -5.94279 13.4
    endloop
  endfacet
  facet normal 0 0 -1
    outer loop
      vertex -1.84776 -5.76537 13.4
      vertex -1.84776 -4.23463 13.4
      vertex -1.76384 -4.05721 13.4
    endloop
  endfacet
  facet normal 0 0 -1
    outer loop
      vertex -1.91388 -5.58057 13.4
      vertex -1.84776 -4.23463 13.4
      vertex -1.84776 -5.76537 13.4
    endloop
  endfacet
  facet normal 0 0 -1
    outer loop
      vertex -1.91388 -5.58057 13.4
      vertex -1.91388 -4.41943 13.4
      vertex -1.84776 -4.23463 13.4
    endloop
  endfacet
  facet normal 0 0 -1
    outer loop
      vertex -1.96157 -5.39018 13.4
      vertex -1.91388 -4.41943 13.4
      vertex -1.91388 -5.58057 13.4
    endloop
  endfacet
  facet normal 0 0 -1
    outer loop
      vertex -1.96157 -5.39018 13.4
      vertex -1.96157 -4.60982 13.4
      vertex -1.91388 -4.41943 13.4
    endloop
  endfacet
  facet normal 0 0 -1
    outer loop
      vertex -1.99037 -5.19603 13.4
      vertex -1.96157 -4.60982 13.4
      vertex -1.96157 -5.39018 13.4
    endloop
  endfacet
  facet normal 0 0 -1
    outer loop
      vertex -1.99037 -5.19603 13.4
      vertex -1.99037 -4.80397 13.4
      vertex -1.96157 -4.60982 13.4
    endloop
  endfacet
  facet normal 0 -0 -1
    outer loop
      vertex -1.99037 -4.80397 13.4
      vertex -1.99037 -5.19603 13.4
      vertex -2 -5 13.4
    endloop
  endfacet
  facet normal 0.970032 0.242978 0
    outer loop
      vertex 1.96157 -4.60982 15.4
      vertex 1.91388 -4.41943 13.4
      vertex 1.91388 -4.41943 15.4
    endloop
  endfacet
  facet normal 0.970032 0.242978 0
    outer loop
      vertex 1.91388 -4.41943 13.4
      vertex 1.96157 -4.60982 15.4
      vertex 1.96157 -4.60982 13.4
    endloop
  endfacet
  facet normal 0.989176 0.146731 0
    outer loop
      vertex 1.99037 -4.80397 15.4
      vertex 1.96157 -4.60982 13.4
      vertex 1.96157 -4.60982 15.4
    endloop
  endfacet
  facet normal 0.989176 0.146731 0
    outer loop
      vertex 1.96157 -4.60982 13.4
      vertex 1.99037 -4.80397 15.4
      vertex 1.99037 -4.80397 13.4
    endloop
  endfacet
  facet normal 0.941543 0.336892 0
    outer loop
      vertex 1.91388 -4.41943 15.4
      vertex 1.84776 -4.23463 13.4
      vertex 1.84776 -4.23463 15.4
    endloop
  endfacet
  facet normal 0.941543 0.336892 0
    outer loop
      vertex 1.84776 -4.23463 13.4
      vertex 1.91388 -4.41943 15.4
      vertex 1.91388 -4.41943 13.4
    endloop
  endfacet
  facet normal 0.803207 0.5957 0
    outer loop
      vertex 1.66294 -3.88886 15.4
      vertex 1.54602 -3.73121 13.4
      vertex 1.54602 -3.73121 15.4
    endloop
  endfacet
  facet normal 0.803207 0.5957 0
    outer loop
      vertex 1.54602 -3.73121 13.4
      vertex 1.66294 -3.88886 15.4
      vertex 1.66294 -3.88886 13.4
    endloop
  endfacet
  facet normal 0.740951 0.67156 0
    outer loop
      vertex 1.54602 -3.73121 15.4
      vertex 1.41421 -3.58579 13.4
      vertex 1.41421 -3.58579 15.4
    endloop
  endfacet
  facet normal 0.740951 0.67156 0
    outer loop
      vertex 1.41421 -3.58579 13.4
      vertex 1.54602 -3.73121 15.4
      vertex 1.54602 -3.73121 13.4
    endloop
  endfacet
  facet normal 0.857731 0.514099 0
    outer loop
      vertex 1.76384 -4.05721 15.4
      vertex 1.66294 -3.88886 13.4
      vertex 1.66294 -3.88886 15.4
    endloop
  endfacet
  facet normal 0.857731 0.514099 0
    outer loop
      vertex 1.66294 -3.88886 13.4
      vertex 1.76384 -4.05721 15.4
      vertex 1.76384 -4.05721 13.4
    endloop
  endfacet
  facet normal 0.146731 0.989176 -0
    outer loop
      vertex 0.390181 -3.03843 13.4
      vertex 0.196033 -3.00963 15.4
      vertex 0.390181 -3.03843 15.4
    endloop
  endfacet
  facet normal 0.146731 0.989176 0
    outer loop
      vertex 0.196033 -3.00963 15.4
      vertex 0.390181 -3.03843 13.4
      vertex 0.196033 -3.00963 13.4
    endloop
  endfacet
  facet normal 0.242978 0.970032 -0
    outer loop
      vertex 0.580569 -3.08612 13.4
      vertex 0.390181 -3.03843 15.4
      vertex 0.580569 -3.08612 15.4
    endloop
  endfacet
  facet normal 0.242978 0.970032 0
    outer loop
      vertex 0.390181 -3.03843 15.4
      vertex 0.580569 -3.08612 13.4
      vertex 0.390181 -3.03843 13.4
    endloop
  endfacet
  facet normal 0.0490661 0.998796 -0
    outer loop
      vertex 0.196033 -3.00963 13.4
      vertex 0 -3 15.4
      vertex 0.196033 -3.00963 15.4
    endloop
  endfacet
  facet normal 0.0490661 0.998796 0
    outer loop
      vertex 0 -3 15.4
      vertex 0.196033 -3.00963 13.4
      vertex 0 -3 13.4
    endloop
  endfacet
  facet normal 0.427556 0.903989 -0
    outer loop
      vertex 0.942793 -3.23616 13.4
      vertex 0.765367 -3.15224 15.4
      vertex 0.942793 -3.23616 15.4
    endloop
  endfacet
  facet normal 0.427556 0.903989 0
    outer loop
      vertex 0.765367 -3.15224 15.4
      vertex 0.942793 -3.23616 13.4
      vertex 0.765367 -3.15224 13.4
    endloop
  endfacet
  facet normal 0.5957 0.803207 -0
    outer loop
      vertex 1.26879 -3.45398 13.4
      vertex 1.11114 -3.33706 15.4
      vertex 1.26879 -3.45398 15.4
    endloop
  endfacet
  facet normal 0.5957 0.803207 0
    outer loop
      vertex 1.11114 -3.33706 15.4
      vertex 1.26879 -3.45398 13.4
      vertex 1.11114 -3.33706 13.4
    endloop
  endfacet
  facet normal -0.857731 0.514099 0
    outer loop
      vertex -1.76384 -4.05721 13.4
      vertex -1.66294 -3.88886 15.4
      vertex -1.66294 -3.88886 13.4
    endloop
  endfacet
  facet normal -0.857731 0.514099 0
    outer loop
      vertex -1.66294 -3.88886 15.4
      vertex -1.76384 -4.05721 13.4
      vertex -1.76384 -4.05721 15.4
    endloop
  endfacet
  facet normal -0.803207 0.5957 0
    outer loop
      vertex -1.66294 -3.88886 13.4
      vertex -1.54602 -3.73121 15.4
      vertex -1.54602 -3.73121 13.4
    endloop
  endfacet
  facet normal -0.803207 0.5957 0
    outer loop
      vertex -1.54602 -3.73121 15.4
      vertex -1.66294 -3.88886 13.4
      vertex -1.66294 -3.88886 15.4
    endloop
  endfacet
  facet normal -0.903989 0.427556 0
    outer loop
      vertex -1.84776 -4.23463 13.4
      vertex -1.76384 -4.05721 15.4
      vertex -1.76384 -4.05721 13.4
    endloop
  endfacet
  facet normal -0.903989 0.427556 0
    outer loop
      vertex -1.76384 -4.05721 15.4
      vertex -1.84776 -4.23463 13.4
      vertex -1.84776 -4.23463 15.4
    endloop
  endfacet
  facet normal -0.989176 0.146731 0
    outer loop
      vertex -1.99037 -4.80397 13.4
      vertex -1.96157 -4.60982 15.4
      vertex -1.96157 -4.60982 13.4
    endloop
  endfacet
  facet normal -0.989176 0.146731 0
    outer loop
      vertex -1.96157 -4.60982 15.4
      vertex -1.99037 -4.80397 13.4
      vertex -1.99037 -4.80397 15.4
    endloop
  endfacet
  facet normal 0 0 1
    outer loop
      vertex 1.99037 -4.80397 15.4
      vertex 1.99037 -5.19603 15.4
      vertex 2 -5 15.4
    endloop
  endfacet
  facet normal 0 0 1
    outer loop
      vertex 1.96157 -4.60982 15.4
      vertex 1.99037 -5.19603 15.4
      vertex 1.99037 -4.80397 15.4
    endloop
  endfacet
  facet normal 0 0 1
    outer loop
      vertex 1.96157 -4.60982 15.4
      vertex 1.96157 -5.39018 15.4
      vertex 1.99037 -5.19603 15.4
    endloop
  endfacet
  facet normal 0 0 1
    outer loop
      vertex 1.91388 -4.41943 15.4
      vertex 1.96157 -5.39018 15.4
      vertex 1.96157 -4.60982 15.4
    endloop
  endfacet
  facet normal 0 0 1
    outer loop
      vertex 1.91388 -4.41943 15.4
      vertex 1.91388 -5.58057 15.4
      vertex 1.96157 -5.39018 15.4
    endloop
  endfacet
  facet normal 0 0 1
    outer loop
      vertex 1.84776 -4.23463 15.4
      vertex 1.91388 -5.58057 15.4
      vertex 1.91388 -4.41943 15.4
    endloop
  endfacet
  facet normal 0 0 1
    outer loop
      vertex 1.84776 -4.23463 15.4
      vertex 1.84776 -5.76537 15.4
      vertex 1.91388 -5.58057 15.4
    endloop
  endfacet
  facet normal 0 0 1
    outer loop
      vertex 1.76384 -4.05721 15.4
      vertex 1.84776 -5.76537 15.4
      vertex 1.84776 -4.23463 15.4
    endloop
  endfacet
  facet normal 0 0 1
    outer loop
      vertex 1.76384 -4.05721 15.4
      vertex 1.76384 -5.94279 15.4
      vertex 1.84776 -5.76537 15.4
    endloop
  endfacet
  facet normal 0 0 1
    outer loop
      vertex 1.66294 -3.88886 15.4
      vertex 1.76384 -5.94279 15.4
      vertex 1.76384 -4.05721 15.4
    endloop
  endfacet
  facet normal 0 0 1
    outer loop
      vertex 1.66294 -3.88886 15.4
      vertex 1.66294 -6.11114 15.4
      vertex 1.76384 -5.94279 15.4
    endloop
  endfacet
  facet normal 0 0 1
    outer loop
      vertex 1.54602 -3.73121 15.4
      vertex 1.66294 -6.11114 15.4
      vertex 1.66294 -3.88886 15.4
    endloop
  endfacet
  facet normal 0 0 1
    outer loop
      vertex 1.54602 -3.73121 15.4
      vertex 1.54602 -6.26879 15.4
      vertex 1.66294 -6.11114 15.4
    endloop
  endfacet
  facet normal 0 0 1
    outer loop
      vertex 1.41421 -3.58579 15.4
      vertex 1.54602 -6.26879 15.4
      vertex 1.54602 -3.73121 15.4
    endloop
  endfacet
  facet normal 0 0 1
    outer loop
      vertex 1.41421 -3.58579 15.4
      vertex 1.41421 -6.41421 15.4
      vertex 1.54602 -6.26879 15.4
    endloop
  endfacet
  facet normal 0 0 1
    outer loop
      vertex 1.26879 -3.45398 15.4
      vertex 1.41421 -6.41421 15.4
      vertex 1.41421 -3.58579 15.4
    endloop
  endfacet
  facet normal 0 0 1
    outer loop
      vertex 1.26879 -3.45398 15.4
      vertex 1.26879 -6.54602 15.4
      vertex 1.41421 -6.41421 15.4
    endloop
  endfacet
  facet normal 0 0 1
    outer loop
      vertex 1.11114 -3.33706 15.4
      vertex 1.26879 -6.54602 15.4
      vertex 1.26879 -3.45398 15.4
    endloop
  endfacet
  facet normal 0 0 1
    outer loop
      vertex 1.11114 -3.33706 15.4
      vertex 1.11114 -6.66294 15.4
      vertex 1.26879 -6.54602 15.4
    endloop
  endfacet
  facet normal 0 0 1
    outer loop
      vertex 0.942793 -3.23616 15.4
      vertex 1.11114 -6.66294 15.4
      vertex 1.11114 -3.33706 15.4
    endloop
  endfacet
  facet normal 0 0 1
    outer loop
      vertex 0.942793 -3.23616 15.4
      vertex 0.942793 -6.76384 15.4
      vertex 1.11114 -6.66294 15.4
    endloop
  endfacet
  facet normal 0 0 1
    outer loop
      vertex 0.765367 -3.15224 15.4
      vertex 0.942793 -6.76384 15.4
      vertex 0.942793 -3.23616 15.4
    endloop
  endfacet
  facet normal 0 0 1
    outer loop
      vertex 0.765367 -3.15224 15.4
      vertex 0.765367 -6.84776 15.4
      vertex 0.942793 -6.76384 15.4
    endloop
  endfacet
  facet normal 0 0 1
    outer loop
      vertex 0.580569 -3.08612 15.4
      vertex 0.765367 -6.84776 15.4
      vertex 0.765367 -3.15224 15.4
    endloop
  endfacet
  facet normal 0 0 1
    outer loop
      vertex 0.580569 -3.08612 15.4
      vertex 0.580569 -6.91388 15.4
      vertex 0.765367 -6.84776 15.4
    endloop
  endfacet
  facet normal 0 0 1
    outer loop
      vertex 0.390181 -3.03843 15.4
      vertex 0.580569 -6.91388 15.4
      vertex 0.580569 -3.08612 15.4
    endloop
  endfacet
  facet normal 0 0 1
    outer loop
      vertex 0.390181 -3.03843 15.4
      vertex 0.390181 -6.96157 15.4
      vertex 0.580569 -6.91388 15.4
    endloop
  endfacet
  facet normal 0 0 1
    outer loop
      vertex 0.196033 -3.00963 15.4
      vertex 0.390181 -6.96157 15.4
      vertex 0.390181 -3.03843 15.4
    endloop
  endfacet
  facet normal 0 0 1
    outer loop
      vertex 0.196033 -3.00963 15.4
      vertex 0.196033 -6.99037 15.4
      vertex 0.390181 -6.96157 15.4
    endloop
  endfacet
  facet normal 0 0 1
    outer loop
      vertex 0 -3 15.4
      vertex 0.196033 -6.99037 15.4
      vertex 0.196033 -3.00963 15.4
    endloop
  endfacet
  facet normal 0 0 1
    outer loop
      vertex 0 -3 15.4
      vertex 0 -7 15.4
      vertex 0.196033 -6.99037 15.4
    endloop
  endfacet
  facet normal -0 0 1
    outer loop
      vertex -0.196033 -3.00963 15.4
      vertex 0 -7 15.4
      vertex 0 -3 15.4
    endloop
  endfacet
  facet normal 0 0 1
    outer loop
      vertex -0.196033 -3.00963 15.4
      vertex -0.196033 -6.99037 15.4
      vertex 0 -7 15.4
    endloop
  endfacet
  facet normal -0 0 1
    outer loop
      vertex -0.390181 -3.03843 15.4
      vertex -0.196033 -6.99037 15.4
      vertex -0.196033 -3.00963 15.4
    endloop
  endfacet
  facet normal 0 0 1
    outer loop
      vertex -0.390181 -3.03843 15.4
      vertex -0.390181 -6.96157 15.4
      vertex -0.196033 -6.99037 15.4
    endloop
  endfacet
  facet normal -0 0 1
    outer loop
      vertex -0.580569 -3.08612 15.4
      vertex -0.390181 -6.96157 15.4
      vertex -0.390181 -3.03843 15.4
    endloop
  endfacet
  facet normal 0 0 1
    outer loop
      vertex -0.580569 -3.08612 15.4
      vertex -0.580569 -6.91388 15.4
      vertex -0.390181 -6.96157 15.4
    endloop
  endfacet
  facet normal -0 0 1
    outer loop
      vertex -0.765367 -3.15224 15.4
      vertex -0.580569 -6.91388 15.4
      vertex -0.580569 -3.08612 15.4
    endloop
  endfacet
  facet normal 0 0 1
    outer loop
      vertex -0.765367 -3.15224 15.4
      vertex -0.765367 -6.84776 15.4
      vertex -0.580569 -6.91388 15.4
    endloop
  endfacet
  facet normal -0 0 1
    outer loop
      vertex -0.942793 -3.23616 15.4
      vertex -0.765367 -6.84776 15.4
      vertex -0.765367 -3.15224 15.4
    endloop
  endfacet
  facet normal 0 0 1
    outer loop
      vertex -0.942793 -3.23616 15.4
      vertex -0.942793 -6.76384 15.4
      vertex -0.765367 -6.84776 15.4
    endloop
  endfacet
  facet normal -0 0 1
    outer loop
      vertex -1.11114 -3.33706 15.4
      vertex -0.942793 -6.76384 15.4
      vertex -0.942793 -3.23616 15.4
    endloop
  endfacet
  facet normal 0 0 1
    outer loop
      vertex -1.11114 -3.33706 15.4
      vertex -1.11114 -6.66294 15.4
      vertex -0.942793 -6.76384 15.4
    endloop
  endfacet
  facet normal -0 0 1
    outer loop
      vertex -1.26879 -3.45398 15.4
      vertex -1.11114 -6.66294 15.4
      vertex -1.11114 -3.33706 15.4
    endloop
  endfacet
  facet normal 0 0 1
    outer loop
      vertex -1.26879 -3.45398 15.4
      vertex -1.26879 -6.54602 15.4
      vertex -1.11114 -6.66294 15.4
    endloop
  endfacet
  facet normal -0 0 1
    outer loop
      vertex -1.41421 -3.58579 15.4
      vertex -1.26879 -6.54602 15.4
      vertex -1.26879 -3.45398 15.4
    endloop
  endfacet
  facet normal 0 0 1
    outer loop
      vertex -1.41421 -3.58579 15.4
      vertex -1.41421 -6.41421 15.4
      vertex -1.26879 -6.54602 15.4
    endloop
  endfacet
  facet normal -0 0 1
    outer loop
      vertex -1.54602 -3.73121 15.4
      vertex -1.41421 -6.41421 15.4
      vertex -1.41421 -3.58579 15.4
    endloop
  endfacet
  facet normal 0 0 1
    outer loop
      vertex -1.54602 -3.73121 15.4
      vertex -1.54602 -6.26879 15.4
      vertex -1.41421 -6.41421 15.4
    endloop
  endfacet
  facet normal -0 0 1
    outer loop
      vertex -1.66294 -3.88886 15.4
      vertex -1.54602 -6.26879 15.4
      vertex -1.54602 -3.73121 15.4
    endloop
  endfacet
  facet normal 0 0 1
    outer loop
      vertex -1.66294 -3.88886 15.4
      vertex -1.66294 -6.11114 15.4
      vertex -1.54602 -6.26879 15.4
    endloop
  endfacet
  facet normal -0 0 1
    outer loop
      vertex -1.76384 -4.05721 15.4
      vertex -1.66294 -6.11114 15.4
      vertex -1.66294 -3.88886 15.4
    endloop
  endfacet
  facet normal 0 0 1
    outer loop
      vertex -1.76384 -4.05721 15.4
      vertex -1.76384 -5.94279 15.4
      vertex -1.66294 -6.11114 15.4
    endloop
  endfacet
  facet normal -0 0 1
    outer loop
      vertex -1.84776 -4.23463 15.4
      vertex -1.76384 -5.94279 15.4
      vertex -1.76384 -4.05721 15.4
    endloop
  endfacet
  facet normal 0 0 1
    outer loop
      vertex -1.84776 -4.23463 15.4
      vertex -1.84776 -5.76537 15.4
      vertex -1.76384 -5.94279 15.4
    endloop
  endfacet
  facet normal -0 0 1
    outer loop
      vertex -1.91388 -4.41943 15.4
      vertex -1.84776 -5.76537 15.4
      vertex -1.84776 -4.23463 15.4
    endloop
  endfacet
  facet normal 0 0 1
    outer loop
      vertex -1.91388 -4.41943 15.4
      vertex -1.91388 -5.58057 15.4
      vertex -1.84776 -5.76537 15.4
    endloop
  endfacet
  facet normal -0 0 1
    outer loop
      vertex -1.96157 -4.60982 15.4
      vertex -1.91388 -5.58057 15.4
      vertex -1.91388 -4.41943 15.4
    endloop
  endfacet
  facet normal 0 0 1
    outer loop
      vertex -1.96157 -4.60982 15.4
      vertex -1.96157 -5.39018 15.4
      vertex -1.91388 -5.58057 15.4
    endloop
  endfacet
  facet normal -0 0 1
    outer loop
      vertex -1.99037 -4.80397 15.4
      vertex -1.96157 -5.39018 15.4
      vertex -1.96157 -4.60982 15.4
    endloop
  endfacet
  facet normal 0 0 1
    outer loop
      vertex -1.99037 -4.80397 15.4
      vertex -1.99037 -5.19603 15.4
      vertex -1.96157 -5.39018 15.4
    endloop
  endfacet
  facet normal 0 -0 1
    outer loop
      vertex -1.99037 -5.19603 15.4
      vertex -1.99037 -4.80397 15.4
      vertex -2 -5 15.4
    endloop
  endfacet
  facet normal -0.5957 0.803207 0
    outer loop
      vertex -1.11114 -3.33706 13.4
      vertex -1.26879 -3.45398 15.4
      vertex -1.11114 -3.33706 15.4
    endloop
  endfacet
  facet normal -0.5957 0.803207 0
    outer loop
      vertex -1.26879 -3.45398 15.4
      vertex -1.11114 -3.33706 13.4
      vertex -1.26879 -3.45398 13.4
    endloop
  endfacet
  facet normal -0.514099 0.857731 0
    outer loop
      vertex -0.942793 -3.23616 13.4
      vertex -1.11114 -3.33706 15.4
      vertex -0.942793 -3.23616 15.4
    endloop
  endfacet
  facet normal -0.514099 0.857731 0
    outer loop
      vertex -1.11114 -3.33706 15.4
      vertex -0.942793 -3.23616 13.4
      vertex -1.11114 -3.33706 13.4
    endloop
  endfacet
  facet normal -0.67156 0.740951 0
    outer loop
      vertex -1.26879 -3.45398 13.4
      vertex -1.41421 -3.58579 15.4
      vertex -1.26879 -3.45398 15.4
    endloop
  endfacet
  facet normal -0.67156 0.740951 0
    outer loop
      vertex -1.41421 -3.58579 15.4
      vertex -1.26879 -3.45398 13.4
      vertex -1.41421 -3.58579 13.4
    endloop
  endfacet
  facet normal -0.336892 0.941543 0
    outer loop
      vertex -0.580569 -3.08612 13.4
      vertex -0.765367 -3.15224 15.4
      vertex -0.580569 -3.08612 15.4
    endloop
  endfacet
  facet normal -0.336892 0.941543 0
    outer loop
      vertex -0.765367 -3.15224 15.4
      vertex -0.580569 -3.08612 13.4
      vertex -0.765367 -3.15224 13.4
    endloop
  endfacet
  facet normal -0.146731 0.989176 0
    outer loop
      vertex -0.196033 -3.00963 13.4
      vertex -0.390181 -3.03843 15.4
      vertex -0.196033 -3.00963 15.4
    endloop
  endfacet
  facet normal -0.146731 0.989176 0
    outer loop
      vertex -0.390181 -3.03843 15.4
      vertex -0.196033 -3.00963 13.4
      vertex -0.390181 -3.03843 13.4
    endloop
  endfacet
  facet normal 0.998795 -0.049071 0
    outer loop
      vertex 1.99037 -5.19603 15.4
      vertex 2 -5 13.4
      vertex 2 -5 15.4
    endloop
  endfacet
  facet normal 0.998795 -0.049071 0
    outer loop
      vertex 2 -5 13.4
      vertex 1.99037 -5.19603 15.4
      vertex 1.99037 -5.19603 13.4
    endloop
  endfacet
  facet normal 0.049071 -0.998795 0
    outer loop
      vertex 0 -7 13.4
      vertex 0.196033 -6.99037 15.4
      vertex 0 -7 15.4
    endloop
  endfacet
  facet normal 0.049071 -0.998795 0
    outer loop
      vertex 0.196033 -6.99037 15.4
      vertex 0 -7 13.4
      vertex 0.196033 -6.99037 13.4
    endloop
  endfacet
  facet normal 0.242978 -0.970032 0
    outer loop
      vertex 0.390181 -6.96157 13.4
      vertex 0.580569 -6.91388 15.4
      vertex 0.390181 -6.96157 15.4
    endloop
  endfacet
  facet normal 0.242978 -0.970032 0
    outer loop
      vertex 0.580569 -6.91388 15.4
      vertex 0.390181 -6.96157 13.4
      vertex 0.580569 -6.91388 13.4
    endloop
  endfacet
  facet normal 0.5957 -0.803207 0
    outer loop
      vertex 1.11114 -6.66294 13.4
      vertex 1.26879 -6.54602 15.4
      vertex 1.11114 -6.66294 15.4
    endloop
  endfacet
  facet normal 0.5957 -0.803207 0
    outer loop
      vertex 1.26879 -6.54602 15.4
      vertex 1.11114 -6.66294 13.4
      vertex 1.26879 -6.54602 13.4
    endloop
  endfacet
  facet normal 0.740951 -0.67156 0
    outer loop
      vertex 1.41421 -6.41421 15.4
      vertex 1.54602 -6.26879 13.4
      vertex 1.54602 -6.26879 15.4
    endloop
  endfacet
  facet normal 0.740951 -0.67156 0
    outer loop
      vertex 1.54602 -6.26879 13.4
      vertex 1.41421 -6.41421 15.4
      vertex 1.41421 -6.41421 13.4
    endloop
  endfacet
  facet normal 0.427556 -0.903989 0
    outer loop
      vertex 0.765367 -6.84776 13.4
      vertex 0.942793 -6.76384 15.4
      vertex 0.765367 -6.84776 15.4
    endloop
  endfacet
  facet normal 0.427556 -0.903989 0
    outer loop
      vertex 0.942793 -6.76384 15.4
      vertex 0.765367 -6.84776 13.4
      vertex 0.942793 -6.76384 13.4
    endloop
  endfacet
  facet normal 0.803207 -0.5957 0
    outer loop
      vertex 1.54602 -6.26879 15.4
      vertex 1.66294 -6.11114 13.4
      vertex 1.66294 -6.11114 15.4
    endloop
  endfacet
  facet normal 0.803207 -0.5957 0
    outer loop
      vertex 1.66294 -6.11114 13.4
      vertex 1.54602 -6.26879 15.4
      vertex 1.54602 -6.26879 13.4
    endloop
  endfacet
  facet normal 0.903989 -0.427556 0
    outer loop
      vertex 1.76384 -5.94279 15.4
      vertex 1.84776 -5.76537 13.4
      vertex 1.84776 -5.76537 15.4
    endloop
  endfacet
  facet normal 0.903989 -0.427556 0
    outer loop
      vertex 1.84776 -5.76537 13.4
      vertex 1.76384 -5.94279 15.4
      vertex 1.76384 -5.94279 13.4
    endloop
  endfacet
  facet normal -0.67156 -0.740951 0
    outer loop
      vertex -1.41421 -6.41421 13.4
      vertex -1.26879 -6.54602 15.4
      vertex -1.41421 -6.41421 15.4
    endloop
  endfacet
  facet normal -0.67156 -0.740951 -0
    outer loop
      vertex -1.26879 -6.54602 15.4
      vertex -1.41421 -6.41421 13.4
      vertex -1.26879 -6.54602 13.4
    endloop
  endfacet
  facet normal -0.514099 -0.857731 0
    outer loop
      vertex -1.11114 -6.66294 13.4
      vertex -0.942793 -6.76384 15.4
      vertex -1.11114 -6.66294 15.4
    endloop
  endfacet
  facet normal -0.514099 -0.857731 -0
    outer loop
      vertex -0.942793 -6.76384 15.4
      vertex -1.11114 -6.66294 13.4
      vertex -0.942793 -6.76384 13.4
    endloop
  endfacet
  facet normal -0.336892 -0.941543 0
    outer loop
      vertex -0.765367 -6.84776 13.4
      vertex -0.580569 -6.91388 15.4
      vertex -0.765367 -6.84776 15.4
    endloop
  endfacet
  facet normal -0.336892 -0.941543 -0
    outer loop
      vertex -0.580569 -6.91388 15.4
      vertex -0.765367 -6.84776 13.4
      vertex -0.580569 -6.91388 13.4
    endloop
  endfacet
  facet normal -0.146731 -0.989176 0
    outer loop
      vertex -0.390181 -6.96157 13.4
      vertex -0.196033 -6.99037 15.4
      vertex -0.390181 -6.96157 15.4
    endloop
  endfacet
  facet normal -0.146731 -0.989176 -0
    outer loop
      vertex -0.196033 -6.99037 15.4
      vertex -0.390181 -6.96157 13.4
      vertex -0.196033 -6.99037 13.4
    endloop
  endfacet
  facet normal -0.803207 -0.5957 0
    outer loop
      vertex -1.54602 -6.26879 13.4
      vertex -1.66294 -6.11114 15.4
      vertex -1.66294 -6.11114 13.4
    endloop
  endfacet
  facet normal -0.803207 -0.5957 0
    outer loop
      vertex -1.66294 -6.11114 15.4
      vertex -1.54602 -6.26879 13.4
      vertex -1.54602 -6.26879 15.4
    endloop
  endfacet
  facet normal -0.903989 -0.427556 0
    outer loop
      vertex -1.76384 -5.94279 13.4
      vertex -1.84776 -5.76537 15.4
      vertex -1.84776 -5.76537 13.4
    endloop
  endfacet
  facet normal -0.903989 -0.427556 0
    outer loop
      vertex -1.84776 -5.76537 15.4
      vertex -1.76384 -5.94279 13.4
      vertex -1.76384 -5.94279 15.4
    endloop
  endfacet
  facet normal -0.857731 -0.514099 0
    outer loop
      vertex -1.66294 -6.11114 13.4
      vertex -1.76384 -5.94279 15.4
      vertex -1.76384 -5.94279 13.4
    endloop
  endfacet
  facet normal -0.857731 -0.514099 0
    outer loop
      vertex -1.76384 -5.94279 15.4
      vertex -1.66294 -6.11114 13.4
      vertex -1.66294 -6.11114 15.4
    endloop
  endfacet
  facet normal -0.970032 -0.242978 0
    outer loop
      vertex -1.91388 -5.58057 13.4
      vertex -1.96157 -5.39018 15.4
      vertex -1.96157 -5.39018 13.4
    endloop
  endfacet
  facet normal -0.970032 -0.242978 0
    outer loop
      vertex -1.96157 -5.39018 15.4
      vertex -1.91388 -5.58057 13.4
      vertex -1.91388 -5.58057 15.4
    endloop
  endfacet
  facet normal -0.941543 -0.336892 0
    outer loop
      vertex -1.84776 -5.76537 13.4
      vertex -1.91388 -5.58057 15.4
      vertex -1.91388 -5.58057 13.4
    endloop
  endfacet
  facet normal -0.941543 -0.336892 0
    outer loop
      vertex -1.91388 -5.58057 15.4
      vertex -1.84776 -5.76537 13.4
      vertex -1.84776 -5.76537 15.4
    endloop
  endfacet
  facet normal -0.998795 -0.049071 0
    outer loop
      vertex -1.99037 -5.19603 13.4
      vertex -2 -5 15.4
      vertex -2 -5 13.4
    endloop
  endfacet
  facet normal -0.998795 -0.049071 0
    outer loop
      vertex -2 -5 15.4
      vertex -1.99037 -5.19603 13.4
      vertex -1.99037 -5.19603 15.4
    endloop
  endfacet
  facet normal 0.146731 -0.989176 0
    outer loop
      vertex 0.196033 -6.99037 13.4
      vertex 0.390181 -6.96157 15.4
      vertex 0.196033 -6.99037 15.4
    endloop
  endfacet
  facet normal 0.146731 -0.989176 0
    outer loop
      vertex 0.390181 -6.96157 15.4
      vertex 0.196033 -6.99037 13.4
      vertex 0.390181 -6.96157 13.4
    endloop
  endfacet
  facet normal 0.336892 -0.941543 0
    outer loop
      vertex 0.580569 -6.91388 13.4
      vertex 0.765367 -6.84776 15.4
      vertex 0.580569 -6.91388 15.4
    endloop
  endfacet
  facet normal 0.336892 -0.941543 0
    outer loop
      vertex 0.765367 -6.84776 15.4
      vertex 0.580569 -6.91388 13.4
      vertex 0.765367 -6.84776 13.4
    endloop
  endfacet
  facet normal 0.67156 -0.740951 0
    outer loop
      vertex 1.26879 -6.54602 13.4
      vertex 1.41421 -6.41421 15.4
      vertex 1.26879 -6.54602 15.4
    endloop
  endfacet
  facet normal 0.67156 -0.740951 0
    outer loop
      vertex 1.41421 -6.41421 15.4
      vertex 1.26879 -6.54602 13.4
      vertex 1.41421 -6.41421 13.4
    endloop
  endfacet
  facet normal 0.514099 -0.857731 0
    outer loop
      vertex 0.942793 -6.76384 13.4
      vertex 1.11114 -6.66294 15.4
      vertex 0.942793 -6.76384 15.4
    endloop
  endfacet
  facet normal 0.514099 -0.857731 0
    outer loop
      vertex 1.11114 -6.66294 15.4
      vertex 0.942793 -6.76384 13.4
      vertex 1.11114 -6.66294 13.4
    endloop
  endfacet
  facet normal 0.857731 -0.514099 0
    outer loop
      vertex 1.66294 -6.11114 15.4
      vertex 1.76384 -5.94279 13.4
      vertex 1.76384 -5.94279 15.4
    endloop
  endfacet
  facet normal 0.857731 -0.514099 0
    outer loop
      vertex 1.76384 -5.94279 13.4
      vertex 1.66294 -6.11114 15.4
      vertex 1.66294 -6.11114 13.4
    endloop
  endfacet
  facet normal 0.989176 -0.146731 0
    outer loop
      vertex 1.96157 -5.39018 15.4
      vertex 1.99037 -5.19603 13.4
      vertex 1.99037 -5.19603 15.4
    endloop
  endfacet
  facet normal 0.989176 -0.146731 0
    outer loop
      vertex 1.99037 -5.19603 13.4
      vertex 1.96157 -5.39018 15.4
      vertex 1.96157 -5.39018 13.4
    endloop
  endfacet
  facet normal 0.970032 -0.242978 0
    outer loop
      vertex 1.91388 -5.58057 15.4
      vertex 1.96157 -5.39018 13.4
      vertex 1.96157 -5.39018 15.4
    endloop
  endfacet
  facet normal 0.970032 -0.242978 0
    outer loop
      vertex 1.96157 -5.39018 13.4
      vertex 1.91388 -5.58057 15.4
      vertex 1.91388 -5.58057 13.4
    endloop
  endfacet
  facet normal -0.5957 -0.803207 0
    outer loop
      vertex -1.26879 -6.54602 13.4
      vertex -1.11114 -6.66294 15.4
      vertex -1.26879 -6.54602 15.4
    endloop
  endfacet
  facet normal -0.5957 -0.803207 -0
    outer loop
      vertex -1.11114 -6.66294 15.4
      vertex -1.26879 -6.54602 13.4
      vertex -1.11114 -6.66294 13.4
    endloop
  endfacet
  facet normal -0.427556 -0.903989 0
    outer loop
      vertex -0.942793 -6.76384 13.4
      vertex -0.765367 -6.84776 15.4
      vertex -0.942793 -6.76384 15.4
    endloop
  endfacet
  facet normal -0.427556 -0.903989 -0
    outer loop
      vertex -0.765367 -6.84776 15.4
      vertex -0.942793 -6.76384 13.4
      vertex -0.765367 -6.84776 13.4
    endloop
  endfacet
  facet normal -0.242978 -0.970032 0
    outer loop
      vertex -0.580569 -6.91388 13.4
      vertex -0.390181 -6.96157 15.4
      vertex -0.580569 -6.91388 15.4
    endloop
  endfacet
  facet normal -0.242978 -0.970032 -0
    outer loop
      vertex -0.390181 -6.96157 15.4
      vertex -0.580569 -6.91388 13.4
      vertex -0.390181 -6.96157 13.4
    endloop
  endfacet
  facet normal -0.740951 -0.67156 0
    outer loop
      vertex -1.41421 -6.41421 13.4
      vertex -1.54602 -6.26879 15.4
      vertex -1.54602 -6.26879 13.4
    endloop
  endfacet
  facet normal -0.740951 -0.67156 0
    outer loop
      vertex -1.54602 -6.26879 15.4
      vertex -1.41421 -6.41421 13.4
      vertex -1.41421 -6.41421 15.4
    endloop
  endfacet
  facet normal -0.989176 -0.146731 0
    outer loop
      vertex -1.96157 -5.39018 13.4
      vertex -1.99037 -5.19603 15.4
      vertex -1.99037 -5.19603 13.4
    endloop
  endfacet
  facet normal -0.989176 -0.146731 0
    outer loop
      vertex -1.99037 -5.19603 15.4
      vertex -1.96157 -5.39018 13.4
      vertex -1.96157 -5.39018 15.4
    endloop
  endfacet
  facet normal -1 0 0
    outer loop
      vertex 4.3 -5 -4.5
      vertex 4.3 9.3 10.15
      vertex 4.3 9.3 -4.5
    endloop
  endfacet
  facet normal -1 0 0
    outer loop
      vertex 4.3 -9.3 10.15
      vertex 4.3 -5 -4.5
      vertex 4.3 -9.3 -4.5
    endloop
  endfacet
  facet normal -1 0 0
    outer loop
      vertex 4.3 -5 -4.5
      vertex 4.3 -9.3 10.15
      vertex 4.3 9.3 10.15
    endloop
  endfacet
  facet normal 0 0 1
    outer loop
      vertex 4.3 9.3 -4.5
      vertex 4.3 -4.7 -4.5
      vertex 4.3 -5 -4.5
    endloop
  endfacet
  facet normal -0 0 1
    outer loop
      vertex 4.15348 -3.88708 -4.5
      vertex 4.3 -4.7 -4.5
      vertex 4.3 9.3 -4.5
    endloop
  endfacet
  facet normal 0 0 1
    outer loop
      vertex 4.3 -4.7 -4.5
      vertex 4.15348 -3.88708 -4.5
      vertex 4.2605 -4.7 -4.5
    endloop
  endfacet
  facet normal 0 0 1
    outer loop
      vertex 4.3 9.3 -4.5
      vertex 3.72391 -2.85 -4.5
      vertex 4.15348 -3.88708 -4.5
    endloop
  endfacet
  facet normal 0 0 1
    outer loop
      vertex 4.3 9.3 -4.5
      vertex 3.04056 -1.95944 -4.5
      vertex 3.72391 -2.85 -4.5
    endloop
  endfacet
  facet normal -0 0 1
    outer loop
      vertex 1.99186 -0.15 -4.5
      vertex 3.04056 -1.95944 -4.5
      vertex 4.3 9.3 -4.5
    endloop
  endfacet
  facet normal 0 0 1
    outer loop
      vertex 3.04056 -1.95944 -4.5
      vertex 2.22163 -0.704717 -4.5
      vertex 2.3 -1.3 -4.5
    endloop
  endfacet
  facet normal 0 0 1
    outer loop
      vertex 3.04056 -1.95944 -4.5
      vertex 1.99186 -0.15 -4.5
      vertex 2.22163 -0.704717 -4.5
    endloop
  endfacet
  facet normal 0 0 1
    outer loop
      vertex 4.3 9.3 -4.5
      vertex 1.62635 0.326345 -4.5
      vertex 1.99186 -0.15 -4.5
    endloop
  endfacet
  facet normal 0 0 1
    outer loop
      vertex 4.3 9.3 -4.5
      vertex 1.15 0.691858 -4.5
      vertex 1.62635 0.326345 -4.5
    endloop
  endfacet
  facet normal 0 0 1
    outer loop
      vertex 4.3 9.3 -4.5
      vertex 0.595284 0.921629 -4.5
      vertex 1.15 0.691858 -4.5
    endloop
  endfacet
  facet normal 0 0 1
    outer loop
      vertex 4.3 9.3 -4.5
      vertex 7.62939e-007 0.999999 -4.5
      vertex 0.595284 0.921629 -4.5
    endloop
  endfacet
  facet normal -0 0 1
    outer loop
      vertex -4.3 9.3 -4.5
      vertex 7.62939e-007 0.999999 -4.5
      vertex 4.3 9.3 -4.5
    endloop
  endfacet
  facet normal 0 0 1
    outer loop
      vertex 7.62939e-007 0.999999 -4.5
      vertex -4.3 9.3 -4.5
      vertex -0.595284 0.921629 -4.5
    endloop
  endfacet
  facet normal 0 0 1
    outer loop
      vertex -0.595284 0.921629 -4.5
      vertex -4.3 9.3 -4.5
      vertex -1.15 0.691858 -4.5
    endloop
  endfacet
  facet normal 0 0 1
    outer loop
      vertex -1.15 0.691858 -4.5
      vertex -4.3 9.3 -4.5
      vertex -1.62634 0.326345 -4.5
    endloop
  endfacet
  facet normal 0 0 1
    outer loop
      vertex -2.22163 -0.704717 -4.5
      vertex -3.04056 -1.95944 -4.5
      vertex -2.3 -1.3 -4.5
    endloop
  endfacet
  facet normal 0 0 1
    outer loop
      vertex -1.99186 -0.15 -4.5
      vertex -3.04056 -1.95944 -4.5
      vertex -2.22163 -0.704717 -4.5
    endloop
  endfacet
  facet normal 0 0 1
    outer loop
      vertex -4.3 9.3 -4.5
      vertex -3.04056 -1.95944 -4.5
      vertex -1.99186 -0.15 -4.5
    endloop
  endfacet
  facet normal 0 0 1
    outer loop
      vertex -1.62634 0.326345 -4.5
      vertex -4.3 9.3 -4.5
      vertex -1.99186 -0.15 -4.5
    endloop
  endfacet
  facet normal 0 0 1
    outer loop
      vertex -3.04056 -1.95944 -4.5
      vertex -4.3 9.3 -4.5
      vertex -3.72391 -2.85 -4.5
    endloop
  endfacet
  facet normal 0 0 1
    outer loop
      vertex -4.3 9.3 -4.5
      vertex -4.15348 -3.88708 -4.5
      vertex -3.72391 -2.85 -4.5
    endloop
  endfacet
  facet normal 0 0 1
    outer loop
      vertex -4.3 -4.7 -4.5
      vertex -4.15348 -3.88708 -4.5
      vertex -4.3 9.3 -4.5
    endloop
  endfacet
  facet normal 0 0 1
    outer loop
      vertex -4.15348 -3.88708 -4.5
      vertex -4.3 -4.7 -4.5
      vertex -4.2605 -4.7 -4.5
    endloop
  endfacet
  facet normal 0 0 1
    outer loop
      vertex 4.3 -5 -4.5
      vertex 4.3 -4.7 -4.5
      vertex 4.3 -4.99999 -4.5
    endloop
  endfacet
  facet normal 0 0 1
    outer loop
      vertex 3.04056 -1.95944 -4.5
      vertex 2.3 -1.3 -4.5
      vertex 2.2891 -1.38282 -4.5
    endloop
  endfacet
  facet normal 0 0 1
    outer loop
      vertex -2.2891 -1.38282 -4.5
      vertex -2.3 -1.3 -4.5
      vertex -3.04056 -1.95944 -4.5
    endloop
  endfacet
  facet normal 0 0 0
    outer loop
      vertex -4.3 9.3 -4.5
      vertex -4.3 -5 -4.5
      vertex -4.3 -4.7 -4.5
    endloop
  endfacet
  facet normal -0 0 1
    outer loop
      vertex 4.3 -5.00001 -4.5
      vertex 4.3 -9.3 -4.5
      vertex 4.3 -5 -4.5
    endloop
  endfacet
  facet normal 1 0 0
    outer loop
      vertex -4.3 9.3 10.15
      vertex -4.3 -5 -4.5
      vertex -4.3 9.3 -4.5
    endloop
  endfacet
  facet normal 1 -0 0
    outer loop
      vertex -4.3 -9.3 10.15
      vertex -4.3 -5 -4.5
      vertex -4.3 9.3 10.15
    endloop
  endfacet
  facet normal 1 0 0
    outer loop
      vertex -4.3 -5 -4.5
      vertex -4.3 -9.3 10.15
      vertex -4.3 -9.3 -4.5
    endloop
  endfacet
  facet normal 0 -1 0
    outer loop
      vertex -4.3 9.3 10.15
      vertex -2 9.3 2.3
      vertex -2 9.3 10.15
    endloop
  endfacet
  facet normal 0 -1 -0
    outer loop
      vertex -2 9.3 2.3
      vertex -4.3 9.3 -4.5
      vertex 2 9.3 2.3
    endloop
  endfacet
  facet normal 0 -1 0
    outer loop
      vertex -4.3 9.3 -4.5
      vertex -2 9.3 2.3
      vertex -4.3 9.3 10.15
    endloop
  endfacet
  facet normal 0 -1 0
    outer loop
      vertex 2 9.3 2.3
      vertex 4.3 9.3 10.15
      vertex 2 9.3 10.15
    endloop
  endfacet
  facet normal 0 -1 0
    outer loop
      vertex 2 9.3 2.3
      vertex 4.3 9.3 -4.5
      vertex 4.3 9.3 10.15
    endloop
  endfacet
  facet normal 0 -1 0
    outer loop
      vertex 4.3 9.3 -4.5
      vertex 2 9.3 2.3
      vertex -4.3 9.3 -4.5
    endloop
  endfacet
  facet normal 0.793354 -0.608761 0
    outer loop
      vertex -3.72391 -2.85 -4.5
      vertex -3.04056 -1.95944 -6.325
      vertex -3.04056 -1.95944 -4.5
    endloop
  endfacet
  facet normal 0.793354 -0.608761 0
    outer loop
      vertex -3.04056 -1.95944 -6.325
      vertex -3.72391 -2.85 -4.5
      vertex -3.72391 -2.85 -6.325
    endloop
  endfacet
  facet normal -0.988372 -0.152057 0
    outer loop
      vertex 4.3 -5 -6.325
      vertex 4.3 -4.99999 -4.5
      vertex 4.3 -4.99999 -6.325
    endloop
  endfacet
  facet normal -0.988372 -0.152057 0
    outer loop
      vertex 4.3 -4.99999 -4.5
      vertex 4.3 -5 -6.325
      vertex 4.3 -5 -4.5
    endloop
  endfacet
  facet normal -0.991445 -0.130526 0
    outer loop
      vertex 4.2605 -4.7 -6.325
      vertex 4.15348 -3.88708 -4.5
      vertex 4.15348 -3.88708 -6.325
    endloop
  endfacet
  facet normal -0.991445 -0.130526 0
    outer loop
      vertex 4.15348 -3.88708 -4.5
      vertex 4.2605 -4.7 -6.325
      vertex 4.2605 -4.7 -4.5
    endloop
  endfacet
  facet normal 0.608761 -0.793354 0
    outer loop
      vertex -3.04056 -1.95944 -6.325
      vertex -2.2891 -1.38282 -4.5
      vertex -3.04056 -1.95944 -4.5
    endloop
  endfacet
  facet normal 0.608761 -0.793354 0
    outer loop
      vertex -2.2891 -1.38282 -4.5
      vertex -3.04056 -1.95944 -6.325
      vertex -2.2891 -1.38282 -6.325
    endloop
  endfacet
  facet normal -0.608761 -0.793354 0
    outer loop
      vertex 2.2891 -1.38282 -6.325
      vertex 3.04056 -1.95944 -4.5
      vertex 2.2891 -1.38282 -4.5
    endloop
  endfacet
  facet normal -0.608761 -0.793354 -0
    outer loop
      vertex 3.04056 -1.95944 -4.5
      vertex 2.2891 -1.38282 -6.325
      vertex 3.04056 -1.95944 -6.325
    endloop
  endfacet
  facet normal -0.793353 -0.608762 0
    outer loop
      vertex 3.72391 -2.85 -6.325
      vertex 3.04056 -1.95944 -4.5
      vertex 3.04056 -1.95944 -6.325
    endloop
  endfacet
  facet normal -0.793353 -0.608762 0
    outer loop
      vertex 3.04056 -1.95944 -4.5
      vertex 3.72391 -2.85 -6.325
      vertex 3.72391 -2.85 -4.5
    endloop
  endfacet
  facet normal -0.92388 -0.382683 0
    outer loop
      vertex 4.15348 -3.88708 -6.325
      vertex 3.72391 -2.85 -4.5
      vertex 3.72391 -2.85 -6.325
    endloop
  endfacet
  facet normal -0.92388 -0.382683 0
    outer loop
      vertex 3.72391 -2.85 -4.5
      vertex 4.15348 -3.88708 -6.325
      vertex 4.15348 -3.88708 -4.5
    endloop
  endfacet
  facet normal 0.991445 -0.130526 0
    outer loop
      vertex -4.2605 -4.7 -4.5
      vertex -4.15348 -3.88708 -6.325
      vertex -4.15348 -3.88708 -4.5
    endloop
  endfacet
  facet normal 0.991445 -0.130526 0
    outer loop
      vertex -4.15348 -3.88708 -6.325
      vertex -4.2605 -4.7 -4.5
      vertex -4.2605 -4.7 -6.325
    endloop
  endfacet
  facet normal 0.92388 -0.382683 0
    outer loop
      vertex -4.15348 -3.88708 -4.5
      vertex -3.72391 -2.85 -6.325
      vertex -3.72391 -2.85 -4.5
    endloop
  endfacet
  facet normal 0.92388 -0.382683 0
    outer loop
      vertex -3.72391 -2.85 -6.325
      vertex -4.15348 -3.88708 -4.5
      vertex -4.15348 -3.88708 -6.325
    endloop
  endfacet
  facet normal -0.986394 0.164399 0
    outer loop
      vertex 4.3 -5.00001 -6.325
      vertex 4.3 -5 -4.5
      vertex 4.3 -5 -6.325
    endloop
  endfacet
  facet normal -0.986394 0.164399 0
    outer loop
      vertex 4.3 -5 -4.5
      vertex 4.3 -5.00001 -6.325
      vertex 4.3 -5.00001 -4.5
    endloop
  endfacet
  facet normal 0.991445 -0.130525 0
    outer loop
      vertex -2.3 -1.3 -4.5
      vertex -2.22163 -0.704717 -6.325
      vertex -2.22163 -0.704717 -4.5
    endloop
  endfacet
  facet normal 0.991445 -0.130525 0
    outer loop
      vertex -2.22163 -0.704717 -6.325
      vertex -2.3 -1.3 -4.5
      vertex -2.3 -1.3 -6.325
    endloop
  endfacet
  facet normal -0.130525 -0.991445 0
    outer loop
      vertex 7.62939e-007 0.999999 -6.325
      vertex 0.595284 0.921629 -4.5
      vertex 7.62939e-007 0.999999 -4.5
    endloop
  endfacet
  facet normal -0.130525 -0.991445 -0
    outer loop
      vertex 0.595284 0.921629 -4.5
      vertex 7.62939e-007 0.999999 -6.325
      vertex 0.595284 0.921629 -6.325
    endloop
  endfacet
  facet normal 0.608762 -0.793353 0
    outer loop
      vertex -1.62634 0.326345 -6.325
      vertex -1.15 0.691858 -4.5
      vertex -1.62634 0.326345 -4.5
    endloop
  endfacet
  facet normal 0.608762 -0.793353 0
    outer loop
      vertex -1.15 0.691858 -4.5
      vertex -1.62634 0.326345 -6.325
      vertex -1.15 0.691858 -6.325
    endloop
  endfacet
  facet normal 0.923879 -0.382684 0
    outer loop
      vertex -2.22163 -0.704717 -4.5
      vertex -1.99186 -0.15 -6.325
      vertex -1.99186 -0.15 -4.5
    endloop
  endfacet
  facet normal 0.923879 -0.382684 0
    outer loop
      vertex -1.99186 -0.15 -6.325
      vertex -2.22163 -0.704717 -4.5
      vertex -2.22163 -0.704717 -6.325
    endloop
  endfacet
  facet normal 0.382684 -0.923879 0
    outer loop
      vertex -1.15 0.691858 -6.325
      vertex -0.595284 0.921629 -4.5
      vertex -1.15 0.691858 -4.5
    endloop
  endfacet
  facet normal 0.382684 -0.923879 0
    outer loop
      vertex -0.595284 0.921629 -4.5
      vertex -1.15 0.691858 -6.325
      vertex -0.595284 0.921629 -6.325
    endloop
  endfacet
  facet normal -0.793353 -0.608762 0
    outer loop
      vertex 1.99186 -0.15 -6.325
      vertex 1.62635 0.326345 -4.5
      vertex 1.62635 0.326345 -6.325
    endloop
  endfacet
  facet normal -0.793353 -0.608762 0
    outer loop
      vertex 1.62635 0.326345 -4.5
      vertex 1.99186 -0.15 -6.325
      vertex 1.99186 -0.15 -4.5
    endloop
  endfacet
  facet normal -0.92388 -0.382683 0
    outer loop
      vertex 2.22163 -0.704717 -6.325
      vertex 1.99186 -0.15 -4.5
      vertex 1.99186 -0.15 -6.325
    endloop
  endfacet
  facet normal -0.92388 -0.382683 0
    outer loop
      vertex 1.99186 -0.15 -4.5
      vertex 2.22163 -0.704717 -6.325
      vertex 2.22163 -0.704717 -4.5
    endloop
  endfacet
  facet normal -0.608761 -0.793354 0
    outer loop
      vertex 1.15 0.691858 -6.325
      vertex 1.62635 0.326345 -4.5
      vertex 1.15 0.691858 -4.5
    endloop
  endfacet
  facet normal -0.608761 -0.793354 -0
    outer loop
      vertex 1.62635 0.326345 -4.5
      vertex 1.15 0.691858 -6.325
      vertex 1.62635 0.326345 -6.325
    endloop
  endfacet
  facet normal 0.793353 -0.608762 0
    outer loop
      vertex -1.99186 -0.15 -4.5
      vertex -1.62634 0.326345 -6.325
      vertex -1.62634 0.326345 -4.5
    endloop
  endfacet
  facet normal 0.793353 -0.608762 0
    outer loop
      vertex -1.62634 0.326345 -6.325
      vertex -1.99186 -0.15 -4.5
      vertex -1.99186 -0.15 -6.325
    endloop
  endfacet
  facet normal 0.130525 -0.991445 0
    outer loop
      vertex -0.595284 0.921629 -6.325
      vertex 7.62939e-007 0.999999 -4.5
      vertex -0.595284 0.921629 -4.5
    endloop
  endfacet
  facet normal 0.130525 -0.991445 0
    outer loop
      vertex 7.62939e-007 0.999999 -4.5
      vertex -0.595284 0.921629 -6.325
      vertex 7.62939e-007 0.999999 -6.325
    endloop
  endfacet
  facet normal -0.991445 -0.130525 0
    outer loop
      vertex 2.3 -1.3 -6.325
      vertex 2.22163 -0.704717 -4.5
      vertex 2.22163 -0.704717 -6.325
    endloop
  endfacet
  facet normal -0.991445 -0.130525 0
    outer loop
      vertex 2.22163 -0.704717 -4.5
      vertex 2.3 -1.3 -6.325
      vertex 2.3 -1.3 -4.5
    endloop
  endfacet
  facet normal -0.382684 -0.923879 0
    outer loop
      vertex 0.595284 0.921629 -6.325
      vertex 1.15 0.691858 -4.5
      vertex 0.595284 0.921629 -4.5
    endloop
  endfacet
  facet normal -0.382684 -0.923879 -0
    outer loop
      vertex 1.15 0.691858 -4.5
      vertex 0.595284 0.921629 -6.325
      vertex 1.15 0.691858 -6.325
    endloop
  endfacet
  facet normal 0.991445 0.130526 0
    outer loop
      vertex -2.2891 -1.38282 -4.5
      vertex -2.3 -1.3 -6.325
      vertex -2.3 -1.3 -4.5
    endloop
  endfacet
  facet normal 0.991445 0.130526 0
    outer loop
      vertex -2.3 -1.3 -6.325
      vertex -2.2891 -1.38282 -4.5
      vertex -2.2891 -1.38282 -6.325
    endloop
  endfacet
  facet normal -0.991445 0.130526 0
    outer loop
      vertex 2.2891 -1.38282 -6.325
      vertex 2.3 -1.3 -4.5
      vertex 2.3 -1.3 -6.325
    endloop
  endfacet
  facet normal -0.991445 0.130526 0
    outer loop
      vertex 2.3 -1.3 -4.5
      vertex 2.2891 -1.38282 -6.325
      vertex 2.2891 -1.38282 -4.5
    endloop
  endfacet
  facet normal 1 0 0
    outer loop
      vertex -4.3 -9.3 10.825
      vertex -4.3 9.3 11.325
      vertex -4.3 -9.3 11.325
    endloop
  endfacet
  facet normal 1 0 0
    outer loop
      vertex -4.3 9.3 11.325
      vertex -4.3 -9.3 10.825
      vertex -4.3 9.3 10.15
    endloop
  endfacet
  facet normal 1 0 0
    outer loop
      vertex -4.3 -9.3 10.825
      vertex -4.3 -9.3 10.15
      vertex -4.3 9.3 10.15
    endloop
  endfacet
  facet normal 1 0 0
    outer loop
      vertex -4.3 -9.3 10.15
      vertex -4.3 -10.3 10.825
      vertex -4.3 -9.3 -4.5
    endloop
  endfacet
  facet normal 1 -0 0
    outer loop
      vertex -4.3 -10.3 10.825
      vertex -4.3 -9.3 10.15
      vertex -4.3 -9.3 10.825
    endloop
  endfacet
  facet normal 1 -0 0
    outer loop
      vertex -4.3 -9.3 -4.5
      vertex -4.3 -5 -6.325
      vertex -4.3 -5 -4.5
    endloop
  endfacet
  facet normal 1 0 0
    outer loop
      vertex -4.3 -9.3 -4.5
      vertex -4.3 -10.3 -6.325
      vertex -4.3 -5 -6.325
    endloop
  endfacet
  facet normal 1 0 0
    outer loop
      vertex -4.3 -10.3 -6.325
      vertex -4.3 -9.3 -4.5
      vertex -4.3 -10.3 10.825
    endloop
  endfacet
  facet normal 1 -0 0
    outer loop
      vertex -4.3 -5 -4.5
      vertex -4.3 -4.7 -6.325
      vertex -4.3 -4.7 -4.5
    endloop
  endfacet
  facet normal 1 0 0
    outer loop
      vertex -4.3 -4.7 -6.325
      vertex -4.3 -5 -4.5
      vertex -4.3 -5 -6.325
    endloop
  endfacet
  facet normal 0 0 -1
    outer loop
      vertex -4.3 -9.3 11.325
      vertex 4.3 9.3 11.325
      vertex 4.3 -9.3 11.325
    endloop
  endfacet
  facet normal -0 0 -1
    outer loop
      vertex 4.3 9.3 11.325
      vertex -4.3 -9.3 11.325
      vertex -4.3 9.3 11.325
    endloop
  endfacet
  facet normal -1 0 0
    outer loop
      vertex 4.3 -5.00001 -6.325
      vertex 4.3 -9.3 -4.5
      vertex 4.3 -5.00001 -4.5
    endloop
  endfacet
  facet normal -1 0 0
    outer loop
      vertex 4.3 -10.3 10.825
      vertex 4.3 -9.3 -4.5
      vertex 4.3 -10.3 -6.325
    endloop
  endfacet
  facet normal -1 0 0
    outer loop
      vertex 4.3 -10.3 -6.325
      vertex 4.3 -9.3 -4.5
      vertex 4.3 -5.00001 -6.325
    endloop
  endfacet
  facet normal -1 0 0
    outer loop
      vertex 4.3 9.3 10.15
      vertex 4.3 -9.3 10.825
      vertex 4.3 9.3 11.325
    endloop
  endfacet
  facet normal -1 0 0
    outer loop
      vertex 4.3 -9.3 10.15
      vertex 4.3 -9.3 10.825
      vertex 4.3 9.3 10.15
    endloop
  endfacet
  facet normal -1 0 0
    outer loop
      vertex 4.3 -9.3 -4.5
      vertex 4.3 -10.3 10.825
      vertex 4.3 -9.3 10.15
    endloop
  endfacet
  facet normal -1 0 0
    outer loop
      vertex 4.3 -9.3 10.15
      vertex 4.3 -10.3 10.825
      vertex 4.3 -9.3 10.825
    endloop
  endfacet
  facet normal -1 -0 0
    outer loop
      vertex 4.3 9.3 11.325
      vertex 4.3 -9.3 10.825
      vertex 4.3 -9.3 11.325
    endloop
  endfacet
  facet normal -1 0 0
    outer loop
      vertex 4.3 -4.99999 -6.325
      vertex 4.3 -4.7 -4.5
      vertex 4.3 -4.7 -6.325
    endloop
  endfacet
  facet normal -1 -0 0
    outer loop
      vertex 4.3 -4.7 -4.5
      vertex 4.3 -4.99999 -6.325
      vertex 4.3 -4.99999 -4.5
    endloop
  endfacet
  facet normal 0 -1 0
    outer loop
      vertex -4.3 9.3 11.325
      vertex -2 9.3 11.3
      vertex 4.3 9.3 11.325
    endloop
  endfacet
  facet normal 0 -1 0
    outer loop
      vertex -4.3 9.3 10.15
      vertex -2 9.3 11.3
      vertex -4.3 9.3 11.325
    endloop
  endfacet
  facet normal 0 -1 -0
    outer loop
      vertex -2 9.3 11.3
      vertex -4.3 9.3 10.15
      vertex -2 9.3 10.15
    endloop
  endfacet
  facet normal 0 -1 0
    outer loop
      vertex 2 9.3 11.3
      vertex 4.3 9.3 11.325
      vertex -2 9.3 11.3
    endloop
  endfacet
  facet normal 0 -1 0
    outer loop
      vertex 4.3 9.3 10.15
      vertex 2 9.3 11.3
      vertex 2 9.3 10.15
    endloop
  endfacet
  facet normal 0 -1 0
    outer loop
      vertex 2 9.3 11.3
      vertex 4.3 9.3 10.15
      vertex 4.3 9.3 11.325
    endloop
  endfacet
  facet normal 0 1 -0
    outer loop
      vertex 4.3 -9.3 10.825
      vertex -4.3 -9.3 11.325
      vertex 4.3 -9.3 11.325
    endloop
  endfacet
  facet normal 0 1 0
    outer loop
      vertex -4.3 -9.3 11.325
      vertex 4.3 -9.3 10.825
      vertex -4.3 -9.3 10.825
    endloop
  endfacet
  facet normal 0 0 -1
    outer loop
      vertex -4.3 -10.3 10.825
      vertex 4.3 -9.3 10.825
      vertex 4.3 -10.3 10.825
    endloop
  endfacet
  facet normal -0 0 -1
    outer loop
      vertex 4.3 -9.3 10.825
      vertex -4.3 -10.3 10.825
      vertex -4.3 -9.3 10.825
    endloop
  endfacet
  facet normal 0 -1 0
    outer loop
      vertex -4.3 -4.7 -6.325
      vertex -4.2605 -4.7 -4.5
      vertex -4.3 -4.7 -4.5
    endloop
  endfacet
  facet normal 0 -1 -0
    outer loop
      vertex -4.2605 -4.7 -4.5
      vertex -4.3 -4.7 -6.325
      vertex -4.2605 -4.7 -6.325
    endloop
  endfacet
  facet normal 0 -1 0
    outer loop
      vertex 4.2605 -4.7 -6.325
      vertex 4.3 -4.7 -4.5
      vertex 4.2605 -4.7 -4.5
    endloop
  endfacet
  facet normal 0 -1 -0
    outer loop
      vertex 4.3 -4.7 -4.5
      vertex 4.2605 -4.7 -6.325
      vertex 4.3 -4.7 -6.325
    endloop
  endfacet
  facet normal 1 0 0
    outer loop
      vertex -2 9.3 10.15
      vertex -2 10.3 11.3
      vertex -2 9.3 11.3
    endloop
  endfacet
  facet normal 1 0 0
    outer loop
      vertex -2 10.3 11.3
      vertex -2 9.3 10.15
      vertex -2 10.3 2.3
    endloop
  endfacet
  facet normal 1 0 0
    outer loop
      vertex -2 10.3 2.3
      vertex -2 9.3 10.15
      vertex -2 9.3 2.3
    endloop
  endfacet
  facet normal 0 0 -1
    outer loop
      vertex -2 9.3 11.3
      vertex 2 10.3 11.3
      vertex 2 9.3 11.3
    endloop
  endfacet
  facet normal -0 0 -1
    outer loop
      vertex 2 10.3 11.3
      vertex -2 9.3 11.3
      vertex -2 10.3 11.3
    endloop
  endfacet
  facet normal -1 0 0
    outer loop
      vertex 2 9.3 10.15
      vertex 2 10.3 2.3
      vertex 2 9.3 2.3
    endloop
  endfacet
  facet normal -1 0 0
    outer loop
      vertex 2 10.3 2.3
      vertex 2 9.3 10.15
      vertex 2 10.3 11.3
    endloop
  endfacet
  facet normal -1 -0 0
    outer loop
      vertex 2 10.3 11.3
      vertex 2 9.3 10.15
      vertex 2 9.3 11.3
    endloop
  endfacet
  facet normal -0 0 1
    outer loop
      vertex -2 10.3 2.3
      vertex 2 9.3 2.3
      vertex 2 10.3 2.3
    endloop
  endfacet
  facet normal 0 0 1
    outer loop
      vertex 2 9.3 2.3
      vertex -2 10.3 2.3
      vertex -2 9.3 2.3
    endloop
  endfacet
endsolid OpenSCAD_Model
