solid OpenSCAD_Model
  facet normal -1 0 0
    outer loop
      vertex -2 0 0
      vertex -2 10 3
      vertex -2 10 0
    endloop
  endfacet
  facet normal -1 -0 0
    outer loop
      vertex -2 10 3
      vertex -2 0 0
      vertex -2 0 3
    endloop
  endfacet
  facet normal 0 0 1
    outer loop
      vertex 4 10 3
      vertex 0.923879 7.61732 3
      vertex 5.5 0 3
    endloop
  endfacet
  facet normal 0 0 1
    outer loop
      vertex 5.5 0 3
      vertex 0.980784 2.19509 3
      vertex 1 2 3
    endloop
  endfacet
  facet normal -0 0 1
    outer loop
      vertex 0.83147 7.44443 3
      vertex 5.5 0 3
      vertex 0.923879 7.61732 3
    endloop
  endfacet
  facet normal 0 0 1
    outer loop
      vertex 5.5 0 3
      vertex 0.923879 2.38268 3
      vertex 0.980784 2.19509 3
    endloop
  endfacet
  facet normal -0 0 1
    outer loop
      vertex 0.83147 2.55557 3
      vertex 5.5 0 3
      vertex 0.83147 7.44443 3
    endloop
  endfacet
  facet normal 0 0 1
    outer loop
      vertex 5.5 0 3
      vertex 0.83147 2.55557 3
      vertex 0.923879 2.38268 3
    endloop
  endfacet
  facet normal -0 0 1
    outer loop
      vertex 0.707107 7.29289 3
      vertex 0.83147 2.55557 3
      vertex 0.83147 7.44443 3
    endloop
  endfacet
  facet normal 0 0 1
    outer loop
      vertex 0.707107 7.29289 3
      vertex 0.707107 2.70711 3
      vertex 0.83147 2.55557 3
    endloop
  endfacet
  facet normal -0 0 1
    outer loop
      vertex 0.55557 7.16853 3
      vertex 0.707107 2.70711 3
      vertex 0.707107 7.29289 3
    endloop
  endfacet
  facet normal 0 0 1
    outer loop
      vertex 0.55557 7.16853 3
      vertex 0.55557 2.83147 3
      vertex 0.707107 2.70711 3
    endloop
  endfacet
  facet normal -0 0 1
    outer loop
      vertex 0.382683 7.07612 3
      vertex 0.55557 2.83147 3
      vertex 0.55557 7.16853 3
    endloop
  endfacet
  facet normal 0 0 1
    outer loop
      vertex 0.382683 7.07612 3
      vertex 0.382683 2.92388 3
      vertex 0.55557 2.83147 3
    endloop
  endfacet
  facet normal -0 0 1
    outer loop
      vertex 0.19509 7.01921 3
      vertex 0.382683 2.92388 3
      vertex 0.382683 7.07612 3
    endloop
  endfacet
  facet normal 0 0 1
    outer loop
      vertex 0.19509 7.01921 3
      vertex 0.19509 2.98078 3
      vertex 0.382683 2.92388 3
    endloop
  endfacet
  facet normal -0 0 1
    outer loop
      vertex 0 7 3
      vertex 0.19509 2.98078 3
      vertex 0.19509 7.01921 3
    endloop
  endfacet
  facet normal 0 0 1
    outer loop
      vertex 0 7 3
      vertex 0 3 3
      vertex 0.19509 2.98078 3
    endloop
  endfacet
  facet normal 0 0 1
    outer loop
      vertex -0.19509 7.01921 3
      vertex 0 3 3
      vertex 0 7 3
    endloop
  endfacet
  facet normal 0 0 1
    outer loop
      vertex -0.19509 7.01921 3
      vertex -0.19509 2.98078 3
      vertex 0 3 3
    endloop
  endfacet
  facet normal 0 0 1
    outer loop
      vertex -0.382683 7.07612 3
      vertex -0.19509 2.98078 3
      vertex -0.19509 7.01921 3
    endloop
  endfacet
  facet normal 0 0 1
    outer loop
      vertex -0.382683 7.07612 3
      vertex -0.382683 2.92388 3
      vertex -0.19509 2.98078 3
    endloop
  endfacet
  facet normal 0 0 1
    outer loop
      vertex -0.55557 7.16853 3
      vertex -0.382683 2.92388 3
      vertex -0.382683 7.07612 3
    endloop
  endfacet
  facet normal 0 0 1
    outer loop
      vertex -0.55557 7.16853 3
      vertex -0.55557 2.83147 3
      vertex -0.382683 2.92388 3
    endloop
  endfacet
  facet normal 0 0 1
    outer loop
      vertex -0.707107 7.29289 3
      vertex -0.55557 2.83147 3
      vertex -0.55557 7.16853 3
    endloop
  endfacet
  facet normal 0 0 1
    outer loop
      vertex -0.707107 7.29289 3
      vertex -0.707107 2.70711 3
      vertex -0.55557 2.83147 3
    endloop
  endfacet
  facet normal 0 0 1
    outer loop
      vertex -0.83147 7.44443 3
      vertex -0.707107 2.70711 3
      vertex -0.707107 7.29289 3
    endloop
  endfacet
  facet normal 0 0 1
    outer loop
      vertex -0.83147 7.44443 3
      vertex -0.83147 2.55557 3
      vertex -0.707107 2.70711 3
    endloop
  endfacet
  facet normal 0 0 1
    outer loop
      vertex -0.923879 7.61732 3
      vertex -0.83147 2.55557 3
      vertex -0.83147 7.44443 3
    endloop
  endfacet
  facet normal 0 0 1
    outer loop
      vertex -0.923879 7.61732 3
      vertex -0.923879 2.38268 3
      vertex -0.83147 2.55557 3
    endloop
  endfacet
  facet normal 0 0 1
    outer loop
      vertex -0.980784 7.80491 3
      vertex -0.923879 2.38268 3
      vertex -0.923879 7.61732 3
    endloop
  endfacet
  facet normal 0 0 1
    outer loop
      vertex -0.980784 7.80491 3
      vertex -0.980784 2.19509 3
      vertex -0.923879 2.38268 3
    endloop
  endfacet
  facet normal 0 0 1
    outer loop
      vertex -2 10 3
      vertex -0.980784 7.80491 3
      vertex -1 8 3
    endloop
  endfacet
  facet normal 0 0 1
    outer loop
      vertex -0.980784 7.80491 3
      vertex -2 10 3
      vertex -0.980784 2.19509 3
    endloop
  endfacet
  facet normal 0 0 1
    outer loop
      vertex 4 10 3
      vertex 0.980784 8.19509 3
      vertex 1 8 3
    endloop
  endfacet
  facet normal 0 0 1
    outer loop
      vertex 4 10 3
      vertex 0.923879 8.38268 3
      vertex 0.980784 8.19509 3
    endloop
  endfacet
  facet normal 0 0 1
    outer loop
      vertex 4 10 3
      vertex 0.83147 8.55557 3
      vertex 0.923879 8.38268 3
    endloop
  endfacet
  facet normal 0 0 1
    outer loop
      vertex 4 10 3
      vertex 0.707107 8.70711 3
      vertex 0.83147 8.55557 3
    endloop
  endfacet
  facet normal 0 0 1
    outer loop
      vertex 4 10 3
      vertex 0.55557 8.83147 3
      vertex 0.707107 8.70711 3
    endloop
  endfacet
  facet normal 0 0 1
    outer loop
      vertex 4 10 3
      vertex 0.382683 8.92388 3
      vertex 0.55557 8.83147 3
    endloop
  endfacet
  facet normal 0 0 1
    outer loop
      vertex 4 10 3
      vertex 0.19509 8.98078 3
      vertex 0.382683 8.92388 3
    endloop
  endfacet
  facet normal -0 0 1
    outer loop
      vertex -2 10 3
      vertex 0.19509 8.98078 3
      vertex 4 10 3
    endloop
  endfacet
  facet normal 0 0 1
    outer loop
      vertex 0.19509 8.98078 3
      vertex -2 10 3
      vertex 0 9 3
    endloop
  endfacet
  facet normal 0 0 1
    outer loop
      vertex -2 0 3
      vertex -0.980784 2.19509 3
      vertex -2 10 3
    endloop
  endfacet
  facet normal 0 0 1
    outer loop
      vertex -0.980784 8.19509 3
      vertex -2 10 3
      vertex -1 8 3
    endloop
  endfacet
  facet normal 0 0 1
    outer loop
      vertex -0.923879 8.38268 3
      vertex -2 10 3
      vertex -0.980784 8.19509 3
    endloop
  endfacet
  facet normal 0 0 1
    outer loop
      vertex -0.83147 8.55557 3
      vertex -2 10 3
      vertex -0.923879 8.38268 3
    endloop
  endfacet
  facet normal 0 0 1
    outer loop
      vertex -0.707107 8.70711 3
      vertex -2 10 3
      vertex -0.83147 8.55557 3
    endloop
  endfacet
  facet normal 0 0 1
    outer loop
      vertex -0.55557 8.83147 3
      vertex -2 10 3
      vertex -0.707107 8.70711 3
    endloop
  endfacet
  facet normal 0 0 1
    outer loop
      vertex -0.382683 8.92388 3
      vertex -2 10 3
      vertex -0.55557 8.83147 3
    endloop
  endfacet
  facet normal 0 0 1
    outer loop
      vertex -0.19509 8.98078 3
      vertex -2 10 3
      vertex -0.382683 8.92388 3
    endloop
  endfacet
  facet normal 0 0 1
    outer loop
      vertex 0 9 3
      vertex -2 10 3
      vertex -0.19509 8.98078 3
    endloop
  endfacet
  facet normal 0 0 1
    outer loop
      vertex 18.35 13.3775 3
      vertex 17.3775 14.35 3
      vertex 18.35 12 3
    endloop
  endfacet
  facet normal 0 0 1
    outer loop
      vertex 20.9755 20.9039 3
      vertex 21.65 20 3
      vertex 21.9134 20.6194 3
    endloop
  endfacet
  facet normal 0 0 1
    outer loop
      vertex 20 21 3
      vertex 21.65 20 3
      vertex 20.9755 20.9039 3
    endloop
  endfacet
  facet normal 0 0 1
    outer loop
      vertex 18.35 20 3
      vertex 20 21 3
      vertex 19.0245 20.9039 3
    endloop
  endfacet
  facet normal 0 0 1
    outer loop
      vertex 20 21 3
      vertex 18.35 20 3
      vertex 21.65 20 3
    endloop
  endfacet
  facet normal -0 0 1
    outer loop
      vertex 18.0866 20.6194 3
      vertex 18.35 20 3
      vertex 19.0245 20.9039 3
    endloop
  endfacet
  facet normal -0 0 1
    outer loop
      vertex 17.2221 20.1573 3
      vertex 18.35 20 3
      vertex 18.0866 20.6194 3
    endloop
  endfacet
  facet normal 0 0 1
    outer loop
      vertex 18.35 20 3
      vertex 17.2221 20.1573 3
      vertex 18.35 18.6225 3
    endloop
  endfacet
  facet normal 0 0 1
    outer loop
      vertex 18.35 18.6225 3
      vertex 17.2221 20.1573 3
      vertex 17.3775 17.65 3
    endloop
  endfacet
  facet normal 0 0 1
    outer loop
      vertex 17.2221 20.1573 3
      vertex 16 17.65 3
      vertex 17.3775 17.65 3
    endloop
  endfacet
  facet normal 0 0 1
    outer loop
      vertex 4 10 3
      vertex 16 14.35 3
      vertex 16 17.65 3
    endloop
  endfacet
  facet normal 0 0 1
    outer loop
      vertex 4 10 3
      vertex 16 17.65 3
      vertex 17.2221 20.1573 3
    endloop
  endfacet
  facet normal 0 0 1
    outer loop
      vertex 16 14.35 3
      vertex 4 10 3
      vertex 5.5 0 3
    endloop
  endfacet
  facet normal 0 0 1
    outer loop
      vertex 0.980784 7.80491 3
      vertex 4 10 3
      vertex 1 8 3
    endloop
  endfacet
  facet normal 0 0 1
    outer loop
      vertex 0.923879 7.61732 3
      vertex 4 10 3
      vertex 0.980784 7.80491 3
    endloop
  endfacet
  facet normal -0 0 1
    outer loop
      vertex 0.980784 1.80491 3
      vertex 5.5 0 3
      vertex 1 2 3
    endloop
  endfacet
  facet normal -0 0 1
    outer loop
      vertex 0.923879 1.61732 3
      vertex 5.5 0 3
      vertex 0.980784 1.80491 3
    endloop
  endfacet
  facet normal -0 0 1
    outer loop
      vertex 0.83147 1.44443 3
      vertex 5.5 0 3
      vertex 0.923879 1.61732 3
    endloop
  endfacet
  facet normal -0 0 1
    outer loop
      vertex 0.707107 1.29289 3
      vertex 5.5 0 3
      vertex 0.83147 1.44443 3
    endloop
  endfacet
  facet normal -0 0 1
    outer loop
      vertex 0.55557 1.16853 3
      vertex 5.5 0 3
      vertex 0.707107 1.29289 3
    endloop
  endfacet
  facet normal -0 0 1
    outer loop
      vertex 0.382683 1.07612 3
      vertex 5.5 0 3
      vertex 0.55557 1.16853 3
    endloop
  endfacet
  facet normal -0 0 1
    outer loop
      vertex 0.19509 1.01921 3
      vertex 5.5 0 3
      vertex 0.382683 1.07612 3
    endloop
  endfacet
  facet normal 0 0 1
    outer loop
      vertex -2 0 3
      vertex 0.19509 1.01921 3
      vertex 0 1 3
    endloop
  endfacet
  facet normal 0 0 1
    outer loop
      vertex -2 0 3
      vertex 0 1 3
      vertex -0.19509 1.01921 3
    endloop
  endfacet
  facet normal 0 0 1
    outer loop
      vertex -0.980784 2.19509 3
      vertex -2 0 3
      vertex -1 2 3
    endloop
  endfacet
  facet normal 0 0 1
    outer loop
      vertex 0.19509 1.01921 3
      vertex -2 0 3
      vertex 5.5 0 3
    endloop
  endfacet
  facet normal 0 0 1
    outer loop
      vertex -0.382683 1.07612 3
      vertex -2 0 3
      vertex -0.19509 1.01921 3
    endloop
  endfacet
  facet normal 0 0 1
    outer loop
      vertex -0.55557 1.16853 3
      vertex -2 0 3
      vertex -0.382683 1.07612 3
    endloop
  endfacet
  facet normal 0 0 1
    outer loop
      vertex -0.707107 1.29289 3
      vertex -2 0 3
      vertex -0.55557 1.16853 3
    endloop
  endfacet
  facet normal 0 0 1
    outer loop
      vertex -0.83147 1.44443 3
      vertex -2 0 3
      vertex -0.707107 1.29289 3
    endloop
  endfacet
  facet normal 0 0 1
    outer loop
      vertex -0.923879 1.61732 3
      vertex -2 0 3
      vertex -0.83147 1.44443 3
    endloop
  endfacet
  facet normal 0 0 1
    outer loop
      vertex -0.980784 1.80491 3
      vertex -2 0 3
      vertex -0.923879 1.61732 3
    endloop
  endfacet
  facet normal 0 0 1
    outer loop
      vertex -1 2 3
      vertex -2 0 3
      vertex -0.980784 1.80491 3
    endloop
  endfacet
  facet normal 0 0 1
    outer loop
      vertex 24 17.65 3
      vertex 25 16 3
      vertex 24.9039 16.9755 3
    endloop
  endfacet
  facet normal -0 0 1
    outer loop
      vertex 24 17.65 3
      vertex 24.9039 16.9755 3
      vertex 24.6194 17.9134 3
    endloop
  endfacet
  facet normal 0 0 1
    outer loop
      vertex 24 14.35 3
      vertex 25 16 3
      vertex 24 17.65 3
    endloop
  endfacet
  facet normal 0 0 1
    outer loop
      vertex 24 17.65 3
      vertex 24.6194 17.9134 3
      vertex 24.1573 18.7779 3
    endloop
  endfacet
  facet normal 0 0 1
    outer loop
      vertex 25 16 3
      vertex 24 14.35 3
      vertex 24.9039 15.0245 3
    endloop
  endfacet
  facet normal 0 0 1
    outer loop
      vertex 24.9039 15.0245 3
      vertex 24 14.35 3
      vertex 24.6194 14.0866 3
    endloop
  endfacet
  facet normal 0 0 1
    outer loop
      vertex 22.6225 17.65 3
      vertex 24.1573 18.7779 3
      vertex 23.5355 19.5355 3
    endloop
  endfacet
  facet normal 0 0 1
    outer loop
      vertex 21.65 18.6225 3
      vertex 23.5355 19.5355 3
      vertex 22.7779 20.1573 3
    endloop
  endfacet
  facet normal 0 0 1
    outer loop
      vertex 24.1573 18.7779 3
      vertex 22.6225 17.65 3
      vertex 24 17.65 3
    endloop
  endfacet
  facet normal 0 0 1
    outer loop
      vertex 21.65 20 3
      vertex 22.7779 20.1573 3
      vertex 21.9134 20.6194 3
    endloop
  endfacet
  facet normal 0 0 1
    outer loop
      vertex 21.65 18.6225 3
      vertex 22.7779 20.1573 3
      vertex 21.65 20 3
    endloop
  endfacet
  facet normal 0 0 1
    outer loop
      vertex 23.5355 19.5355 3
      vertex 21.65 18.6225 3
      vertex 22.6225 17.65 3
    endloop
  endfacet
  facet normal 0 0 1
    outer loop
      vertex 24.6194 14.0866 3
      vertex 24 14.35 3
      vertex 24.1573 13.2221 3
    endloop
  endfacet
  facet normal -0 0 1
    outer loop
      vertex 22.6225 14.35 3
      vertex 24.1573 13.2221 3
      vertex 24 14.35 3
    endloop
  endfacet
  facet normal 0 0 1
    outer loop
      vertex 24.1573 13.2221 3
      vertex 22.6225 14.35 3
      vertex 23.5355 12.4645 3
    endloop
  endfacet
  facet normal -0 0 1
    outer loop
      vertex 21.65 13.3775 3
      vertex 23.5355 12.4645 3
      vertex 22.6225 14.35 3
    endloop
  endfacet
  facet normal 0 0 1
    outer loop
      vertex 23.5355 12.4645 3
      vertex 21.65 13.3775 3
      vertex 22.7779 11.8427 3
    endloop
  endfacet
  facet normal -0 0 1
    outer loop
      vertex 21.65 12 3
      vertex 22.7779 11.8427 3
      vertex 21.65 13.3775 3
    endloop
  endfacet
  facet normal 0 0 1
    outer loop
      vertex 5.5 0 3
      vertex 21.65 12 3
      vertex 18.35 12 3
    endloop
  endfacet
  facet normal -0 0 1
    outer loop
      vertex 16 14.35 3
      vertex 18.35 12 3
      vertex 17.3775 14.35 3
    endloop
  endfacet
  facet normal 0 0 1
    outer loop
      vertex 21.65 12 3
      vertex 5.5 0 3
      vertex 22.7779 11.8427 3
    endloop
  endfacet
  facet normal 0 0 1
    outer loop
      vertex 5.5 0 3
      vertex 18.35 12 3
      vertex 16 14.35 3
    endloop
  endfacet
  facet normal 0 1 -0
    outer loop
      vertex 4 10 0
      vertex -2 10 3
      vertex 4 10 3
    endloop
  endfacet
  facet normal 0 1 0
    outer loop
      vertex -2 10 3
      vertex 4 10 0
      vertex -2 10 0
    endloop
  endfacet
  facet normal 0 0 -1
    outer loop
      vertex 0.923879 2.38268 0
      vertex 5.5 0 0
      vertex 0.980784 2.19509 0
    endloop
  endfacet
  facet normal 0 0 -1
    outer loop
      vertex 5.5 0 0
      vertex 0.980784 7.80491 0
      vertex 1 8 0
    endloop
  endfacet
  facet normal 0 0 -1
    outer loop
      vertex 0.83147 2.55557 0
      vertex 5.5 0 0
      vertex 0.923879 2.38268 0
    endloop
  endfacet
  facet normal 0 0 -1
    outer loop
      vertex 5.5 0 0
      vertex 0.923879 7.61732 0
      vertex 0.980784 7.80491 0
    endloop
  endfacet
  facet normal 0 0 -1
    outer loop
      vertex 0.83147 7.44443 0
      vertex 5.5 0 0
      vertex 0.83147 2.55557 0
    endloop
  endfacet
  facet normal 0 0 -1
    outer loop
      vertex 5.5 0 0
      vertex 0.83147 7.44443 0
      vertex 0.923879 7.61732 0
    endloop
  endfacet
  facet normal 0 0 -1
    outer loop
      vertex 0.707107 2.70711 0
      vertex 0.83147 7.44443 0
      vertex 0.83147 2.55557 0
    endloop
  endfacet
  facet normal 0 0 -1
    outer loop
      vertex 0.707107 2.70711 0
      vertex 0.707107 7.29289 0
      vertex 0.83147 7.44443 0
    endloop
  endfacet
  facet normal 0 0 -1
    outer loop
      vertex 0.55557 2.83147 0
      vertex 0.707107 7.29289 0
      vertex 0.707107 2.70711 0
    endloop
  endfacet
  facet normal 0 0 -1
    outer loop
      vertex 0.55557 2.83147 0
      vertex 0.55557 7.16853 0
      vertex 0.707107 7.29289 0
    endloop
  endfacet
  facet normal 0 0 -1
    outer loop
      vertex 0.382683 2.92388 0
      vertex 0.55557 7.16853 0
      vertex 0.55557 2.83147 0
    endloop
  endfacet
  facet normal 0 0 -1
    outer loop
      vertex 0.382683 2.92388 0
      vertex 0.382683 7.07612 0
      vertex 0.55557 7.16853 0
    endloop
  endfacet
  facet normal 0 0 -1
    outer loop
      vertex 0.19509 2.98078 0
      vertex 0.382683 7.07612 0
      vertex 0.382683 2.92388 0
    endloop
  endfacet
  facet normal 0 0 -1
    outer loop
      vertex 0.19509 2.98078 0
      vertex 0.19509 7.01921 0
      vertex 0.382683 7.07612 0
    endloop
  endfacet
  facet normal 0 0 -1
    outer loop
      vertex 0 3 0
      vertex 0.19509 7.01921 0
      vertex 0.19509 2.98078 0
    endloop
  endfacet
  facet normal 0 0 -1
    outer loop
      vertex 0 3 0
      vertex 0 7 0
      vertex 0.19509 7.01921 0
    endloop
  endfacet
  facet normal 0 0 -1
    outer loop
      vertex -0.19509 2.98078 0
      vertex 0 7 0
      vertex 0 3 0
    endloop
  endfacet
  facet normal 0 0 -1
    outer loop
      vertex -0.19509 2.98078 0
      vertex -0.19509 7.01921 0
      vertex 0 7 0
    endloop
  endfacet
  facet normal 0 0 -1
    outer loop
      vertex -0.382683 2.92388 0
      vertex -0.19509 7.01921 0
      vertex -0.19509 2.98078 0
    endloop
  endfacet
  facet normal 0 0 -1
    outer loop
      vertex -0.382683 2.92388 0
      vertex -0.382683 7.07612 0
      vertex -0.19509 7.01921 0
    endloop
  endfacet
  facet normal 0 0 -1
    outer loop
      vertex -0.55557 2.83147 0
      vertex -0.382683 7.07612 0
      vertex -0.382683 2.92388 0
    endloop
  endfacet
  facet normal 0 0 -1
    outer loop
      vertex -0.55557 2.83147 0
      vertex -0.55557 7.16853 0
      vertex -0.382683 7.07612 0
    endloop
  endfacet
  facet normal 0 0 -1
    outer loop
      vertex -0.707107 2.70711 0
      vertex -0.55557 7.16853 0
      vertex -0.55557 2.83147 0
    endloop
  endfacet
  facet normal 0 0 -1
    outer loop
      vertex -0.707107 2.70711 0
      vertex -0.707107 7.29289 0
      vertex -0.55557 7.16853 0
    endloop
  endfacet
  facet normal 0 0 -1
    outer loop
      vertex -0.83147 2.55557 0
      vertex -0.707107 7.29289 0
      vertex -0.707107 2.70711 0
    endloop
  endfacet
  facet normal 0 0 -1
    outer loop
      vertex -0.83147 2.55557 0
      vertex -0.83147 7.44443 0
      vertex -0.707107 7.29289 0
    endloop
  endfacet
  facet normal 0 0 -1
    outer loop
      vertex -0.923879 2.38268 0
      vertex -0.83147 7.44443 0
      vertex -0.83147 2.55557 0
    endloop
  endfacet
  facet normal 0 0 -1
    outer loop
      vertex -0.923879 2.38268 0
      vertex -0.923879 7.61732 0
      vertex -0.83147 7.44443 0
    endloop
  endfacet
  facet normal 0 0 -1
    outer loop
      vertex -0.980784 2.19509 0
      vertex -0.923879 7.61732 0
      vertex -0.923879 2.38268 0
    endloop
  endfacet
  facet normal 0 0 -1
    outer loop
      vertex -0.980784 2.19509 0
      vertex -0.980784 7.80491 0
      vertex -0.923879 7.61732 0
    endloop
  endfacet
  facet normal 0 0 -1
    outer loop
      vertex -2 0 0
      vertex -0.980784 2.19509 0
      vertex -1 2 0
    endloop
  endfacet
  facet normal -0 0 -1
    outer loop
      vertex -0.980784 2.19509 0
      vertex -2 0 0
      vertex -0.980784 7.80491 0
    endloop
  endfacet
  facet normal 0 0 -1
    outer loop
      vertex 5.5 0 0
      vertex 1 8 0
      vertex 4 10 0
    endloop
  endfacet
  facet normal 0 0 -1
    outer loop
      vertex 0.980784 8.19509 0
      vertex 4 10 0
      vertex 1 8 0
    endloop
  endfacet
  facet normal 0 0 -1
    outer loop
      vertex 0.923879 8.38268 0
      vertex 4 10 0
      vertex 0.980784 8.19509 0
    endloop
  endfacet
  facet normal 0 0 -1
    outer loop
      vertex 0.83147 8.55557 0
      vertex 4 10 0
      vertex 0.923879 8.38268 0
    endloop
  endfacet
  facet normal 0 0 -1
    outer loop
      vertex 0.707107 8.70711 0
      vertex 4 10 0
      vertex 0.83147 8.55557 0
    endloop
  endfacet
  facet normal 0 0 -1
    outer loop
      vertex 0.55557 8.83147 0
      vertex 4 10 0
      vertex 0.707107 8.70711 0
    endloop
  endfacet
  facet normal 0 0 -1
    outer loop
      vertex 0.382683 8.92388 0
      vertex 4 10 0
      vertex 0.55557 8.83147 0
    endloop
  endfacet
  facet normal 0 0 -1
    outer loop
      vertex 0.19509 8.98078 0
      vertex 4 10 0
      vertex 0.382683 8.92388 0
    endloop
  endfacet
  facet normal 0 0 -1
    outer loop
      vertex -2 10 0
      vertex 0.19509 8.98078 0
      vertex 0 9 0
    endloop
  endfacet
  facet normal 0 0 -1
    outer loop
      vertex -2 10 0
      vertex 0 9 0
      vertex -0.19509 8.98078 0
    endloop
  endfacet
  facet normal 0 0 -1
    outer loop
      vertex -0.980784 7.80491 0
      vertex -2 10 0
      vertex -1 8 0
    endloop
  endfacet
  facet normal 0 0 -1
    outer loop
      vertex 0.19509 8.98078 0
      vertex -2 10 0
      vertex 4 10 0
    endloop
  endfacet
  facet normal 0 0 -1
    outer loop
      vertex -0.382683 8.92388 0
      vertex -2 10 0
      vertex -0.19509 8.98078 0
    endloop
  endfacet
  facet normal 0 0 -1
    outer loop
      vertex -0.55557 8.83147 0
      vertex -2 10 0
      vertex -0.382683 8.92388 0
    endloop
  endfacet
  facet normal 0 0 -1
    outer loop
      vertex -0.707107 8.70711 0
      vertex -2 10 0
      vertex -0.55557 8.83147 0
    endloop
  endfacet
  facet normal 0 0 -1
    outer loop
      vertex -0.83147 8.55557 0
      vertex -2 10 0
      vertex -0.707107 8.70711 0
    endloop
  endfacet
  facet normal 0 0 -1
    outer loop
      vertex -0.923879 8.38268 0
      vertex -2 10 0
      vertex -0.83147 8.55557 0
    endloop
  endfacet
  facet normal 0 0 -1
    outer loop
      vertex -0.980784 8.19509 0
      vertex -2 10 0
      vertex -0.923879 8.38268 0
    endloop
  endfacet
  facet normal 0 0 -1
    outer loop
      vertex -1 8 0
      vertex -2 10 0
      vertex -0.980784 8.19509 0
    endloop
  endfacet
  facet normal 0 0 -1
    outer loop
      vertex 22.92 16 0
      vertex 25 16 0
      vertex 24.9039 15.0245 0
    endloop
  endfacet
  facet normal 0 0 -1
    outer loop
      vertex 22.8639 15.4303 0
      vertex 24.9039 15.0245 0
      vertex 24.6194 14.0866 0
    endloop
  endfacet
  facet normal 0 0 -1
    outer loop
      vertex 25 16 0
      vertex 22.92 16 0
      vertex 24.9039 16.9755 0
    endloop
  endfacet
  facet normal 0 0 -1
    outer loop
      vertex 22.6977 14.8826 0
      vertex 24.6194 14.0866 0
      vertex 24.1573 13.2221 0
    endloop
  endfacet
  facet normal 0 0 -1
    outer loop
      vertex 22.8639 16.5697 0
      vertex 24.9039 16.9755 0
      vertex 22.92 16 0
    endloop
  endfacet
  facet normal 0 0 -1
    outer loop
      vertex 22.4279 14.3777 0
      vertex 24.1573 13.2221 0
      vertex 23.5355 12.4645 0
    endloop
  endfacet
  facet normal -0 0 -1
    outer loop
      vertex 24.9039 16.9755 0
      vertex 22.8639 16.5697 0
      vertex 24.6194 17.9134 0
    endloop
  endfacet
  facet normal 0 0 -1
    outer loop
      vertex 22.6977 17.1174 0
      vertex 24.6194 17.9134 0
      vertex 22.8639 16.5697 0
    endloop
  endfacet
  facet normal 0 0 -1
    outer loop
      vertex 24.9039 15.0245 0
      vertex 22.8639 15.4303 0
      vertex 22.92 16 0
    endloop
  endfacet
  facet normal 0 0 -1
    outer loop
      vertex 22.0648 13.9352 0
      vertex 23.5355 12.4645 0
      vertex 22.7779 11.8427 0
    endloop
  endfacet
  facet normal 0 0 -1
    outer loop
      vertex 24.6194 14.0866 0
      vertex 22.6977 14.8826 0
      vertex 22.8639 15.4303 0
    endloop
  endfacet
  facet normal 0 0 -1
    outer loop
      vertex 24.1573 13.2221 0
      vertex 22.4279 14.3777 0
      vertex 22.6977 14.8826 0
    endloop
  endfacet
  facet normal 0 0 -1
    outer loop
      vertex 23.5355 12.4645 0
      vertex 22.0648 13.9352 0
      vertex 22.4279 14.3777 0
    endloop
  endfacet
  facet normal 0 0 -1
    outer loop
      vertex 22.7779 11.8427 0
      vertex 21.6223 13.5721 0
      vertex 22.0648 13.9352 0
    endloop
  endfacet
  facet normal 0 0 -1
    outer loop
      vertex 22.7779 11.8427 0
      vertex 21.1174 13.3023 0
      vertex 21.6223 13.5721 0
    endloop
  endfacet
  facet normal 0 0 -1
    outer loop
      vertex 22.7779 11.8427 0
      vertex 20.5697 13.1361 0
      vertex 21.1174 13.3023 0
    endloop
  endfacet
  facet normal 0 0 -1
    outer loop
      vertex 22.7779 11.8427 0
      vertex 20 13.08 0
      vertex 20.5697 13.1361 0
    endloop
  endfacet
  facet normal 0 0 -1
    outer loop
      vertex 22.7779 11.8427 0
      vertex 19.4303 13.1361 0
      vertex 20 13.08 0
    endloop
  endfacet
  facet normal 0 0 -1
    outer loop
      vertex 5.5 0 0
      vertex 19.4303 13.1361 0
      vertex 22.7779 11.8427 0
    endloop
  endfacet
  facet normal -0 0 -1
    outer loop
      vertex 17.3023 14.8826 0
      vertex 4 10 0
      vertex 17.1361 15.4303 0
    endloop
  endfacet
  facet normal -0 0 -1
    outer loop
      vertex 17.5721 14.3777 0
      vertex 4 10 0
      vertex 17.3023 14.8826 0
    endloop
  endfacet
  facet normal -0 0 -1
    outer loop
      vertex 17.9352 13.9352 0
      vertex 4 10 0
      vertex 17.5721 14.3777 0
    endloop
  endfacet
  facet normal -0 0 -1
    outer loop
      vertex 18.3777 13.5721 0
      vertex 4 10 0
      vertex 17.9352 13.9352 0
    endloop
  endfacet
  facet normal 0 0 -1
    outer loop
      vertex 4 10 0
      vertex 18.3777 13.5721 0
      vertex 5.5 0 0
    endloop
  endfacet
  facet normal -0 0 -1
    outer loop
      vertex 18.8826 13.3023 0
      vertex 5.5 0 0
      vertex 18.3777 13.5721 0
    endloop
  endfacet
  facet normal -0 0 -1
    outer loop
      vertex 19.4303 13.1361 0
      vertex 5.5 0 0
      vertex 18.8826 13.3023 0
    endloop
  endfacet
  facet normal -0 0 -1
    outer loop
      vertex 24.6194 17.9134 0
      vertex 22.6977 17.1174 0
      vertex 24.1573 18.7779 0
    endloop
  endfacet
  facet normal 0 0 -1
    outer loop
      vertex 22.4279 17.6223 0
      vertex 24.1573 18.7779 0
      vertex 22.6977 17.1174 0
    endloop
  endfacet
  facet normal -0 0 -1
    outer loop
      vertex 24.1573 18.7779 0
      vertex 22.4279 17.6223 0
      vertex 23.5355 19.5355 0
    endloop
  endfacet
  facet normal 0 0 -1
    outer loop
      vertex 22.0648 18.0648 0
      vertex 23.5355 19.5355 0
      vertex 22.4279 17.6223 0
    endloop
  endfacet
  facet normal -0 0 -1
    outer loop
      vertex 23.5355 19.5355 0
      vertex 22.0648 18.0648 0
      vertex 22.7779 20.1573 0
    endloop
  endfacet
  facet normal 0 0 -1
    outer loop
      vertex 21.6223 18.4279 0
      vertex 22.7779 20.1573 0
      vertex 22.0648 18.0648 0
    endloop
  endfacet
  facet normal -0 0 -1
    outer loop
      vertex 22.7779 20.1573 0
      vertex 21.6223 18.4279 0
      vertex 21.9134 20.6194 0
    endloop
  endfacet
  facet normal 0 0 -1
    outer loop
      vertex 21.1174 18.6977 0
      vertex 21.9134 20.6194 0
      vertex 21.6223 18.4279 0
    endloop
  endfacet
  facet normal 0 0 -1
    outer loop
      vertex 21.1174 18.6977 0
      vertex 20.9755 20.9039 0
      vertex 21.9134 20.6194 0
    endloop
  endfacet
  facet normal 0 0 -1
    outer loop
      vertex 20.5697 18.8639 0
      vertex 20.9755 20.9039 0
      vertex 21.1174 18.6977 0
    endloop
  endfacet
  facet normal 0 0 -1
    outer loop
      vertex 20 18.92 0
      vertex 20.9755 20.9039 0
      vertex 20.5697 18.8639 0
    endloop
  endfacet
  facet normal 0 0 -1
    outer loop
      vertex 20 18.92 0
      vertex 20 21 0
      vertex 20.9755 20.9039 0
    endloop
  endfacet
  facet normal 0 0 -1
    outer loop
      vertex 19.4303 18.8639 0
      vertex 20 21 0
      vertex 20 18.92 0
    endloop
  endfacet
  facet normal 0 0 -1
    outer loop
      vertex 19.4303 18.8639 0
      vertex 19.0245 20.9039 0
      vertex 20 21 0
    endloop
  endfacet
  facet normal 0 0 -1
    outer loop
      vertex 18.8826 18.6977 0
      vertex 19.0245 20.9039 0
      vertex 19.4303 18.8639 0
    endloop
  endfacet
  facet normal 0 0 -1
    outer loop
      vertex 18.0866 20.6194 0
      vertex 18.8826 18.6977 0
      vertex 18.3777 18.4279 0
    endloop
  endfacet
  facet normal 0 0 -1
    outer loop
      vertex 18.8826 18.6977 0
      vertex 18.0866 20.6194 0
      vertex 19.0245 20.9039 0
    endloop
  endfacet
  facet normal 0 0 -1
    outer loop
      vertex 17.2221 20.1573 0
      vertex 18.3777 18.4279 0
      vertex 17.9352 18.0648 0
    endloop
  endfacet
  facet normal 0 0 -1
    outer loop
      vertex 17.2221 20.1573 0
      vertex 17.9352 18.0648 0
      vertex 17.5721 17.6223 0
    endloop
  endfacet
  facet normal 0 0 -1
    outer loop
      vertex 17.2221 20.1573 0
      vertex 17.5721 17.6223 0
      vertex 17.3023 17.1174 0
    endloop
  endfacet
  facet normal 0 0 -1
    outer loop
      vertex 18.3777 18.4279 0
      vertex 17.2221 20.1573 0
      vertex 18.0866 20.6194 0
    endloop
  endfacet
  facet normal 0 0 -1
    outer loop
      vertex 17.1361 16.5697 0
      vertex 17.2221 20.1573 0
      vertex 17.3023 17.1174 0
    endloop
  endfacet
  facet normal 0 0 -1
    outer loop
      vertex 4 10 0
      vertex 17.1361 16.5697 0
      vertex 17.08 16 0
    endloop
  endfacet
  facet normal -0 0 -1
    outer loop
      vertex 17.1361 15.4303 0
      vertex 4 10 0
      vertex 17.08 16 0
    endloop
  endfacet
  facet normal -0 0 -1
    outer loop
      vertex 17.1361 16.5697 0
      vertex 4 10 0
      vertex 17.2221 20.1573 0
    endloop
  endfacet
  facet normal 0 0 -1
    outer loop
      vertex 0.980784 2.19509 0
      vertex 5.5 0 0
      vertex 1 2 0
    endloop
  endfacet
  facet normal 0 0 -1
    outer loop
      vertex 5.5 0 0
      vertex 0.980784 1.80491 0
      vertex 1 2 0
    endloop
  endfacet
  facet normal 0 0 -1
    outer loop
      vertex 5.5 0 0
      vertex 0.923879 1.61732 0
      vertex 0.980784 1.80491 0
    endloop
  endfacet
  facet normal 0 0 -1
    outer loop
      vertex 5.5 0 0
      vertex 0.83147 1.44443 0
      vertex 0.923879 1.61732 0
    endloop
  endfacet
  facet normal 0 0 -1
    outer loop
      vertex 5.5 0 0
      vertex 0.707107 1.29289 0
      vertex 0.83147 1.44443 0
    endloop
  endfacet
  facet normal 0 0 -1
    outer loop
      vertex 5.5 0 0
      vertex 0.55557 1.16853 0
      vertex 0.707107 1.29289 0
    endloop
  endfacet
  facet normal 0 0 -1
    outer loop
      vertex 5.5 0 0
      vertex 0.382683 1.07612 0
      vertex 0.55557 1.16853 0
    endloop
  endfacet
  facet normal 0 0 -1
    outer loop
      vertex 5.5 0 0
      vertex 0.19509 1.01921 0
      vertex 0.382683 1.07612 0
    endloop
  endfacet
  facet normal 0 0 -1
    outer loop
      vertex -2 0 0
      vertex 0.19509 1.01921 0
      vertex 5.5 0 0
    endloop
  endfacet
  facet normal 0 0 -1
    outer loop
      vertex 0.19509 1.01921 0
      vertex -2 0 0
      vertex 0 1 0
    endloop
  endfacet
  facet normal 0 0 -1
    outer loop
      vertex -2 10 0
      vertex -0.980784 7.80491 0
      vertex -2 0 0
    endloop
  endfacet
  facet normal -0 0 -1
    outer loop
      vertex -0.980784 1.80491 0
      vertex -2 0 0
      vertex -1 2 0
    endloop
  endfacet
  facet normal -0 0 -1
    outer loop
      vertex -0.923879 1.61732 0
      vertex -2 0 0
      vertex -0.980784 1.80491 0
    endloop
  endfacet
  facet normal -0 0 -1
    outer loop
      vertex -0.83147 1.44443 0
      vertex -2 0 0
      vertex -0.923879 1.61732 0
    endloop
  endfacet
  facet normal -0 0 -1
    outer loop
      vertex -0.707107 1.29289 0
      vertex -2 0 0
      vertex -0.83147 1.44443 0
    endloop
  endfacet
  facet normal -0 0 -1
    outer loop
      vertex -0.55557 1.16853 0
      vertex -2 0 0
      vertex -0.707107 1.29289 0
    endloop
  endfacet
  facet normal -0 0 -1
    outer loop
      vertex -0.382683 1.07612 0
      vertex -2 0 0
      vertex -0.55557 1.16853 0
    endloop
  endfacet
  facet normal -0 0 -1
    outer loop
      vertex -0.19509 1.01921 0
      vertex -2 0 0
      vertex -0.382683 1.07612 0
    endloop
  endfacet
  facet normal -0 0 -1
    outer loop
      vertex 0 1 0
      vertex -2 0 0
      vertex -0.19509 1.01921 0
    endloop
  endfacet
  facet normal 0 -1 0
    outer loop
      vertex -2 0 0
      vertex 5.5 0 3
      vertex -2 0 3
    endloop
  endfacet
  facet normal 0 -1 -0
    outer loop
      vertex 5.5 0 3
      vertex -2 0 0
      vertex 5.5 0 0
    endloop
  endfacet
  facet normal 0.995185 0.0980166 0
    outer loop
      vertex 25 16 3
      vertex 24.9039 16.9755 0
      vertex 24.9039 16.9755 3
    endloop
  endfacet
  facet normal 0.995185 0.0980166 0
    outer loop
      vertex 24.9039 16.9755 0
      vertex 25 16 3
      vertex 25 16 0
    endloop
  endfacet
  facet normal 0.565365 -0.824841 0
    outer loop
      vertex 5.5 0 0
      vertex 22.7779 11.8427 3
      vertex 5.5 0 3
    endloop
  endfacet
  facet normal 0.565365 -0.824841 0
    outer loop
      vertex 22.7779 11.8427 3
      vertex 5.5 0 0
      vertex 22.7779 11.8427 0
    endloop
  endfacet
  facet normal -0.471395 0.881922 0
    outer loop
      vertex 18.0866 20.6194 0
      vertex 17.2221 20.1573 3
      vertex 18.0866 20.6194 3
    endloop
  endfacet
  facet normal -0.471395 0.881922 0
    outer loop
      vertex 17.2221 20.1573 3
      vertex 18.0866 20.6194 0
      vertex 17.2221 20.1573 0
    endloop
  endfacet
  facet normal 0.77301 0.634394 0
    outer loop
      vertex 24.1573 18.7779 3
      vertex 23.5355 19.5355 0
      vertex 23.5355 19.5355 3
    endloop
  endfacet
  facet normal 0.77301 0.634394 0
    outer loop
      vertex 23.5355 19.5355 0
      vertex 24.1573 18.7779 3
      vertex 24.1573 18.7779 0
    endloop
  endfacet
  facet normal 0.995185 -0.0980166 0
    outer loop
      vertex 24.9039 15.0245 3
      vertex 25 16 0
      vertex 25 16 3
    endloop
  endfacet
  facet normal 0.995185 -0.0980166 0
    outer loop
      vertex 25 16 0
      vertex 24.9039 15.0245 3
      vertex 24.9039 15.0245 0
    endloop
  endfacet
  facet normal 0.634393 -0.773011 0
    outer loop
      vertex 22.7779 11.8427 0
      vertex 23.5355 12.4645 3
      vertex 22.7779 11.8427 3
    endloop
  endfacet
  facet normal 0.634393 -0.773011 0
    outer loop
      vertex 23.5355 12.4645 3
      vertex 22.7779 11.8427 0
      vertex 23.5355 12.4645 0
    endloop
  endfacet
  facet normal 0.95694 -0.290286 0
    outer loop
      vertex 24.6194 14.0866 3
      vertex 24.9039 15.0245 0
      vertex 24.9039 15.0245 3
    endloop
  endfacet
  facet normal 0.95694 -0.290286 0
    outer loop
      vertex 24.9039 15.0245 0
      vertex 24.6194 14.0866 3
      vertex 24.6194 14.0866 0
    endloop
  endfacet
  facet normal -0.290286 0.95694 0
    outer loop
      vertex 19.0245 20.9039 0
      vertex 18.0866 20.6194 3
      vertex 19.0245 20.9039 3
    endloop
  endfacet
  facet normal -0.290286 0.95694 0
    outer loop
      vertex 18.0866 20.6194 3
      vertex 19.0245 20.9039 0
      vertex 18.0866 20.6194 0
    endloop
  endfacet
  facet normal 0.77301 -0.634394 0
    outer loop
      vertex 23.5355 12.4645 3
      vertex 24.1573 13.2221 0
      vertex 24.1573 13.2221 3
    endloop
  endfacet
  facet normal 0.77301 -0.634394 0
    outer loop
      vertex 24.1573 13.2221 0
      vertex 23.5355 12.4645 3
      vertex 23.5355 12.4645 0
    endloop
  endfacet
  facet normal -0.609201 0.793016 0
    outer loop
      vertex 17.2221 20.1573 0
      vertex 4 10 3
      vertex 17.2221 20.1573 3
    endloop
  endfacet
  facet normal -0.609201 0.793016 0
    outer loop
      vertex 4 10 3
      vertex 17.2221 20.1573 0
      vertex 4 10 0
    endloop
  endfacet
  facet normal 0.881922 -0.471395 0
    outer loop
      vertex 24.1573 13.2221 3
      vertex 24.6194 14.0866 0
      vertex 24.6194 14.0866 3
    endloop
  endfacet
  facet normal 0.881922 -0.471395 0
    outer loop
      vertex 24.6194 14.0866 0
      vertex 24.1573 13.2221 3
      vertex 24.1573 13.2221 0
    endloop
  endfacet
  facet normal 0.471395 0.881922 -0
    outer loop
      vertex 22.7779 20.1573 0
      vertex 21.9134 20.6194 3
      vertex 22.7779 20.1573 3
    endloop
  endfacet
  facet normal 0.471395 0.881922 0
    outer loop
      vertex 21.9134 20.6194 3
      vertex 22.7779 20.1573 0
      vertex 21.9134 20.6194 0
    endloop
  endfacet
  facet normal -0.0980166 0.995185 0
    outer loop
      vertex 20 21 0
      vertex 19.0245 20.9039 3
      vertex 20 21 3
    endloop
  endfacet
  facet normal -0.0980166 0.995185 0
    outer loop
      vertex 19.0245 20.9039 3
      vertex 20 21 0
      vertex 19.0245 20.9039 0
    endloop
  endfacet
  facet normal 0.290286 0.95694 -0
    outer loop
      vertex 21.9134 20.6194 0
      vertex 20.9755 20.9039 3
      vertex 21.9134 20.6194 3
    endloop
  endfacet
  facet normal 0.290286 0.95694 0
    outer loop
      vertex 20.9755 20.9039 3
      vertex 21.9134 20.6194 0
      vertex 20.9755 20.9039 0
    endloop
  endfacet
  facet normal 0.634394 0.77301 -0
    outer loop
      vertex 23.5355 19.5355 0
      vertex 22.7779 20.1573 3
      vertex 23.5355 19.5355 3
    endloop
  endfacet
  facet normal 0.634394 0.77301 0
    outer loop
      vertex 22.7779 20.1573 3
      vertex 23.5355 19.5355 0
      vertex 22.7779 20.1573 0
    endloop
  endfacet
  facet normal 0.0980166 0.995185 -0
    outer loop
      vertex 20.9755 20.9039 0
      vertex 20 21 3
      vertex 20.9755 20.9039 3
    endloop
  endfacet
  facet normal 0.0980166 0.995185 0
    outer loop
      vertex 20 21 3
      vertex 20.9755 20.9039 0
      vertex 20 21 0
    endloop
  endfacet
  facet normal 0.881922 0.471395 0
    outer loop
      vertex 24.6194 17.9134 3
      vertex 24.1573 18.7779 0
      vertex 24.1573 18.7779 3
    endloop
  endfacet
  facet normal 0.881922 0.471395 0
    outer loop
      vertex 24.1573 18.7779 0
      vertex 24.6194 17.9134 3
      vertex 24.6194 17.9134 0
    endloop
  endfacet
  facet normal 0.95694 0.290286 0
    outer loop
      vertex 24.9039 16.9755 3
      vertex 24.6194 17.9134 0
      vertex 24.6194 17.9134 3
    endloop
  endfacet
  facet normal 0.95694 0.290286 0
    outer loop
      vertex 24.6194 17.9134 0
      vertex 24.9039 16.9755 3
      vertex 24.9039 16.9755 0
    endloop
  endfacet
  facet normal -0.471396 -0.881922 0
    outer loop
      vertex 21.1174 18.6977 0
      vertex 21.6223 18.4279 1
      vertex 21.1174 18.6977 1
    endloop
  endfacet
  facet normal -0.471396 -0.881922 -0
    outer loop
      vertex 21.6223 18.4279 1
      vertex 21.1174 18.6977 0
      vertex 21.6223 18.4279 0
    endloop
  endfacet
  facet normal 0.995185 -0.0980164 0
    outer loop
      vertex 17.08 16 1
      vertex 17.1361 16.5697 0
      vertex 17.1361 16.5697 1
    endloop
  endfacet
  facet normal 0.995185 -0.0980164 0
    outer loop
      vertex 17.1361 16.5697 0
      vertex 17.08 16 1
      vertex 17.08 16 0
    endloop
  endfacet
  facet normal -0.995185 0.0980164 0
    outer loop
      vertex 22.8639 15.4303 0
      vertex 22.92 16 1
      vertex 22.92 16 0
    endloop
  endfacet
  facet normal -0.995185 0.0980164 0
    outer loop
      vertex 22.92 16 1
      vertex 22.8639 15.4303 0
      vertex 22.8639 15.4303 1
    endloop
  endfacet
  facet normal 0.0980164 0.995185 -0
    outer loop
      vertex 20 13.08 0
      vertex 19.4303 13.1361 1
      vertex 20 13.08 1
    endloop
  endfacet
  facet normal 0.0980164 0.995185 0
    outer loop
      vertex 19.4303 13.1361 1
      vertex 20 13.08 0
      vertex 19.4303 13.1361 0
    endloop
  endfacet
  facet normal 0.471396 -0.881922 0
    outer loop
      vertex 18.3777 18.4279 0
      vertex 18.8826 18.6977 1
      vertex 18.3777 18.4279 1
    endloop
  endfacet
  facet normal 0.471396 -0.881922 0
    outer loop
      vertex 18.8826 18.6977 1
      vertex 18.3777 18.4279 0
      vertex 18.8826 18.6977 0
    endloop
  endfacet
  facet normal 0.95694 -0.290284 0
    outer loop
      vertex 17.1361 16.5697 1
      vertex 17.3023 17.1174 0
      vertex 17.3023 17.1174 1
    endloop
  endfacet
  facet normal 0.95694 -0.290284 0
    outer loop
      vertex 17.3023 17.1174 0
      vertex 17.1361 16.5697 1
      vertex 17.1361 16.5697 0
    endloop
  endfacet
  facet normal -0.77301 0.634394 0
    outer loop
      vertex 22.0648 13.9352 0
      vertex 22.4279 14.3777 1
      vertex 22.4279 14.3777 0
    endloop
  endfacet
  facet normal -0.77301 0.634394 0
    outer loop
      vertex 22.4279 14.3777 1
      vertex 22.0648 13.9352 0
      vertex 22.0648 13.9352 1
    endloop
  endfacet
  facet normal 0.773012 0.634392 0
    outer loop
      vertex 17.9352 13.9352 1
      vertex 17.5721 14.3777 0
      vertex 17.5721 14.3777 1
    endloop
  endfacet
  facet normal 0.773012 0.634392 0
    outer loop
      vertex 17.5721 14.3777 0
      vertex 17.9352 13.9352 1
      vertex 17.9352 13.9352 0
    endloop
  endfacet
  facet normal -0.95694 -0.290284 0
    outer loop
      vertex 22.8639 16.5697 0
      vertex 22.6977 17.1174 1
      vertex 22.6977 17.1174 0
    endloop
  endfacet
  facet normal -0.95694 -0.290284 0
    outer loop
      vertex 22.6977 17.1174 1
      vertex 22.8639 16.5697 0
      vertex 22.8639 16.5697 1
    endloop
  endfacet
  facet normal -0.881922 -0.471396 0
    outer loop
      vertex 22.6977 17.1174 0
      vertex 22.4279 17.6223 1
      vertex 22.4279 17.6223 0
    endloop
  endfacet
  facet normal -0.881922 -0.471396 0
    outer loop
      vertex 22.4279 17.6223 1
      vertex 22.6977 17.1174 0
      vertex 22.6977 17.1174 1
    endloop
  endfacet
  facet normal -0.773009 -0.634395 0
    outer loop
      vertex 22.4279 17.6223 0
      vertex 22.0648 18.0648 1
      vertex 22.0648 18.0648 0
    endloop
  endfacet
  facet normal -0.773009 -0.634395 0
    outer loop
      vertex 22.0648 18.0648 1
      vertex 22.4279 17.6223 0
      vertex 22.4279 17.6223 1
    endloop
  endfacet
  facet normal -0.634395 -0.773009 0
    outer loop
      vertex 21.6223 18.4279 0
      vertex 22.0648 18.0648 1
      vertex 21.6223 18.4279 1
    endloop
  endfacet
  facet normal -0.634395 -0.773009 -0
    outer loop
      vertex 22.0648 18.0648 1
      vertex 21.6223 18.4279 0
      vertex 22.0648 18.0648 0
    endloop
  endfacet
  facet normal -0.290284 -0.95694 0
    outer loop
      vertex 20.5697 18.8639 0
      vertex 21.1174 18.6977 1
      vertex 20.5697 18.8639 1
    endloop
  endfacet
  facet normal -0.290284 -0.95694 -0
    outer loop
      vertex 21.1174 18.6977 1
      vertex 20.5697 18.8639 0
      vertex 21.1174 18.6977 0
    endloop
  endfacet
  facet normal 0.0980164 -0.995185 0
    outer loop
      vertex 19.4303 18.8639 0
      vertex 20 18.92 1
      vertex 19.4303 18.8639 1
    endloop
  endfacet
  facet normal 0.0980164 -0.995185 0
    outer loop
      vertex 20 18.92 1
      vertex 19.4303 18.8639 0
      vertex 20 18.92 0
    endloop
  endfacet
  facet normal 0.995185 0.0980164 0
    outer loop
      vertex 17.1361 15.4303 1
      vertex 17.08 16 0
      vertex 17.08 16 1
    endloop
  endfacet
  facet normal 0.995185 0.0980164 0
    outer loop
      vertex 17.08 16 0
      vertex 17.1361 15.4303 1
      vertex 17.1361 15.4303 0
    endloop
  endfacet
  facet normal 0.88192 -0.471399 0
    outer loop
      vertex 17.3023 17.1174 1
      vertex 17.5721 17.6223 0
      vertex 17.5721 17.6223 1
    endloop
  endfacet
  facet normal 0.88192 -0.471399 0
    outer loop
      vertex 17.5721 17.6223 0
      vertex 17.3023 17.1174 1
      vertex 17.3023 17.1174 0
    endloop
  endfacet
  facet normal 0.634393 -0.773011 0
    outer loop
      vertex 17.9352 18.0648 0
      vertex 18.3777 18.4279 1
      vertex 17.9352 18.0648 1
    endloop
  endfacet
  facet normal 0.634393 -0.773011 0
    outer loop
      vertex 18.3777 18.4279 1
      vertex 17.9352 18.0648 0
      vertex 18.3777 18.4279 0
    endloop
  endfacet
  facet normal 0.290284 -0.95694 0
    outer loop
      vertex 18.8826 18.6977 0
      vertex 19.4303 18.8639 1
      vertex 18.8826 18.6977 1
    endloop
  endfacet
  facet normal 0.290284 -0.95694 0
    outer loop
      vertex 19.4303 18.8639 1
      vertex 18.8826 18.6977 0
      vertex 19.4303 18.8639 0
    endloop
  endfacet
  facet normal 0.773011 -0.634393 0
    outer loop
      vertex 17.5721 17.6223 1
      vertex 17.9352 18.0648 0
      vertex 17.9352 18.0648 1
    endloop
  endfacet
  facet normal 0.773011 -0.634393 0
    outer loop
      vertex 17.9352 18.0648 0
      vertex 17.5721 17.6223 1
      vertex 17.5721 17.6223 0
    endloop
  endfacet
  facet normal -0.995185 -0.0980164 0
    outer loop
      vertex 22.92 16 0
      vertex 22.8639 16.5697 1
      vertex 22.8639 16.5697 0
    endloop
  endfacet
  facet normal -0.995185 -0.0980164 0
    outer loop
      vertex 22.8639 16.5697 1
      vertex 22.92 16 0
      vertex 22.92 16 1
    endloop
  endfacet
  facet normal -0.290284 0.95694 0
    outer loop
      vertex 21.1174 13.3023 0
      vertex 20.5697 13.1361 1
      vertex 21.1174 13.3023 1
    endloop
  endfacet
  facet normal -0.290284 0.95694 0
    outer loop
      vertex 20.5697 13.1361 1
      vertex 21.1174 13.3023 0
      vertex 20.5697 13.1361 0
    endloop
  endfacet
  facet normal -0.881922 0.471396 0
    outer loop
      vertex 22.4279 14.3777 0
      vertex 22.6977 14.8826 1
      vertex 22.6977 14.8826 0
    endloop
  endfacet
  facet normal -0.881922 0.471396 0
    outer loop
      vertex 22.6977 14.8826 1
      vertex 22.4279 14.3777 0
      vertex 22.4279 14.3777 1
    endloop
  endfacet
  facet normal -0.956941 0.290284 0
    outer loop
      vertex 22.6977 14.8826 0
      vertex 22.8639 15.4303 1
      vertex 22.8639 15.4303 0
    endloop
  endfacet
  facet normal -0.956941 0.290284 0
    outer loop
      vertex 22.8639 15.4303 1
      vertex 22.6977 14.8826 0
      vertex 22.6977 14.8826 1
    endloop
  endfacet
  facet normal -0.471397 0.881921 0
    outer loop
      vertex 21.6223 13.5721 0
      vertex 21.1174 13.3023 1
      vertex 21.6223 13.5721 1
    endloop
  endfacet
  facet normal -0.471397 0.881921 0
    outer loop
      vertex 21.1174 13.3023 1
      vertex 21.6223 13.5721 0
      vertex 21.1174 13.3023 0
    endloop
  endfacet
  facet normal -0.634394 0.77301 0
    outer loop
      vertex 22.0648 13.9352 0
      vertex 21.6223 13.5721 1
      vertex 22.0648 13.9352 1
    endloop
  endfacet
  facet normal -0.634394 0.77301 0
    outer loop
      vertex 21.6223 13.5721 1
      vertex 22.0648 13.9352 0
      vertex 21.6223 13.5721 0
    endloop
  endfacet
  facet normal -0.0980164 0.995185 0
    outer loop
      vertex 20.5697 13.1361 0
      vertex 20 13.08 1
      vertex 20.5697 13.1361 1
    endloop
  endfacet
  facet normal -0.0980164 0.995185 0
    outer loop
      vertex 20 13.08 1
      vertex 20.5697 13.1361 0
      vertex 20 13.08 0
    endloop
  endfacet
  facet normal 0.290284 0.95694 -0
    outer loop
      vertex 19.4303 13.1361 0
      vertex 18.8826 13.3023 1
      vertex 19.4303 13.1361 1
    endloop
  endfacet
  facet normal 0.290284 0.95694 0
    outer loop
      vertex 18.8826 13.3023 1
      vertex 19.4303 13.1361 0
      vertex 18.8826 13.3023 0
    endloop
  endfacet
  facet normal 0.471397 0.881921 -0
    outer loop
      vertex 18.8826 13.3023 0
      vertex 18.3777 13.5721 1
      vertex 18.8826 13.3023 1
    endloop
  endfacet
  facet normal 0.471397 0.881921 0
    outer loop
      vertex 18.3777 13.5721 1
      vertex 18.8826 13.3023 0
      vertex 18.3777 13.5721 0
    endloop
  endfacet
  facet normal 0.956941 0.290284 0
    outer loop
      vertex 17.3023 14.8826 1
      vertex 17.1361 15.4303 0
      vertex 17.1361 15.4303 1
    endloop
  endfacet
  facet normal 0.956941 0.290284 0
    outer loop
      vertex 17.1361 15.4303 0
      vertex 17.3023 14.8826 1
      vertex 17.3023 14.8826 0
    endloop
  endfacet
  facet normal -0.0980164 -0.995185 0
    outer loop
      vertex 20 18.92 0
      vertex 20.5697 18.8639 1
      vertex 20 18.92 1
    endloop
  endfacet
  facet normal -0.0980164 -0.995185 -0
    outer loop
      vertex 20.5697 18.8639 1
      vertex 20 18.92 0
      vertex 20.5697 18.8639 0
    endloop
  endfacet
  facet normal 0.88192 0.471399 0
    outer loop
      vertex 17.5721 14.3777 1
      vertex 17.3023 14.8826 0
      vertex 17.3023 14.8826 1
    endloop
  endfacet
  facet normal 0.88192 0.471399 0
    outer loop
      vertex 17.3023 14.8826 0
      vertex 17.5721 14.3777 1
      vertex 17.5721 14.3777 0
    endloop
  endfacet
  facet normal 0.634392 0.773011 -0
    outer loop
      vertex 18.3777 13.5721 0
      vertex 17.9352 13.9352 1
      vertex 18.3777 13.5721 1
    endloop
  endfacet
  facet normal 0.634392 0.773011 0
    outer loop
      vertex 17.9352 13.9352 1
      vertex 18.3777 13.5721 0
      vertex 17.9352 13.9352 0
    endloop
  endfacet
  facet normal -0.707107 -0.707107 0
    outer loop
      vertex 22.6225 17.65 1
      vertex 21.65 18.6225 3
      vertex 21.65 18.6225 1
    endloop
  endfacet
  facet normal -0.707107 -0.707107 0
    outer loop
      vertex 21.65 18.6225 3
      vertex 22.6225 17.65 1
      vertex 22.6225 17.65 3
    endloop
  endfacet
  facet normal 0 0 1
    outer loop
      vertex 17.9352 13.9352 1
      vertex 18.35 13.3775 1
      vertex 18.3777 13.5721 1
    endloop
  endfacet
  facet normal -0 0 1
    outer loop
      vertex 17.3775 14.35 1
      vertex 17.9352 13.9352 1
      vertex 17.5721 14.3777 1
    endloop
  endfacet
  facet normal 0 0 1
    outer loop
      vertex 17.9352 13.9352 1
      vertex 17.3775 14.35 1
      vertex 18.35 13.3775 1
    endloop
  endfacet
  facet normal 0 0 1
    outer loop
      vertex 17.3023 14.8826 1
      vertex 17.3775 14.35 1
      vertex 17.5721 14.3777 1
    endloop
  endfacet
  facet normal 0 0 1
    outer loop
      vertex 16 14.35 1
      vertex 17.3023 14.8826 1
      vertex 17.1361 15.4303 1
    endloop
  endfacet
  facet normal 0 0 1
    outer loop
      vertex 16 14.35 1
      vertex 17.08 16 1
      vertex 16 17.65 1
    endloop
  endfacet
  facet normal 0 0 1
    outer loop
      vertex 17.08 16 1
      vertex 16 14.35 1
      vertex 17.1361 15.4303 1
    endloop
  endfacet
  facet normal 0 0 1
    outer loop
      vertex 17.3023 14.8826 1
      vertex 16 14.35 1
      vertex 17.3775 14.35 1
    endloop
  endfacet
  facet normal -0 0 1
    outer loop
      vertex 21.1174 18.6977 1
      vertex 21.65 18.6225 1
      vertex 21.65 20 1
    endloop
  endfacet
  facet normal 0 0 1
    outer loop
      vertex 21.65 18.6225 1
      vertex 21.1174 18.6977 1
      vertex 21.6223 18.4279 1
    endloop
  endfacet
  facet normal 0 0 1
    outer loop
      vertex 21.65 20 1
      vertex 20.5697 18.8639 1
      vertex 21.1174 18.6977 1
    endloop
  endfacet
  facet normal 0 0 1
    outer loop
      vertex 21.65 20 1
      vertex 20 18.92 1
      vertex 20.5697 18.8639 1
    endloop
  endfacet
  facet normal -0 0 1
    outer loop
      vertex 18.35 20 1
      vertex 20 18.92 1
      vertex 21.65 20 1
    endloop
  endfacet
  facet normal 0 0 1
    outer loop
      vertex 20 18.92 1
      vertex 18.35 20 1
      vertex 19.4303 18.8639 1
    endloop
  endfacet
  facet normal 0 0 1
    outer loop
      vertex 19.4303 18.8639 1
      vertex 18.35 20 1
      vertex 18.8826 18.6977 1
    endloop
  endfacet
  facet normal 0 0 1
    outer loop
      vertex 18.35 18.6225 1
      vertex 18.8826 18.6977 1
      vertex 18.35 20 1
    endloop
  endfacet
  facet normal 0 0 1
    outer loop
      vertex 18.8826 18.6977 1
      vertex 18.35 18.6225 1
      vertex 18.3777 18.4279 1
    endloop
  endfacet
  facet normal 0 0 1
    outer loop
      vertex 18.35 18.6225 1
      vertex 17.9352 18.0648 1
      vertex 18.3777 18.4279 1
    endloop
  endfacet
  facet normal 0 0 1
    outer loop
      vertex 17.3775 17.65 1
      vertex 17.9352 18.0648 1
      vertex 18.35 18.6225 1
    endloop
  endfacet
  facet normal 0 0 1
    outer loop
      vertex 17.9352 18.0648 1
      vertex 17.3775 17.65 1
      vertex 17.5721 17.6223 1
    endloop
  endfacet
  facet normal 0 0 1
    outer loop
      vertex 17.3775 17.65 1
      vertex 17.3023 17.1174 1
      vertex 17.5721 17.6223 1
    endloop
  endfacet
  facet normal -0 0 1
    outer loop
      vertex 16 17.65 1
      vertex 17.3023 17.1174 1
      vertex 17.3775 17.65 1
    endloop
  endfacet
  facet normal 0 0 1
    outer loop
      vertex 17.1361 16.5697 1
      vertex 16 17.65 1
      vertex 17.08 16 1
    endloop
  endfacet
  facet normal 0 0 1
    outer loop
      vertex 17.3023 17.1174 1
      vertex 16 17.65 1
      vertex 17.1361 16.5697 1
    endloop
  endfacet
  facet normal 0 0 1
    outer loop
      vertex 24 17.65 1
      vertex 22.92 16 1
      vertex 24 14.35 1
    endloop
  endfacet
  facet normal 0 0 1
    outer loop
      vertex 24 17.65 1
      vertex 22.8639 16.5697 1
      vertex 22.92 16 1
    endloop
  endfacet
  facet normal 0 0 1
    outer loop
      vertex 24 17.65 1
      vertex 22.6977 17.1174 1
      vertex 22.8639 16.5697 1
    endloop
  endfacet
  facet normal -0 0 1
    outer loop
      vertex 22.6225 17.65 1
      vertex 22.6977 17.1174 1
      vertex 24 17.65 1
    endloop
  endfacet
  facet normal 0 0 1
    outer loop
      vertex 22.6225 17.65 1
      vertex 22.4279 17.6223 1
      vertex 22.6977 17.1174 1
    endloop
  endfacet
  facet normal 0 0 1
    outer loop
      vertex 22.6225 17.65 1
      vertex 22.0648 18.0648 1
      vertex 22.4279 17.6223 1
    endloop
  endfacet
  facet normal 0 0 1
    outer loop
      vertex 21.65 18.6225 1
      vertex 22.0648 18.0648 1
      vertex 22.6225 17.65 1
    endloop
  endfacet
  facet normal 0 0 1
    outer loop
      vertex 22.0648 18.0648 1
      vertex 21.65 18.6225 1
      vertex 21.6223 18.4279 1
    endloop
  endfacet
  facet normal -0 0 1
    outer loop
      vertex 22.8639 15.4303 1
      vertex 24 14.35 1
      vertex 22.92 16 1
    endloop
  endfacet
  facet normal -0 0 1
    outer loop
      vertex 22.6977 14.8826 1
      vertex 24 14.35 1
      vertex 22.8639 15.4303 1
    endloop
  endfacet
  facet normal 0 0 1
    outer loop
      vertex 22.6977 14.8826 1
      vertex 22.6225 14.35 1
      vertex 24 14.35 1
    endloop
  endfacet
  facet normal -0 0 1
    outer loop
      vertex 22.4279 14.3777 1
      vertex 22.6225 14.35 1
      vertex 22.6977 14.8826 1
    endloop
  endfacet
  facet normal 0 0 1
    outer loop
      vertex 22.0648 13.9352 1
      vertex 22.6225 14.35 1
      vertex 22.4279 14.3777 1
    endloop
  endfacet
  facet normal -0 0 1
    outer loop
      vertex 22.0648 13.9352 1
      vertex 21.65 13.3775 1
      vertex 22.6225 14.35 1
    endloop
  endfacet
  facet normal -0 0 1
    outer loop
      vertex 21.6223 13.5721 1
      vertex 21.65 13.3775 1
      vertex 22.0648 13.9352 1
    endloop
  endfacet
  facet normal 0 0 1
    outer loop
      vertex 21.1174 13.3023 1
      vertex 21.65 13.3775 1
      vertex 21.6223 13.5721 1
    endloop
  endfacet
  facet normal 0 0 1
    outer loop
      vertex 21.65 13.3775 1
      vertex 21.1174 13.3023 1
      vertex 21.65 12 1
    endloop
  endfacet
  facet normal -0 0 1
    outer loop
      vertex 20.5697 13.1361 1
      vertex 21.65 12 1
      vertex 21.1174 13.3023 1
    endloop
  endfacet
  facet normal -0 0 1
    outer loop
      vertex 20 13.08 1
      vertex 21.65 12 1
      vertex 20.5697 13.1361 1
    endloop
  endfacet
  facet normal 0 0 1
    outer loop
      vertex 18.35 12 1
      vertex 20 13.08 1
      vertex 19.4303 13.1361 1
    endloop
  endfacet
  facet normal 0 0 1
    outer loop
      vertex 18.35 12 1
      vertex 19.4303 13.1361 1
      vertex 18.8826 13.3023 1
    endloop
  endfacet
  facet normal -0 0 1
    outer loop
      vertex 18.35 13.3775 1
      vertex 18.8826 13.3023 1
      vertex 18.3777 13.5721 1
    endloop
  endfacet
  facet normal 0 0 1
    outer loop
      vertex 18.35 12 1
      vertex 18.8826 13.3023 1
      vertex 18.35 13.3775 1
    endloop
  endfacet
  facet normal 0 0 1
    outer loop
      vertex 20 13.08 1
      vertex 18.35 12 1
      vertex 21.65 12 1
    endloop
  endfacet
  facet normal 0.707107 -0.707107 0
    outer loop
      vertex 17.3775 17.65 3
      vertex 18.35 18.6225 1
      vertex 18.35 18.6225 3
    endloop
  endfacet
  facet normal 0.707107 -0.707107 0
    outer loop
      vertex 18.35 18.6225 1
      vertex 17.3775 17.65 3
      vertex 17.3775 17.65 1
    endloop
  endfacet
  facet normal -0.707107 0.707106 0
    outer loop
      vertex 21.65 13.3775 1
      vertex 22.6225 14.35 3
      vertex 22.6225 14.35 1
    endloop
  endfacet
  facet normal -0.707107 0.707106 0
    outer loop
      vertex 22.6225 14.35 3
      vertex 21.65 13.3775 1
      vertex 21.65 13.3775 3
    endloop
  endfacet
  facet normal 0.707107 0.707106 0
    outer loop
      vertex 18.35 13.3775 3
      vertex 17.3775 14.35 1
      vertex 17.3775 14.35 3
    endloop
  endfacet
  facet normal 0.707107 0.707106 0
    outer loop
      vertex 17.3775 14.35 1
      vertex 18.35 13.3775 3
      vertex 18.35 13.3775 1
    endloop
  endfacet
  facet normal 1 -0 0
    outer loop
      vertex 18.35 18.6225 3
      vertex 18.35 20 1
      vertex 18.35 20 3
    endloop
  endfacet
  facet normal 1 0 0
    outer loop
      vertex 18.35 20 1
      vertex 18.35 18.6225 3
      vertex 18.35 18.6225 1
    endloop
  endfacet
  facet normal 1 -0 0
    outer loop
      vertex 18.35 12 3
      vertex 18.35 13.3775 1
      vertex 18.35 13.3775 3
    endloop
  endfacet
  facet normal 1 0 0
    outer loop
      vertex 18.35 13.3775 1
      vertex 18.35 12 3
      vertex 18.35 12 1
    endloop
  endfacet
  facet normal -1 0 0
    outer loop
      vertex 21.65 12 1
      vertex 21.65 13.3775 3
      vertex 21.65 13.3775 1
    endloop
  endfacet
  facet normal -1 -0 0
    outer loop
      vertex 21.65 13.3775 3
      vertex 21.65 12 1
      vertex 21.65 12 3
    endloop
  endfacet
  facet normal -1 0 0
    outer loop
      vertex 21.65 18.6225 1
      vertex 21.65 20 3
      vertex 21.65 20 1
    endloop
  endfacet
  facet normal -1 -0 0
    outer loop
      vertex 21.65 20 3
      vertex 21.65 18.6225 1
      vertex 21.65 18.6225 3
    endloop
  endfacet
  facet normal 0 1 -0
    outer loop
      vertex 21.65 12 1
      vertex 18.35 12 3
      vertex 21.65 12 3
    endloop
  endfacet
  facet normal 0 1 0
    outer loop
      vertex 18.35 12 3
      vertex 21.65 12 1
      vertex 18.35 12 1
    endloop
  endfacet
  facet normal 0 -1 0
    outer loop
      vertex 18.35 20 1
      vertex 21.65 20 3
      vertex 18.35 20 3
    endloop
  endfacet
  facet normal 0 -1 -0
    outer loop
      vertex 21.65 20 3
      vertex 18.35 20 1
      vertex 21.65 20 1
    endloop
  endfacet
  facet normal 1 -0 0
    outer loop
      vertex 16 14.35 3
      vertex 16 17.65 1
      vertex 16 17.65 3
    endloop
  endfacet
  facet normal 1 0 0
    outer loop
      vertex 16 17.65 1
      vertex 16 14.35 3
      vertex 16 14.35 1
    endloop
  endfacet
  facet normal -1 0 0
    outer loop
      vertex 24 14.35 1
      vertex 24 17.65 3
      vertex 24 17.65 1
    endloop
  endfacet
  facet normal -1 -0 0
    outer loop
      vertex 24 17.65 3
      vertex 24 14.35 1
      vertex 24 14.35 3
    endloop
  endfacet
  facet normal 0 1 -0
    outer loop
      vertex 17.3775 14.35 1
      vertex 16 14.35 3
      vertex 17.3775 14.35 3
    endloop
  endfacet
  facet normal 0 1 0
    outer loop
      vertex 16 14.35 3
      vertex 17.3775 14.35 1
      vertex 16 14.35 1
    endloop
  endfacet
  facet normal 0 1 -0
    outer loop
      vertex 24 14.35 1
      vertex 22.6225 14.35 3
      vertex 24 14.35 3
    endloop
  endfacet
  facet normal 0 1 0
    outer loop
      vertex 22.6225 14.35 3
      vertex 24 14.35 1
      vertex 22.6225 14.35 1
    endloop
  endfacet
  facet normal 0 -1 0
    outer loop
      vertex 16 17.65 1
      vertex 17.3775 17.65 3
      vertex 16 17.65 3
    endloop
  endfacet
  facet normal 0 -1 -0
    outer loop
      vertex 17.3775 17.65 3
      vertex 16 17.65 1
      vertex 17.3775 17.65 1
    endloop
  endfacet
  facet normal 0 -1 0
    outer loop
      vertex 22.6225 17.65 1
      vertex 24 17.65 3
      vertex 22.6225 17.65 3
    endloop
  endfacet
  facet normal 0 -1 -0
    outer loop
      vertex 24 17.65 3
      vertex 22.6225 17.65 1
      vertex 24 17.65 1
    endloop
  endfacet
  facet normal -0.995184 -0.0980215 0
    outer loop
      vertex 1 2 0
      vertex 0.980784 2.19509 3
      vertex 0.980784 2.19509 0
    endloop
  endfacet
  facet normal -0.995184 -0.0980215 0
    outer loop
      vertex 0.980784 2.19509 3
      vertex 1 2 0
      vertex 1 2 3
    endloop
  endfacet
  facet normal 0.0980215 -0.995184 0
    outer loop
      vertex -0.19509 2.98078 0
      vertex 0 3 3
      vertex -0.19509 2.98078 3
    endloop
  endfacet
  facet normal 0.0980215 -0.995184 0
    outer loop
      vertex 0 3 3
      vertex -0.19509 2.98078 0
      vertex 0 3 0
    endloop
  endfacet
  facet normal -0.634393 -0.773011 0
    outer loop
      vertex 0.55557 2.83147 0
      vertex 0.707107 2.70711 3
      vertex 0.55557 2.83147 3
    endloop
  endfacet
  facet normal -0.634393 -0.773011 -0
    outer loop
      vertex 0.707107 2.70711 3
      vertex 0.55557 2.83147 0
      vertex 0.707107 2.70711 0
    endloop
  endfacet
  facet normal 0.773011 -0.634393 0
    outer loop
      vertex -0.83147 2.55557 3
      vertex -0.707107 2.70711 0
      vertex -0.707107 2.70711 3
    endloop
  endfacet
  facet normal 0.773011 -0.634393 0
    outer loop
      vertex -0.707107 2.70711 0
      vertex -0.83147 2.55557 3
      vertex -0.83147 2.55557 0
    endloop
  endfacet
  facet normal 0.471394 -0.881923 0
    outer loop
      vertex -0.55557 2.83147 0
      vertex -0.382683 2.92388 3
      vertex -0.55557 2.83147 3
    endloop
  endfacet
  facet normal 0.471394 -0.881923 0
    outer loop
      vertex -0.382683 2.92388 3
      vertex -0.55557 2.83147 0
      vertex -0.382683 2.92388 0
    endloop
  endfacet
  facet normal -0.881923 -0.471394 0
    outer loop
      vertex 0.923879 2.38268 0
      vertex 0.83147 2.55557 3
      vertex 0.83147 2.55557 0
    endloop
  endfacet
  facet normal -0.881923 -0.471394 0
    outer loop
      vertex 0.83147 2.55557 3
      vertex 0.923879 2.38268 0
      vertex 0.923879 2.38268 3
    endloop
  endfacet
  facet normal -0.95694 -0.290286 0
    outer loop
      vertex 0.980784 2.19509 0
      vertex 0.923879 2.38268 3
      vertex 0.923879 2.38268 0
    endloop
  endfacet
  facet normal -0.95694 -0.290286 0
    outer loop
      vertex 0.923879 2.38268 3
      vertex 0.980784 2.19509 0
      vertex 0.980784 2.19509 3
    endloop
  endfacet
  facet normal -0.773011 -0.634393 0
    outer loop
      vertex 0.83147 2.55557 0
      vertex 0.707107 2.70711 3
      vertex 0.707107 2.70711 0
    endloop
  endfacet
  facet normal -0.773011 -0.634393 0
    outer loop
      vertex 0.707107 2.70711 3
      vertex 0.83147 2.55557 0
      vertex 0.83147 2.55557 3
    endloop
  endfacet
  facet normal -0.290286 -0.95694 0
    outer loop
      vertex 0.19509 2.98078 0
      vertex 0.382683 2.92388 3
      vertex 0.19509 2.98078 3
    endloop
  endfacet
  facet normal -0.290286 -0.95694 -0
    outer loop
      vertex 0.382683 2.92388 3
      vertex 0.19509 2.98078 0
      vertex 0.382683 2.92388 0
    endloop
  endfacet
  facet normal -0.0980215 -0.995184 0
    outer loop
      vertex 0 3 0
      vertex 0.19509 2.98078 3
      vertex 0 3 3
    endloop
  endfacet
  facet normal -0.0980215 -0.995184 -0
    outer loop
      vertex 0.19509 2.98078 3
      vertex 0 3 0
      vertex 0.19509 2.98078 0
    endloop
  endfacet
  facet normal -0.471394 -0.881923 0
    outer loop
      vertex 0.382683 2.92388 0
      vertex 0.55557 2.83147 3
      vertex 0.382683 2.92388 3
    endloop
  endfacet
  facet normal -0.471394 -0.881923 -0
    outer loop
      vertex 0.55557 2.83147 3
      vertex 0.382683 2.92388 0
      vertex 0.55557 2.83147 0
    endloop
  endfacet
  facet normal 0.95694 -0.290286 0
    outer loop
      vertex -0.980784 2.19509 3
      vertex -0.923879 2.38268 0
      vertex -0.923879 2.38268 3
    endloop
  endfacet
  facet normal 0.95694 -0.290286 0
    outer loop
      vertex -0.923879 2.38268 0
      vertex -0.980784 2.19509 3
      vertex -0.980784 2.19509 0
    endloop
  endfacet
  facet normal 0.881923 -0.471394 0
    outer loop
      vertex -0.923879 2.38268 3
      vertex -0.83147 2.55557 0
      vertex -0.83147 2.55557 3
    endloop
  endfacet
  facet normal 0.881923 -0.471394 0
    outer loop
      vertex -0.83147 2.55557 0
      vertex -0.923879 2.38268 3
      vertex -0.923879 2.38268 0
    endloop
  endfacet
  facet normal 0.995184 -0.0980215 0
    outer loop
      vertex -1 2 3
      vertex -0.980784 2.19509 0
      vertex -0.980784 2.19509 3
    endloop
  endfacet
  facet normal 0.995184 -0.0980215 0
    outer loop
      vertex -0.980784 2.19509 0
      vertex -1 2 3
      vertex -1 2 0
    endloop
  endfacet
  facet normal 0.634393 -0.773011 0
    outer loop
      vertex -0.707107 2.70711 0
      vertex -0.55557 2.83147 3
      vertex -0.707107 2.70711 3
    endloop
  endfacet
  facet normal 0.634393 -0.773011 0
    outer loop
      vertex -0.55557 2.83147 3
      vertex -0.707107 2.70711 0
      vertex -0.55557 2.83147 0
    endloop
  endfacet
  facet normal 0.290286 -0.95694 0
    outer loop
      vertex -0.382683 2.92388 0
      vertex -0.19509 2.98078 3
      vertex -0.382683 2.92388 3
    endloop
  endfacet
  facet normal 0.290286 -0.95694 0
    outer loop
      vertex -0.19509 2.98078 3
      vertex -0.382683 2.92388 0
      vertex -0.19509 2.98078 0
    endloop
  endfacet
  facet normal -0.290286 0.95694 0
    outer loop
      vertex 0.382683 1.07612 0
      vertex 0.19509 1.01921 3
      vertex 0.382683 1.07612 3
    endloop
  endfacet
  facet normal -0.290286 0.95694 0
    outer loop
      vertex 0.19509 1.01921 3
      vertex 0.382683 1.07612 0
      vertex 0.19509 1.01921 0
    endloop
  endfacet
  facet normal -0.634393 0.773011 0
    outer loop
      vertex 0.707107 1.29289 0
      vertex 0.55557 1.16853 3
      vertex 0.707107 1.29289 3
    endloop
  endfacet
  facet normal -0.634393 0.773011 0
    outer loop
      vertex 0.55557 1.16853 3
      vertex 0.707107 1.29289 0
      vertex 0.55557 1.16853 0
    endloop
  endfacet
  facet normal 0.471394 0.881923 -0
    outer loop
      vertex -0.382683 1.07612 0
      vertex -0.55557 1.16853 3
      vertex -0.382683 1.07612 3
    endloop
  endfacet
  facet normal 0.471394 0.881923 0
    outer loop
      vertex -0.55557 1.16853 3
      vertex -0.382683 1.07612 0
      vertex -0.55557 1.16853 0
    endloop
  endfacet
  facet normal 0.0980167 0.995185 -0
    outer loop
      vertex 0 1 0
      vertex -0.19509 1.01921 3
      vertex 0 1 3
    endloop
  endfacet
  facet normal 0.0980167 0.995185 0
    outer loop
      vertex -0.19509 1.01921 3
      vertex 0 1 0
      vertex -0.19509 1.01921 0
    endloop
  endfacet
  facet normal 0.773011 0.634393 0
    outer loop
      vertex -0.707107 1.29289 3
      vertex -0.83147 1.44443 0
      vertex -0.83147 1.44443 3
    endloop
  endfacet
  facet normal 0.773011 0.634393 0
    outer loop
      vertex -0.83147 1.44443 0
      vertex -0.707107 1.29289 3
      vertex -0.707107 1.29289 0
    endloop
  endfacet
  facet normal 0.95694 0.290286 0
    outer loop
      vertex -0.923879 1.61732 3
      vertex -0.980784 1.80491 0
      vertex -0.980784 1.80491 3
    endloop
  endfacet
  facet normal 0.95694 0.290286 0
    outer loop
      vertex -0.980784 1.80491 0
      vertex -0.923879 1.61732 3
      vertex -0.923879 1.61732 0
    endloop
  endfacet
  facet normal 0.995184 0.098021 0
    outer loop
      vertex -0.980784 1.80491 3
      vertex -1 2 0
      vertex -1 2 3
    endloop
  endfacet
  facet normal 0.995184 0.098021 0
    outer loop
      vertex -1 2 0
      vertex -0.980784 1.80491 3
      vertex -0.980784 1.80491 0
    endloop
  endfacet
  facet normal -0.471394 0.881923 0
    outer loop
      vertex 0.55557 1.16853 0
      vertex 0.382683 1.07612 3
      vertex 0.55557 1.16853 3
    endloop
  endfacet
  facet normal -0.471394 0.881923 0
    outer loop
      vertex 0.382683 1.07612 3
      vertex 0.55557 1.16853 0
      vertex 0.382683 1.07612 0
    endloop
  endfacet
  facet normal -0.773011 0.634393 0
    outer loop
      vertex 0.707107 1.29289 0
      vertex 0.83147 1.44443 3
      vertex 0.83147 1.44443 0
    endloop
  endfacet
  facet normal -0.773011 0.634393 0
    outer loop
      vertex 0.83147 1.44443 3
      vertex 0.707107 1.29289 0
      vertex 0.707107 1.29289 3
    endloop
  endfacet
  facet normal -0.95694 0.290286 0
    outer loop
      vertex 0.923879 1.61732 0
      vertex 0.980784 1.80491 3
      vertex 0.980784 1.80491 0
    endloop
  endfacet
  facet normal -0.95694 0.290286 0
    outer loop
      vertex 0.980784 1.80491 3
      vertex 0.923879 1.61732 0
      vertex 0.923879 1.61732 3
    endloop
  endfacet
  facet normal -0.881923 0.471394 0
    outer loop
      vertex 0.83147 1.44443 0
      vertex 0.923879 1.61732 3
      vertex 0.923879 1.61732 0
    endloop
  endfacet
  facet normal -0.881923 0.471394 0
    outer loop
      vertex 0.923879 1.61732 3
      vertex 0.83147 1.44443 0
      vertex 0.83147 1.44443 3
    endloop
  endfacet
  facet normal -0.995184 0.098021 0
    outer loop
      vertex 0.980784 1.80491 0
      vertex 1 2 3
      vertex 1 2 0
    endloop
  endfacet
  facet normal -0.995184 0.098021 0
    outer loop
      vertex 1 2 3
      vertex 0.980784 1.80491 0
      vertex 0.980784 1.80491 3
    endloop
  endfacet
  facet normal 0.290286 0.95694 -0
    outer loop
      vertex -0.19509 1.01921 0
      vertex -0.382683 1.07612 3
      vertex -0.19509 1.01921 3
    endloop
  endfacet
  facet normal 0.290286 0.95694 0
    outer loop
      vertex -0.382683 1.07612 3
      vertex -0.19509 1.01921 0
      vertex -0.382683 1.07612 0
    endloop
  endfacet
  facet normal -0.0980167 0.995185 0
    outer loop
      vertex 0.19509 1.01921 0
      vertex 0 1 3
      vertex 0.19509 1.01921 3
    endloop
  endfacet
  facet normal -0.0980167 0.995185 0
    outer loop
      vertex 0 1 3
      vertex 0.19509 1.01921 0
      vertex 0 1 0
    endloop
  endfacet
  facet normal 0.634393 0.773011 -0
    outer loop
      vertex -0.55557 1.16853 0
      vertex -0.707107 1.29289 3
      vertex -0.55557 1.16853 3
    endloop
  endfacet
  facet normal 0.634393 0.773011 0
    outer loop
      vertex -0.707107 1.29289 3
      vertex -0.55557 1.16853 0
      vertex -0.707107 1.29289 0
    endloop
  endfacet
  facet normal 0.881923 0.471394 0
    outer loop
      vertex -0.83147 1.44443 3
      vertex -0.923879 1.61732 0
      vertex -0.923879 1.61732 3
    endloop
  endfacet
  facet normal 0.881923 0.471394 0
    outer loop
      vertex -0.923879 1.61732 0
      vertex -0.83147 1.44443 3
      vertex -0.83147 1.44443 0
    endloop
  endfacet
  facet normal -0.995184 -0.0980215 0
    outer loop
      vertex 1 8 0
      vertex 0.980784 8.19509 3
      vertex 0.980784 8.19509 0
    endloop
  endfacet
  facet normal -0.995184 -0.0980215 0
    outer loop
      vertex 0.980784 8.19509 3
      vertex 1 8 0
      vertex 1 8 3
    endloop
  endfacet
  facet normal 0.0980215 -0.995184 0
    outer loop
      vertex -0.19509 8.98078 0
      vertex 0 9 3
      vertex -0.19509 8.98078 3
    endloop
  endfacet
  facet normal 0.0980215 -0.995184 0
    outer loop
      vertex 0 9 3
      vertex -0.19509 8.98078 0
      vertex 0 9 0
    endloop
  endfacet
  facet normal -0.0980167 0.995185 0
    outer loop
      vertex 0.19509 7.01921 0
      vertex 0 7 3
      vertex 0.19509 7.01921 3
    endloop
  endfacet
  facet normal -0.0980167 0.995185 0
    outer loop
      vertex 0 7 3
      vertex 0.19509 7.01921 0
      vertex 0 7 0
    endloop
  endfacet
  facet normal 0.634393 0.773011 -0
    outer loop
      vertex -0.55557 7.16853 0
      vertex -0.707107 7.29289 3
      vertex -0.55557 7.16853 3
    endloop
  endfacet
  facet normal 0.634393 0.773011 0
    outer loop
      vertex -0.707107 7.29289 3
      vertex -0.55557 7.16853 0
      vertex -0.707107 7.29289 0
    endloop
  endfacet
  facet normal -0.634393 -0.773011 0
    outer loop
      vertex 0.55557 8.83147 0
      vertex 0.707107 8.70711 3
      vertex 0.55557 8.83147 3
    endloop
  endfacet
  facet normal -0.634393 -0.773011 -0
    outer loop
      vertex 0.707107 8.70711 3
      vertex 0.55557 8.83147 0
      vertex 0.707107 8.70711 0
    endloop
  endfacet
  facet normal 0.773011 -0.634393 0
    outer loop
      vertex -0.83147 8.55557 3
      vertex -0.707107 8.70711 0
      vertex -0.707107 8.70711 3
    endloop
  endfacet
  facet normal 0.773011 -0.634393 0
    outer loop
      vertex -0.707107 8.70711 0
      vertex -0.83147 8.55557 3
      vertex -0.83147 8.55557 0
    endloop
  endfacet
  facet normal 0.471394 -0.881923 0
    outer loop
      vertex -0.55557 8.83147 0
      vertex -0.382683 8.92388 3
      vertex -0.55557 8.83147 3
    endloop
  endfacet
  facet normal 0.471394 -0.881923 0
    outer loop
      vertex -0.382683 8.92388 3
      vertex -0.55557 8.83147 0
      vertex -0.382683 8.92388 0
    endloop
  endfacet
  facet normal -0.881923 0.471394 0
    outer loop
      vertex 0.83147 7.44443 0
      vertex 0.923879 7.61732 3
      vertex 0.923879 7.61732 0
    endloop
  endfacet
  facet normal -0.881923 0.471394 0
    outer loop
      vertex 0.923879 7.61732 3
      vertex 0.83147 7.44443 0
      vertex 0.83147 7.44443 3
    endloop
  endfacet
  facet normal -0.881923 -0.471394 0
    outer loop
      vertex 0.923879 8.38268 0
      vertex 0.83147 8.55557 3
      vertex 0.83147 8.55557 0
    endloop
  endfacet
  facet normal -0.881923 -0.471394 0
    outer loop
      vertex 0.83147 8.55557 3
      vertex 0.923879 8.38268 0
      vertex 0.923879 8.38268 3
    endloop
  endfacet
  facet normal -0.95694 -0.290286 0
    outer loop
      vertex 0.980784 8.19509 0
      vertex 0.923879 8.38268 3
      vertex 0.923879 8.38268 0
    endloop
  endfacet
  facet normal -0.95694 -0.290286 0
    outer loop
      vertex 0.923879 8.38268 3
      vertex 0.980784 8.19509 0
      vertex 0.980784 8.19509 3
    endloop
  endfacet
  facet normal -0.773011 -0.634393 0
    outer loop
      vertex 0.83147 8.55557 0
      vertex 0.707107 8.70711 3
      vertex 0.707107 8.70711 0
    endloop
  endfacet
  facet normal -0.773011 -0.634393 0
    outer loop
      vertex 0.707107 8.70711 3
      vertex 0.83147 8.55557 0
      vertex 0.83147 8.55557 3
    endloop
  endfacet
  facet normal -0.290286 -0.95694 0
    outer loop
      vertex 0.19509 8.98078 0
      vertex 0.382683 8.92388 3
      vertex 0.19509 8.98078 3
    endloop
  endfacet
  facet normal -0.290286 -0.95694 -0
    outer loop
      vertex 0.382683 8.92388 3
      vertex 0.19509 8.98078 0
      vertex 0.382683 8.92388 0
    endloop
  endfacet
  facet normal -0.0980215 -0.995184 0
    outer loop
      vertex 0 9 0
      vertex 0.19509 8.98078 3
      vertex 0 9 3
    endloop
  endfacet
  facet normal -0.0980215 -0.995184 -0
    outer loop
      vertex 0.19509 8.98078 3
      vertex 0 9 0
      vertex 0.19509 8.98078 0
    endloop
  endfacet
  facet normal -0.471394 -0.881923 0
    outer loop
      vertex 0.382683 8.92388 0
      vertex 0.55557 8.83147 3
      vertex 0.382683 8.92388 3
    endloop
  endfacet
  facet normal -0.471394 -0.881923 -0
    outer loop
      vertex 0.55557 8.83147 3
      vertex 0.382683 8.92388 0
      vertex 0.55557 8.83147 0
    endloop
  endfacet
  facet normal 0.95694 -0.290286 0
    outer loop
      vertex -0.980784 8.19509 3
      vertex -0.923879 8.38268 0
      vertex -0.923879 8.38268 3
    endloop
  endfacet
  facet normal 0.95694 -0.290286 0
    outer loop
      vertex -0.923879 8.38268 0
      vertex -0.980784 8.19509 3
      vertex -0.980784 8.19509 0
    endloop
  endfacet
  facet normal 0.881923 -0.471394 0
    outer loop
      vertex -0.923879 8.38268 3
      vertex -0.83147 8.55557 0
      vertex -0.83147 8.55557 3
    endloop
  endfacet
  facet normal 0.881923 -0.471394 0
    outer loop
      vertex -0.83147 8.55557 0
      vertex -0.923879 8.38268 3
      vertex -0.923879 8.38268 0
    endloop
  endfacet
  facet normal 0.995184 -0.0980215 0
    outer loop
      vertex -1 8 3
      vertex -0.980784 8.19509 0
      vertex -0.980784 8.19509 3
    endloop
  endfacet
  facet normal 0.995184 -0.0980215 0
    outer loop
      vertex -0.980784 8.19509 0
      vertex -1 8 3
      vertex -1 8 0
    endloop
  endfacet
  facet normal 0.634393 -0.773011 0
    outer loop
      vertex -0.707107 8.70711 0
      vertex -0.55557 8.83147 3
      vertex -0.707107 8.70711 3
    endloop
  endfacet
  facet normal 0.634393 -0.773011 0
    outer loop
      vertex -0.55557 8.83147 3
      vertex -0.707107 8.70711 0
      vertex -0.55557 8.83147 0
    endloop
  endfacet
  facet normal 0.290286 -0.95694 0
    outer loop
      vertex -0.382683 8.92388 0
      vertex -0.19509 8.98078 3
      vertex -0.382683 8.92388 3
    endloop
  endfacet
  facet normal 0.290286 -0.95694 0
    outer loop
      vertex -0.19509 8.98078 3
      vertex -0.382683 8.92388 0
      vertex -0.19509 8.98078 0
    endloop
  endfacet
  facet normal -0.995184 0.098021 0
    outer loop
      vertex 0.980784 7.80491 0
      vertex 1 8 3
      vertex 1 8 0
    endloop
  endfacet
  facet normal -0.995184 0.098021 0
    outer loop
      vertex 1 8 3
      vertex 0.980784 7.80491 0
      vertex 0.980784 7.80491 3
    endloop
  endfacet
  facet normal -0.290286 0.95694 0
    outer loop
      vertex 0.382683 7.07612 0
      vertex 0.19509 7.01921 3
      vertex 0.382683 7.07612 3
    endloop
  endfacet
  facet normal -0.290286 0.95694 0
    outer loop
      vertex 0.19509 7.01921 3
      vertex 0.382683 7.07612 0
      vertex 0.19509 7.01921 0
    endloop
  endfacet
  facet normal -0.634393 0.773011 0
    outer loop
      vertex 0.707107 7.29289 0
      vertex 0.55557 7.16853 3
      vertex 0.707107 7.29289 3
    endloop
  endfacet
  facet normal -0.634393 0.773011 0
    outer loop
      vertex 0.55557 7.16853 3
      vertex 0.707107 7.29289 0
      vertex 0.55557 7.16853 0
    endloop
  endfacet
  facet normal 0.471394 0.881923 -0
    outer loop
      vertex -0.382683 7.07612 0
      vertex -0.55557 7.16853 3
      vertex -0.382683 7.07612 3
    endloop
  endfacet
  facet normal 0.471394 0.881923 0
    outer loop
      vertex -0.55557 7.16853 3
      vertex -0.382683 7.07612 0
      vertex -0.55557 7.16853 0
    endloop
  endfacet
  facet normal 0.0980167 0.995185 -0
    outer loop
      vertex 0 7 0
      vertex -0.19509 7.01921 3
      vertex 0 7 3
    endloop
  endfacet
  facet normal 0.0980167 0.995185 0
    outer loop
      vertex -0.19509 7.01921 3
      vertex 0 7 0
      vertex -0.19509 7.01921 0
    endloop
  endfacet
  facet normal 0.773011 0.634393 0
    outer loop
      vertex -0.707107 7.29289 3
      vertex -0.83147 7.44443 0
      vertex -0.83147 7.44443 3
    endloop
  endfacet
  facet normal 0.773011 0.634393 0
    outer loop
      vertex -0.83147 7.44443 0
      vertex -0.707107 7.29289 3
      vertex -0.707107 7.29289 0
    endloop
  endfacet
  facet normal 0.95694 0.290286 0
    outer loop
      vertex -0.923879 7.61732 3
      vertex -0.980784 7.80491 0
      vertex -0.980784 7.80491 3
    endloop
  endfacet
  facet normal 0.95694 0.290286 0
    outer loop
      vertex -0.980784 7.80491 0
      vertex -0.923879 7.61732 3
      vertex -0.923879 7.61732 0
    endloop
  endfacet
  facet normal 0.995184 0.098021 0
    outer loop
      vertex -0.980784 7.80491 3
      vertex -1 8 0
      vertex -1 8 3
    endloop
  endfacet
  facet normal 0.995184 0.098021 0
    outer loop
      vertex -1 8 0
      vertex -0.980784 7.80491 3
      vertex -0.980784 7.80491 0
    endloop
  endfacet
  facet normal -0.471394 0.881923 0
    outer loop
      vertex 0.55557 7.16853 0
      vertex 0.382683 7.07612 3
      vertex 0.55557 7.16853 3
    endloop
  endfacet
  facet normal -0.471394 0.881923 0
    outer loop
      vertex 0.382683 7.07612 3
      vertex 0.55557 7.16853 0
      vertex 0.382683 7.07612 0
    endloop
  endfacet
  facet normal -0.773011 0.634393 0
    outer loop
      vertex 0.707107 7.29289 0
      vertex 0.83147 7.44443 3
      vertex 0.83147 7.44443 0
    endloop
  endfacet
  facet normal -0.773011 0.634393 0
    outer loop
      vertex 0.83147 7.44443 3
      vertex 0.707107 7.29289 0
      vertex 0.707107 7.29289 3
    endloop
  endfacet
  facet normal -0.95694 0.290286 0
    outer loop
      vertex 0.923879 7.61732 0
      vertex 0.980784 7.80491 3
      vertex 0.980784 7.80491 0
    endloop
  endfacet
  facet normal -0.95694 0.290286 0
    outer loop
      vertex 0.980784 7.80491 3
      vertex 0.923879 7.61732 0
      vertex 0.923879 7.61732 3
    endloop
  endfacet
  facet normal 0.290286 0.95694 -0
    outer loop
      vertex -0.19509 7.01921 0
      vertex -0.382683 7.07612 3
      vertex -0.19509 7.01921 3
    endloop
  endfacet
  facet normal 0.290286 0.95694 0
    outer loop
      vertex -0.382683 7.07612 3
      vertex -0.19509 7.01921 0
      vertex -0.382683 7.07612 0
    endloop
  endfacet
  facet normal 0.881923 0.471394 0
    outer loop
      vertex -0.83147 7.44443 3
      vertex -0.923879 7.61732 0
      vertex -0.923879 7.61732 3
    endloop
  endfacet
  facet normal 0.881923 0.471394 0
    outer loop
      vertex -0.923879 7.61732 0
      vertex -0.83147 7.44443 3
      vertex -0.83147 7.44443 0
    endloop
  endfacet
endsolid OpenSCAD_Model
