solid OpenSCAD_Model
  facet normal -1 0 0
    outer loop
      vertex -4.3 9.3 -9.9
      vertex -4.3 -5 4.75
      vertex -4.3 9.3 4.75
    endloop
  endfacet
  facet normal -1 0 0
    outer loop
      vertex -4.3 -9.3 -9.9
      vertex -4.3 -5 4.75
      vertex -4.3 9.3 -9.9
    endloop
  endfacet
  facet normal -1 -0 0
    outer loop
      vertex -4.3 -5 4.75
      vertex -4.3 -9.3 -9.9
      vertex -4.3 -9.3 4.75
    endloop
  endfacet
  facet normal 0 0 1
    outer loop
      vertex 4.3 9.3 4.75
      vertex 4.15348 -3.88708 4.75
      vertex 4.3 -5 4.75
    endloop
  endfacet
  facet normal 0 0 1
    outer loop
      vertex 4.3 9.3 4.75
      vertex 3.72391 -2.85 4.75
      vertex 4.15348 -3.88708 4.75
    endloop
  endfacet
  facet normal 0 0 1
    outer loop
      vertex 4.3 9.3 4.75
      vertex 3.04056 -1.95944 4.75
      vertex 3.72391 -2.85 4.75
    endloop
  endfacet
  facet normal -0 0 1
    outer loop
      vertex 1.99186 -0.15 4.75
      vertex 3.04056 -1.95944 4.75
      vertex 4.3 9.3 4.75
    endloop
  endfacet
  facet normal 0 0 1
    outer loop
      vertex 3.04056 -1.95944 4.75
      vertex 2.22163 -0.704717 4.75
      vertex 2.3 -1.3 4.75
    endloop
  endfacet
  facet normal 0 0 1
    outer loop
      vertex 3.04056 -1.95944 4.75
      vertex 1.99186 -0.15 4.75
      vertex 2.22163 -0.704717 4.75
    endloop
  endfacet
  facet normal 0 0 1
    outer loop
      vertex 4.3 9.3 4.75
      vertex 1.62634 0.326345 4.75
      vertex 1.99186 -0.15 4.75
    endloop
  endfacet
  facet normal 0 0 1
    outer loop
      vertex 4.3 9.3 4.75
      vertex 1.15 0.691858 4.75
      vertex 1.62634 0.326345 4.75
    endloop
  endfacet
  facet normal 0 0 1
    outer loop
      vertex 4.3 9.3 4.75
      vertex 0.595284 0.921629 4.75
      vertex 1.15 0.691858 4.75
    endloop
  endfacet
  facet normal 0 0 1
    outer loop
      vertex 4.3 9.3 4.75
      vertex -7.62939e-007 0.999999 4.75
      vertex 0.595284 0.921629 4.75
    endloop
  endfacet
  facet normal -0 0 1
    outer loop
      vertex -4.3 9.3 4.75
      vertex -7.62939e-007 0.999999 4.75
      vertex 4.3 9.3 4.75
    endloop
  endfacet
  facet normal 0 0 1
    outer loop
      vertex -7.62939e-007 0.999999 4.75
      vertex -4.3 9.3 4.75
      vertex -0.595284 0.921629 4.75
    endloop
  endfacet
  facet normal 0 0 1
    outer loop
      vertex -0.595284 0.921629 4.75
      vertex -4.3 9.3 4.75
      vertex -1.15 0.691858 4.75
    endloop
  endfacet
  facet normal 0 0 1
    outer loop
      vertex -1.15 0.691858 4.75
      vertex -4.3 9.3 4.75
      vertex -1.62635 0.326345 4.75
    endloop
  endfacet
  facet normal 0 0 1
    outer loop
      vertex -2.22163 -0.704717 4.75
      vertex -3.04056 -1.95944 4.75
      vertex -2.3 -1.3 4.75
    endloop
  endfacet
  facet normal 0 0 1
    outer loop
      vertex -1.99186 -0.15 4.75
      vertex -3.04056 -1.95944 4.75
      vertex -2.22163 -0.704717 4.75
    endloop
  endfacet
  facet normal 0 0 1
    outer loop
      vertex -4.3 9.3 4.75
      vertex -3.04056 -1.95944 4.75
      vertex -1.99186 -0.15 4.75
    endloop
  endfacet
  facet normal 0 0 1
    outer loop
      vertex -1.62635 0.326345 4.75
      vertex -4.3 9.3 4.75
      vertex -1.99186 -0.15 4.75
    endloop
  endfacet
  facet normal 0 0 1
    outer loop
      vertex -3.04056 -1.95944 4.75
      vertex -4.3 9.3 4.75
      vertex -3.72391 -2.85 4.75
    endloop
  endfacet
  facet normal 0 0 1
    outer loop
      vertex -4.3 9.3 4.75
      vertex -4.15348 -3.88708 4.75
      vertex -3.72391 -2.85 4.75
    endloop
  endfacet
  facet normal 0 0 1
    outer loop
      vertex -4.15348 -3.88708 4.75
      vertex -4.3 9.3 4.75
      vertex -4.3 -5 4.75
    endloop
  endfacet
  facet normal 0 0 1
    outer loop
      vertex 3.04056 -1.95944 4.75
      vertex 2.3 -1.3 4.75
      vertex 2.2891 -1.38282 4.75
    endloop
  endfacet
  facet normal 0 0 1
    outer loop
      vertex -2.2891 -1.38282 4.75
      vertex -2.3 -1.3 4.75
      vertex -3.04056 -1.95944 4.75
    endloop
  endfacet
  facet normal 0 0 1
    outer loop
      vertex -1.11292 -9.15348 4.75
      vertex -4.3 -9.3 4.75
      vertex -7.62939e-007 -9.3 4.75
    endloop
  endfacet
  facet normal 0 0 1
    outer loop
      vertex -2.15 -8.72391 4.75
      vertex -4.3 -9.3 4.75
      vertex -1.11292 -9.15348 4.75
    endloop
  endfacet
  facet normal 0 0 1
    outer loop
      vertex -3.04056 -8.04056 4.75
      vertex -4.3 -9.3 4.75
      vertex -2.15 -8.72391 4.75
    endloop
  endfacet
  facet normal 0 0 1
    outer loop
      vertex -3.72391 -7.15 4.75
      vertex -4.3 -9.3 4.75
      vertex -3.04056 -8.04056 4.75
    endloop
  endfacet
  facet normal 0 0 1
    outer loop
      vertex -4.15348 -6.11292 4.75
      vertex -4.3 -9.3 4.75
      vertex -3.72391 -7.15 4.75
    endloop
  endfacet
  facet normal 0 0 1
    outer loop
      vertex -4.3 -9.3 4.75
      vertex -4.15348 -6.11292 4.75
      vertex -4.3 -5 4.75
    endloop
  endfacet
  facet normal -0 0 1
    outer loop
      vertex 4.15348 -6.11292 4.75
      vertex 4.3 -9.3 4.75
      vertex 4.3 -5 4.75
    endloop
  endfacet
  facet normal -0 0 1
    outer loop
      vertex 3.72391 -7.15 4.75
      vertex 4.3 -9.3 4.75
      vertex 4.15348 -6.11292 4.75
    endloop
  endfacet
  facet normal -0 0 1
    outer loop
      vertex 3.04056 -8.04056 4.75
      vertex 4.3 -9.3 4.75
      vertex 3.72391 -7.15 4.75
    endloop
  endfacet
  facet normal -0 0 1
    outer loop
      vertex 2.15 -8.72391 4.75
      vertex 4.3 -9.3 4.75
      vertex 3.04056 -8.04056 4.75
    endloop
  endfacet
  facet normal -0 0 1
    outer loop
      vertex 1.11292 -9.15348 4.75
      vertex 4.3 -9.3 4.75
      vertex 2.15 -8.72391 4.75
    endloop
  endfacet
  facet normal 0 0 1
    outer loop
      vertex 4.3 -9.3 4.75
      vertex 1.11292 -9.15348 4.75
      vertex -7.62939e-007 -9.3 4.75
    endloop
  endfacet
  facet normal 1 -0 0
    outer loop
      vertex 4.3 -5 4.75
      vertex 4.3 9.3 -9.9
      vertex 4.3 9.3 4.75
    endloop
  endfacet
  facet normal 1 0 0
    outer loop
      vertex 4.3 -9.3 -9.9
      vertex 4.3 -5 4.75
      vertex 4.3 -9.3 4.75
    endloop
  endfacet
  facet normal 1 0 0
    outer loop
      vertex 4.3 -5 4.75
      vertex 4.3 -9.3 -9.9
      vertex 4.3 9.3 -9.9
    endloop
  endfacet
  facet normal 0 1 -0
    outer loop
      vertex 4.3 9.3 -9.9
      vertex -4.3 9.3 4.75
      vertex 4.3 9.3 4.75
    endloop
  endfacet
  facet normal 0 1 0
    outer loop
      vertex -4.3 9.3 4.75
      vertex 4.3 9.3 -9.9
      vertex -4.3 9.3 -9.9
    endloop
  endfacet
  facet normal 0 0 -1
    outer loop
      vertex -4.3 -9.3 -9.9
      vertex 4.3 9.3 -9.9
      vertex 4.3 -9.3 -9.9
    endloop
  endfacet
  facet normal -0 0 -1
    outer loop
      vertex 4.3 9.3 -9.9
      vertex -4.3 -9.3 -9.9
      vertex -4.3 9.3 -9.9
    endloop
  endfacet
  facet normal 0 -1 0
    outer loop
      vertex -4.3 -9.3 -9.9
      vertex -7.62939e-007 -9.3 4.75
      vertex -4.3 -9.3 4.75
    endloop
  endfacet
  facet normal 0 -1 0
    outer loop
      vertex 4.3 -9.3 -9.9
      vertex -7.62939e-007 -9.3 4.75
      vertex -4.3 -9.3 -9.9
    endloop
  endfacet
  facet normal 0 -1 0
    outer loop
      vertex -7.62939e-007 -9.3 4.75
      vertex 4.3 -9.3 -9.9
      vertex 4.3 -9.3 4.75
    endloop
  endfacet
  facet normal 0.793354 0.608761 0
    outer loop
      vertex 3.72391 -2.85 6.9
      vertex 3.04056 -1.95944 4.75
      vertex 3.04056 -1.95944 6.9
    endloop
  endfacet
  facet normal 0.793354 0.608761 0
    outer loop
      vertex 3.04056 -1.95944 4.75
      vertex 3.72391 -2.85 6.9
      vertex 3.72391 -2.85 4.75
    endloop
  endfacet
  facet normal -0.991445 0.130526 0
    outer loop
      vertex -4.3 -5 4.75
      vertex -4.15348 -3.88708 6.9
      vertex -4.15348 -3.88708 4.75
    endloop
  endfacet
  facet normal -0.991445 0.130526 0
    outer loop
      vertex -4.15348 -3.88708 6.9
      vertex -4.3 -5 4.75
      vertex -4.3 -5 6.9
    endloop
  endfacet
  facet normal 0.608761 0.793354 -0
    outer loop
      vertex 3.04056 -1.95944 4.75
      vertex 2.2891 -1.38282 6.9
      vertex 3.04056 -1.95944 6.9
    endloop
  endfacet
  facet normal 0.608761 0.793354 0
    outer loop
      vertex 2.2891 -1.38282 6.9
      vertex 3.04056 -1.95944 4.75
      vertex 2.2891 -1.38282 4.75
    endloop
  endfacet
  facet normal -0.608761 0.793354 0
    outer loop
      vertex -2.2891 -1.38282 4.75
      vertex -3.04056 -1.95944 6.9
      vertex -2.2891 -1.38282 6.9
    endloop
  endfacet
  facet normal -0.608761 0.793354 0
    outer loop
      vertex -3.04056 -1.95944 6.9
      vertex -2.2891 -1.38282 4.75
      vertex -3.04056 -1.95944 4.75
    endloop
  endfacet
  facet normal -0.793353 0.608762 0
    outer loop
      vertex -3.72391 -2.85 4.75
      vertex -3.04056 -1.95944 6.9
      vertex -3.04056 -1.95944 4.75
    endloop
  endfacet
  facet normal -0.793353 0.608762 0
    outer loop
      vertex -3.04056 -1.95944 6.9
      vertex -3.72391 -2.85 4.75
      vertex -3.72391 -2.85 6.9
    endloop
  endfacet
  facet normal 0.991445 -0.130526 0
    outer loop
      vertex 4.15348 -6.11292 6.9
      vertex 4.3 -5 4.75
      vertex 4.3 -5 6.9
    endloop
  endfacet
  facet normal 0.991445 -0.130526 0
    outer loop
      vertex 4.3 -5 4.75
      vertex 4.15348 -6.11292 6.9
      vertex 4.15348 -6.11292 4.75
    endloop
  endfacet
  facet normal 0.92388 0.382683 0
    outer loop
      vertex 4.15348 -3.88708 6.9
      vertex 3.72391 -2.85 4.75
      vertex 3.72391 -2.85 6.9
    endloop
  endfacet
  facet normal 0.92388 0.382683 0
    outer loop
      vertex 3.72391 -2.85 4.75
      vertex 4.15348 -3.88708 6.9
      vertex 4.15348 -3.88708 4.75
    endloop
  endfacet
  facet normal 0 0 1
    outer loop
      vertex 2.22163 -0.704717 6.9
      vertex 2.2891 -1.38282 6.9
      vertex 2.3 -1.3 6.9
    endloop
  endfacet
  facet normal 0 0 1
    outer loop
      vertex 0.603048 -2.74939 6.9
      vertex 2.2891 -1.38282 6.9
      vertex 2.22163 -0.704717 6.9
    endloop
  endfacet
  facet normal 0 0 1
    outer loop
      vertex 2.2891 -1.38282 6.9
      vertex 2.01784 -3.835 6.9
      vertex 2.25061 -4.39695 6.9
    endloop
  endfacet
  facet normal 0 0 1
    outer loop
      vertex 0.603048 -2.74939 6.9
      vertex 2.22163 -0.704717 6.9
      vertex 1.99186 -0.15 6.9
    endloop
  endfacet
  facet normal 0 0 1
    outer loop
      vertex 2.2891 -1.38282 6.9
      vertex 1.64756 -3.35244 6.9
      vertex 2.01784 -3.835 6.9
    endloop
  endfacet
  facet normal 0 0 1
    outer loop
      vertex -7.62939e-007 -2.67 6.9
      vertex 1.99186 -0.15 6.9
      vertex 1.62634 0.326345 6.9
    endloop
  endfacet
  facet normal 0 0 1
    outer loop
      vertex 2.2891 -1.38282 6.9
      vertex 1.165 -2.98216 6.9
      vertex 1.64756 -3.35244 6.9
    endloop
  endfacet
  facet normal 0 0 1
    outer loop
      vertex -7.62939e-007 -2.67 6.9
      vertex 1.62634 0.326345 6.9
      vertex 1.15 0.691858 6.9
    endloop
  endfacet
  facet normal 0 0 1
    outer loop
      vertex 2.2891 -1.38282 6.9
      vertex 0.603048 -2.74939 6.9
      vertex 1.165 -2.98216 6.9
    endloop
  endfacet
  facet normal 0 0 1
    outer loop
      vertex -7.62939e-007 -2.67 6.9
      vertex 1.15 0.691858 6.9
      vertex 0.595284 0.921629 6.9
    endloop
  endfacet
  facet normal 0 0 1
    outer loop
      vertex -7.62939e-007 -2.67 6.9
      vertex 0.595284 0.921629 6.9
      vertex -7.62939e-007 0.999999 6.9
    endloop
  endfacet
  facet normal 0 0 1
    outer loop
      vertex 1.99186 -0.15 6.9
      vertex -7.62939e-007 -2.67 6.9
      vertex 0.603048 -2.74939 6.9
    endloop
  endfacet
  facet normal -0 0 1
    outer loop
      vertex -0.595284 0.921629 6.9
      vertex -7.62939e-007 -2.67 6.9
      vertex -7.62939e-007 0.999999 6.9
    endloop
  endfacet
  facet normal -0 0 1
    outer loop
      vertex -1.15 0.691858 6.9
      vertex -7.62939e-007 -2.67 6.9
      vertex -0.595284 0.921629 6.9
    endloop
  endfacet
  facet normal -0 0 1
    outer loop
      vertex -1.62635 0.326345 6.9
      vertex -7.62939e-007 -2.67 6.9
      vertex -1.15 0.691858 6.9
    endloop
  endfacet
  facet normal -0 0 1
    outer loop
      vertex -1.99186 -0.15 6.9
      vertex -7.62939e-007 -2.67 6.9
      vertex -1.62635 0.326345 6.9
    endloop
  endfacet
  facet normal 0 0 1
    outer loop
      vertex -7.62939e-007 -2.67 6.9
      vertex -1.99186 -0.15 6.9
      vertex -0.603049 -2.74939 6.9
    endloop
  endfacet
  facet normal -0 0 1
    outer loop
      vertex -2.22163 -0.704717 6.9
      vertex -0.603049 -2.74939 6.9
      vertex -1.99186 -0.15 6.9
    endloop
  endfacet
  facet normal -0 0 1
    outer loop
      vertex -2.2891 -1.38282 6.9
      vertex -0.603049 -2.74939 6.9
      vertex -2.22163 -0.704717 6.9
    endloop
  endfacet
  facet normal 0 0 1
    outer loop
      vertex -1.165 -2.98216 6.9
      vertex -2.2891 -1.38282 6.9
      vertex -1.64756 -3.35244 6.9
    endloop
  endfacet
  facet normal 0 0 1
    outer loop
      vertex -0.603049 -2.74939 6.9
      vertex -2.2891 -1.38282 6.9
      vertex -1.165 -2.98216 6.9
    endloop
  endfacet
  facet normal -0 0 1
    outer loop
      vertex -3.04056 -1.95944 6.9
      vertex -1.64756 -3.35244 6.9
      vertex -2.2891 -1.38282 6.9
    endloop
  endfacet
  facet normal 0 0 1
    outer loop
      vertex -1.64756 -3.35244 6.9
      vertex -3.04056 -1.95944 6.9
      vertex -2.01784 -3.835 6.9
    endloop
  endfacet
  facet normal 0 -0 1
    outer loop
      vertex -2.2891 -1.38282 6.9
      vertex -2.22163 -0.704717 6.9
      vertex -2.3 -1.3 6.9
    endloop
  endfacet
  facet normal 0 0 1
    outer loop
      vertex 2.33 -5 6.9
      vertex 4.3 -5 6.9
      vertex 4.15348 -3.88708 6.9
    endloop
  endfacet
  facet normal 0 0 1
    outer loop
      vertex 2.25061 -4.39695 6.9
      vertex 4.15348 -3.88708 6.9
      vertex 3.72391 -2.85 6.9
    endloop
  endfacet
  facet normal 0 0 1
    outer loop
      vertex 4.3 -5 6.9
      vertex 2.33 -5 6.9
      vertex 4.15348 -6.11292 6.9
    endloop
  endfacet
  facet normal 0 0 1
    outer loop
      vertex 2.25061 -4.39695 6.9
      vertex 3.72391 -2.85 6.9
      vertex 3.04056 -1.95944 6.9
    endloop
  endfacet
  facet normal -0 0 1
    outer loop
      vertex 2.25061 -5.60305 6.9
      vertex 4.15348 -6.11292 6.9
      vertex 2.33 -5 6.9
    endloop
  endfacet
  facet normal 0 0 1
    outer loop
      vertex 4.15348 -6.11292 6.9
      vertex 2.25061 -5.60305 6.9
      vertex 3.72391 -7.15 6.9
    endloop
  endfacet
  facet normal 0 0 1
    outer loop
      vertex 2.25061 -4.39695 6.9
      vertex 3.04056 -1.95944 6.9
      vertex 2.2891 -1.38282 6.9
    endloop
  endfacet
  facet normal 0 0 1
    outer loop
      vertex 4.15348 -3.88708 6.9
      vertex 2.25061 -4.39695 6.9
      vertex 2.33 -5 6.9
    endloop
  endfacet
  facet normal -0 0 1
    outer loop
      vertex 2.01784 -6.165 6.9
      vertex 3.72391 -7.15 6.9
      vertex 2.25061 -5.60305 6.9
    endloop
  endfacet
  facet normal 0 0 1
    outer loop
      vertex 3.72391 -7.15 6.9
      vertex 2.01784 -6.165 6.9
      vertex 3.04056 -8.04056 6.9
    endloop
  endfacet
  facet normal -0 0 1
    outer loop
      vertex 1.64756 -6.64756 6.9
      vertex 3.04056 -8.04056 6.9
      vertex 2.01784 -6.165 6.9
    endloop
  endfacet
  facet normal 0 0 1
    outer loop
      vertex 3.04056 -8.04056 6.9
      vertex 1.64756 -6.64756 6.9
      vertex 2.15 -8.72391 6.9
    endloop
  endfacet
  facet normal -0 0 1
    outer loop
      vertex 1.165 -7.01784 6.9
      vertex 2.15 -8.72391 6.9
      vertex 1.64756 -6.64756 6.9
    endloop
  endfacet
  facet normal 0 0 1
    outer loop
      vertex 1.165 -7.01784 6.9
      vertex 1.11292 -9.15348 6.9
      vertex 2.15 -8.72391 6.9
    endloop
  endfacet
  facet normal -0 0 1
    outer loop
      vertex 0.603048 -7.25061 6.9
      vertex 1.11292 -9.15348 6.9
      vertex 1.165 -7.01784 6.9
    endloop
  endfacet
  facet normal -0 0 1
    outer loop
      vertex -7.62939e-007 -7.33 6.9
      vertex 1.11292 -9.15348 6.9
      vertex 0.603048 -7.25061 6.9
    endloop
  endfacet
  facet normal 0 0 1
    outer loop
      vertex -7.62939e-007 -7.33 6.9
      vertex -7.62939e-007 -9.3 6.9
      vertex 1.11292 -9.15348 6.9
    endloop
  endfacet
  facet normal 0 0 1
    outer loop
      vertex -0.603049 -7.25061 6.9
      vertex -7.62939e-007 -9.3 6.9
      vertex -7.62939e-007 -7.33 6.9
    endloop
  endfacet
  facet normal 0 0 1
    outer loop
      vertex -0.603049 -7.25061 6.9
      vertex -1.11292 -9.15348 6.9
      vertex -7.62939e-007 -9.3 6.9
    endloop
  endfacet
  facet normal 0 0 1
    outer loop
      vertex -1.165 -7.01784 6.9
      vertex -1.11292 -9.15348 6.9
      vertex -0.603049 -7.25061 6.9
    endloop
  endfacet
  facet normal 0 0 1
    outer loop
      vertex -2.15 -8.72391 6.9
      vertex -1.165 -7.01784 6.9
      vertex -1.64756 -6.64756 6.9
    endloop
  endfacet
  facet normal 0 0 1
    outer loop
      vertex -3.04056 -8.04056 6.9
      vertex -1.64756 -6.64756 6.9
      vertex -2.01784 -6.165 6.9
    endloop
  endfacet
  facet normal 0 0 1
    outer loop
      vertex -1.165 -7.01784 6.9
      vertex -2.15 -8.72391 6.9
      vertex -1.11292 -9.15348 6.9
    endloop
  endfacet
  facet normal 0 0 1
    outer loop
      vertex -3.72391 -7.15 6.9
      vertex -2.01784 -6.165 6.9
      vertex -2.25061 -5.60305 6.9
    endloop
  endfacet
  facet normal 0 0 1
    outer loop
      vertex -4.15348 -6.11292 6.9
      vertex -2.25061 -5.60305 6.9
      vertex -2.33 -5 6.9
    endloop
  endfacet
  facet normal -0 0 1
    outer loop
      vertex -4.15348 -3.88708 6.9
      vertex -2.25061 -4.39695 6.9
      vertex -3.72391 -2.85 6.9
    endloop
  endfacet
  facet normal 0 0 1
    outer loop
      vertex -1.64756 -6.64756 6.9
      vertex -3.04056 -8.04056 6.9
      vertex -2.15 -8.72391 6.9
    endloop
  endfacet
  facet normal 0 0 1
    outer loop
      vertex -2.25061 -4.39695 6.9
      vertex -4.15348 -3.88708 6.9
      vertex -2.33 -5 6.9
    endloop
  endfacet
  facet normal 0 0 1
    outer loop
      vertex -2.01784 -6.165 6.9
      vertex -3.72391 -7.15 6.9
      vertex -3.04056 -8.04056 6.9
    endloop
  endfacet
  facet normal 0 0 1
    outer loop
      vertex -4.3 -5 6.9
      vertex -2.33 -5 6.9
      vertex -4.15348 -3.88708 6.9
    endloop
  endfacet
  facet normal 0 0 1
    outer loop
      vertex -2.25061 -5.60305 6.9
      vertex -4.15348 -6.11292 6.9
      vertex -3.72391 -7.15 6.9
    endloop
  endfacet
  facet normal 0 0 1
    outer loop
      vertex -2.33 -5 6.9
      vertex -4.3 -5 6.9
      vertex -4.15348 -6.11292 6.9
    endloop
  endfacet
  facet normal -0 0 1
    outer loop
      vertex -3.72391 -2.85 6.9
      vertex -2.01784 -3.835 6.9
      vertex -3.04056 -1.95944 6.9
    endloop
  endfacet
  facet normal 0 0 1
    outer loop
      vertex -2.01784 -3.835 6.9
      vertex -3.72391 -2.85 6.9
      vertex -2.25061 -4.39695 6.9
    endloop
  endfacet
  facet normal -0.92388 0.382683 0
    outer loop
      vertex -4.15348 -3.88708 4.75
      vertex -3.72391 -2.85 6.9
      vertex -3.72391 -2.85 4.75
    endloop
  endfacet
  facet normal -0.92388 0.382683 0
    outer loop
      vertex -3.72391 -2.85 6.9
      vertex -4.15348 -3.88708 4.75
      vertex -4.15348 -3.88708 6.9
    endloop
  endfacet
  facet normal 0.991445 0.130526 0
    outer loop
      vertex 4.3 -5 6.9
      vertex 4.15348 -3.88708 4.75
      vertex 4.15348 -3.88708 6.9
    endloop
  endfacet
  facet normal 0.991445 0.130526 0
    outer loop
      vertex 4.15348 -3.88708 4.75
      vertex 4.3 -5 6.9
      vertex 4.3 -5 4.75
    endloop
  endfacet
  facet normal -0.793353 -0.608762 0
    outer loop
      vertex -3.04056 -8.04056 4.75
      vertex -3.72391 -7.15 6.9
      vertex -3.72391 -7.15 4.75
    endloop
  endfacet
  facet normal -0.793353 -0.608762 0
    outer loop
      vertex -3.72391 -7.15 6.9
      vertex -3.04056 -8.04056 4.75
      vertex -3.04056 -8.04056 6.9
    endloop
  endfacet
  facet normal 0.382683 -0.92388 0
    outer loop
      vertex 1.11292 -9.15348 4.75
      vertex 2.15 -8.72391 6.9
      vertex 1.11292 -9.15348 6.9
    endloop
  endfacet
  facet normal 0.382683 -0.92388 0
    outer loop
      vertex 2.15 -8.72391 6.9
      vertex 1.11292 -9.15348 4.75
      vertex 2.15 -8.72391 4.75
    endloop
  endfacet
  facet normal -0.382683 -0.92388 0
    outer loop
      vertex -2.15 -8.72391 4.75
      vertex -1.11292 -9.15348 6.9
      vertex -2.15 -8.72391 6.9
    endloop
  endfacet
  facet normal -0.382683 -0.92388 -0
    outer loop
      vertex -1.11292 -9.15348 6.9
      vertex -2.15 -8.72391 4.75
      vertex -1.11292 -9.15348 4.75
    endloop
  endfacet
  facet normal -0.130526 -0.991445 0
    outer loop
      vertex -1.11292 -9.15348 4.75
      vertex -7.62939e-007 -9.3 6.9
      vertex -1.11292 -9.15348 6.9
    endloop
  endfacet
  facet normal -0.130526 -0.991445 -0
    outer loop
      vertex -7.62939e-007 -9.3 6.9
      vertex -1.11292 -9.15348 4.75
      vertex -7.62939e-007 -9.3 4.75
    endloop
  endfacet
  facet normal -0.991445 -0.130526 0
    outer loop
      vertex -4.15348 -6.11292 4.75
      vertex -4.3 -5 6.9
      vertex -4.3 -5 4.75
    endloop
  endfacet
  facet normal -0.991445 -0.130526 0
    outer loop
      vertex -4.3 -5 6.9
      vertex -4.15348 -6.11292 4.75
      vertex -4.15348 -6.11292 6.9
    endloop
  endfacet
  facet normal 0.793354 -0.608761 0
    outer loop
      vertex 3.04056 -8.04056 6.9
      vertex 3.72391 -7.15 4.75
      vertex 3.72391 -7.15 6.9
    endloop
  endfacet
  facet normal 0.793354 -0.608761 0
    outer loop
      vertex 3.72391 -7.15 4.75
      vertex 3.04056 -8.04056 6.9
      vertex 3.04056 -8.04056 4.75
    endloop
  endfacet
  facet normal 0.608762 -0.793353 0
    outer loop
      vertex 2.15 -8.72391 4.75
      vertex 3.04056 -8.04056 6.9
      vertex 2.15 -8.72391 6.9
    endloop
  endfacet
  facet normal 0.608762 -0.793353 0
    outer loop
      vertex 3.04056 -8.04056 6.9
      vertex 2.15 -8.72391 4.75
      vertex 3.04056 -8.04056 4.75
    endloop
  endfacet
  facet normal 0.923879 -0.382684 0
    outer loop
      vertex 3.72391 -7.15 6.9
      vertex 4.15348 -6.11292 4.75
      vertex 4.15348 -6.11292 6.9
    endloop
  endfacet
  facet normal 0.923879 -0.382684 0
    outer loop
      vertex 4.15348 -6.11292 4.75
      vertex 3.72391 -7.15 6.9
      vertex 3.72391 -7.15 4.75
    endloop
  endfacet
  facet normal 0.130526 -0.991445 0
    outer loop
      vertex -7.62939e-007 -9.3 4.75
      vertex 1.11292 -9.15348 6.9
      vertex -7.62939e-007 -9.3 6.9
    endloop
  endfacet
  facet normal 0.130526 -0.991445 0
    outer loop
      vertex 1.11292 -9.15348 6.9
      vertex -7.62939e-007 -9.3 4.75
      vertex 1.11292 -9.15348 4.75
    endloop
  endfacet
  facet normal -0.92388 -0.382683 0
    outer loop
      vertex -3.72391 -7.15 4.75
      vertex -4.15348 -6.11292 6.9
      vertex -4.15348 -6.11292 4.75
    endloop
  endfacet
  facet normal -0.92388 -0.382683 0
    outer loop
      vertex -4.15348 -6.11292 6.9
      vertex -3.72391 -7.15 4.75
      vertex -3.72391 -7.15 6.9
    endloop
  endfacet
  facet normal -0.608762 -0.793353 0
    outer loop
      vertex -3.04056 -8.04056 4.75
      vertex -2.15 -8.72391 6.9
      vertex -3.04056 -8.04056 6.9
    endloop
  endfacet
  facet normal -0.608762 -0.793353 -0
    outer loop
      vertex -2.15 -8.72391 6.9
      vertex -3.04056 -8.04056 4.75
      vertex -2.15 -8.72391 4.75
    endloop
  endfacet
  facet normal 0.991445 0.130525 0
    outer loop
      vertex 2.3 -1.3 6.9
      vertex 2.22163 -0.704717 4.75
      vertex 2.22163 -0.704717 6.9
    endloop
  endfacet
  facet normal 0.991445 0.130525 0
    outer loop
      vertex 2.22163 -0.704717 4.75
      vertex 2.3 -1.3 6.9
      vertex 2.3 -1.3 4.75
    endloop
  endfacet
  facet normal -0.130525 0.991445 0
    outer loop
      vertex -7.62939e-007 0.999999 4.75
      vertex -0.595284 0.921629 6.9
      vertex -7.62939e-007 0.999999 6.9
    endloop
  endfacet
  facet normal -0.130525 0.991445 0
    outer loop
      vertex -0.595284 0.921629 6.9
      vertex -7.62939e-007 0.999999 4.75
      vertex -0.595284 0.921629 4.75
    endloop
  endfacet
  facet normal 0.608762 0.793353 -0
    outer loop
      vertex 1.62634 0.326345 4.75
      vertex 1.15 0.691858 6.9
      vertex 1.62634 0.326345 6.9
    endloop
  endfacet
  facet normal 0.608762 0.793353 0
    outer loop
      vertex 1.15 0.691858 6.9
      vertex 1.62634 0.326345 4.75
      vertex 1.15 0.691858 4.75
    endloop
  endfacet
  facet normal 0.923879 0.382684 0
    outer loop
      vertex 2.22163 -0.704717 6.9
      vertex 1.99186 -0.15 4.75
      vertex 1.99186 -0.15 6.9
    endloop
  endfacet
  facet normal 0.923879 0.382684 0
    outer loop
      vertex 1.99186 -0.15 4.75
      vertex 2.22163 -0.704717 6.9
      vertex 2.22163 -0.704717 4.75
    endloop
  endfacet
  facet normal 0.382684 0.923879 -0
    outer loop
      vertex 1.15 0.691858 4.75
      vertex 0.595284 0.921629 6.9
      vertex 1.15 0.691858 6.9
    endloop
  endfacet
  facet normal 0.382684 0.923879 0
    outer loop
      vertex 0.595284 0.921629 6.9
      vertex 1.15 0.691858 4.75
      vertex 0.595284 0.921629 4.75
    endloop
  endfacet
  facet normal -0.793353 0.608762 0
    outer loop
      vertex -1.99186 -0.15 4.75
      vertex -1.62635 0.326345 6.9
      vertex -1.62635 0.326345 4.75
    endloop
  endfacet
  facet normal -0.793353 0.608762 0
    outer loop
      vertex -1.62635 0.326345 6.9
      vertex -1.99186 -0.15 4.75
      vertex -1.99186 -0.15 6.9
    endloop
  endfacet
  facet normal -0.92388 0.382683 0
    outer loop
      vertex -2.22163 -0.704717 4.75
      vertex -1.99186 -0.15 6.9
      vertex -1.99186 -0.15 4.75
    endloop
  endfacet
  facet normal -0.92388 0.382683 0
    outer loop
      vertex -1.99186 -0.15 6.9
      vertex -2.22163 -0.704717 4.75
      vertex -2.22163 -0.704717 6.9
    endloop
  endfacet
  facet normal -0.608761 0.793354 0
    outer loop
      vertex -1.15 0.691858 4.75
      vertex -1.62635 0.326345 6.9
      vertex -1.15 0.691858 6.9
    endloop
  endfacet
  facet normal -0.608761 0.793354 0
    outer loop
      vertex -1.62635 0.326345 6.9
      vertex -1.15 0.691858 4.75
      vertex -1.62635 0.326345 4.75
    endloop
  endfacet
  facet normal 0.793353 0.608762 0
    outer loop
      vertex 1.99186 -0.15 6.9
      vertex 1.62634 0.326345 4.75
      vertex 1.62634 0.326345 6.9
    endloop
  endfacet
  facet normal 0.793353 0.608762 0
    outer loop
      vertex 1.62634 0.326345 4.75
      vertex 1.99186 -0.15 6.9
      vertex 1.99186 -0.15 4.75
    endloop
  endfacet
  facet normal 0.130525 0.991445 -0
    outer loop
      vertex 0.595284 0.921629 4.75
      vertex -7.62939e-007 0.999999 6.9
      vertex 0.595284 0.921629 6.9
    endloop
  endfacet
  facet normal 0.130525 0.991445 0
    outer loop
      vertex -7.62939e-007 0.999999 6.9
      vertex 0.595284 0.921629 4.75
      vertex -7.62939e-007 0.999999 4.75
    endloop
  endfacet
  facet normal -0.991445 0.130525 0
    outer loop
      vertex -2.3 -1.3 4.75
      vertex -2.22163 -0.704717 6.9
      vertex -2.22163 -0.704717 4.75
    endloop
  endfacet
  facet normal -0.991445 0.130525 0
    outer loop
      vertex -2.22163 -0.704717 6.9
      vertex -2.3 -1.3 4.75
      vertex -2.3 -1.3 6.9
    endloop
  endfacet
  facet normal -0.382684 0.923879 0
    outer loop
      vertex -0.595284 0.921629 4.75
      vertex -1.15 0.691858 6.9
      vertex -0.595284 0.921629 6.9
    endloop
  endfacet
  facet normal -0.382684 0.923879 0
    outer loop
      vertex -1.15 0.691858 6.9
      vertex -0.595284 0.921629 4.75
      vertex -1.15 0.691858 4.75
    endloop
  endfacet
  facet normal 0.991445 -0.130526 0
    outer loop
      vertex 2.2891 -1.38282 6.9
      vertex 2.3 -1.3 4.75
      vertex 2.3 -1.3 6.9
    endloop
  endfacet
  facet normal 0.991445 -0.130526 0
    outer loop
      vertex 2.3 -1.3 4.75
      vertex 2.2891 -1.38282 6.9
      vertex 2.2891 -1.38282 4.75
    endloop
  endfacet
  facet normal -0.991445 -0.130526 0
    outer loop
      vertex -2.2891 -1.38282 4.75
      vertex -2.3 -1.3 6.9
      vertex -2.3 -1.3 4.75
    endloop
  endfacet
  facet normal -0.991445 -0.130526 0
    outer loop
      vertex -2.3 -1.3 6.9
      vertex -2.2891 -1.38282 4.75
      vertex -2.2891 -1.38282 6.9
    endloop
  endfacet
  facet normal 0.991445 0.130526 0
    outer loop
      vertex 2.33 -5 9.9
      vertex 2.25061 -4.39695 6.9
      vertex 2.25061 -4.39695 9.9
    endloop
  endfacet
  facet normal 0.991445 0.130526 0
    outer loop
      vertex 2.25061 -4.39695 6.9
      vertex 2.33 -5 9.9
      vertex 2.33 -5 6.9
    endloop
  endfacet
  facet normal -0.991445 0.130527 0
    outer loop
      vertex -2.33 -5 6.9
      vertex -2.25061 -4.39695 9.9
      vertex -2.25061 -4.39695 6.9
    endloop
  endfacet
  facet normal -0.991445 0.130527 0
    outer loop
      vertex -2.25061 -4.39695 9.9
      vertex -2.33 -5 6.9
      vertex -2.33 -5 9.9
    endloop
  endfacet
  facet normal -0.130526 0.991445 0
    outer loop
      vertex -7.62939e-007 -2.67 6.9
      vertex -0.603049 -2.74939 9.9
      vertex -7.62939e-007 -2.67 9.9
    endloop
  endfacet
  facet normal -0.130526 0.991445 0
    outer loop
      vertex -0.603049 -2.74939 9.9
      vertex -7.62939e-007 -2.67 6.9
      vertex -0.603049 -2.74939 6.9
    endloop
  endfacet
  facet normal 0.608761 0.793354 -0
    outer loop
      vertex 1.64756 -3.35244 6.9
      vertex 1.165 -2.98216 9.9
      vertex 1.64756 -3.35244 9.9
    endloop
  endfacet
  facet normal 0.608761 0.793354 0
    outer loop
      vertex 1.165 -2.98216 9.9
      vertex 1.64756 -3.35244 6.9
      vertex 1.165 -2.98216 6.9
    endloop
  endfacet
  facet normal 0.382683 0.92388 -0
    outer loop
      vertex 1.165 -2.98216 6.9
      vertex 0.603048 -2.74939 9.9
      vertex 1.165 -2.98216 9.9
    endloop
  endfacet
  facet normal 0.382683 0.92388 0
    outer loop
      vertex 0.603048 -2.74939 9.9
      vertex 1.165 -2.98216 6.9
      vertex 0.603048 -2.74939 6.9
    endloop
  endfacet
  facet normal -0.608762 0.793353 0
    outer loop
      vertex -1.165 -2.98216 6.9
      vertex -1.64756 -3.35244 9.9
      vertex -1.165 -2.98216 9.9
    endloop
  endfacet
  facet normal -0.608762 0.793353 0
    outer loop
      vertex -1.64756 -3.35244 9.9
      vertex -1.165 -2.98216 6.9
      vertex -1.64756 -3.35244 6.9
    endloop
  endfacet
  facet normal -0.793354 0.608761 0
    outer loop
      vertex -2.01784 -3.835 6.9
      vertex -1.64756 -3.35244 9.9
      vertex -1.64756 -3.35244 6.9
    endloop
  endfacet
  facet normal -0.793354 0.608761 0
    outer loop
      vertex -1.64756 -3.35244 9.9
      vertex -2.01784 -3.835 6.9
      vertex -2.01784 -3.835 9.9
    endloop
  endfacet
  facet normal -0.382684 0.923879 0
    outer loop
      vertex -0.603049 -2.74939 6.9
      vertex -1.165 -2.98216 9.9
      vertex -0.603049 -2.74939 9.9
    endloop
  endfacet
  facet normal -0.382684 0.923879 0
    outer loop
      vertex -1.165 -2.98216 9.9
      vertex -0.603049 -2.74939 6.9
      vertex -1.165 -2.98216 6.9
    endloop
  endfacet
  facet normal 0.923879 -0.382684 0
    outer loop
      vertex 2.01784 -6.165 9.9
      vertex 2.25061 -5.60305 6.9
      vertex 2.25061 -5.60305 9.9
    endloop
  endfacet
  facet normal 0.923879 -0.382684 0
    outer loop
      vertex 2.25061 -5.60305 6.9
      vertex 2.01784 -6.165 9.9
      vertex 2.01784 -6.165 6.9
    endloop
  endfacet
  facet normal -0.608762 -0.793353 0
    outer loop
      vertex -1.64756 -6.64756 6.9
      vertex -1.165 -7.01784 9.9
      vertex -1.64756 -6.64756 9.9
    endloop
  endfacet
  facet normal -0.608762 -0.793353 -0
    outer loop
      vertex -1.165 -7.01784 9.9
      vertex -1.64756 -6.64756 6.9
      vertex -1.165 -7.01784 6.9
    endloop
  endfacet
  facet normal 0.793354 0.608761 0
    outer loop
      vertex 2.01784 -3.835 9.9
      vertex 1.64756 -3.35244 6.9
      vertex 1.64756 -3.35244 9.9
    endloop
  endfacet
  facet normal 0.793354 0.608761 0
    outer loop
      vertex 1.64756 -3.35244 6.9
      vertex 2.01784 -3.835 9.9
      vertex 2.01784 -3.835 6.9
    endloop
  endfacet
  facet normal 0.92388 0.382683 0
    outer loop
      vertex 2.25061 -4.39695 9.9
      vertex 2.01784 -3.835 6.9
      vertex 2.01784 -3.835 9.9
    endloop
  endfacet
  facet normal 0.92388 0.382683 0
    outer loop
      vertex 2.01784 -3.835 6.9
      vertex 2.25061 -4.39695 9.9
      vertex 2.25061 -4.39695 6.9
    endloop
  endfacet
  facet normal 0.130526 0.991445 -0
    outer loop
      vertex 0.603048 -2.74939 6.9
      vertex -7.62939e-007 -2.67 9.9
      vertex 0.603048 -2.74939 9.9
    endloop
  endfacet
  facet normal 0.130526 0.991445 0
    outer loop
      vertex -7.62939e-007 -2.67 9.9
      vertex 0.603048 -2.74939 6.9
      vertex -7.62939e-007 -2.67 6.9
    endloop
  endfacet
  facet normal -0.92388 0.382683 0
    outer loop
      vertex -2.25061 -4.39695 6.9
      vertex -2.01784 -3.835 9.9
      vertex -2.01784 -3.835 6.9
    endloop
  endfacet
  facet normal -0.92388 0.382683 0
    outer loop
      vertex -2.01784 -3.835 9.9
      vertex -2.25061 -4.39695 6.9
      vertex -2.25061 -4.39695 9.9
    endloop
  endfacet
  facet normal 0 0 1
    outer loop
      vertex 2.25061 -4.39695 9.9
      vertex 2.25061 -5.60305 9.9
      vertex 2.33 -5 9.9
    endloop
  endfacet
  facet normal 0 0 1
    outer loop
      vertex 2.01784 -3.835 9.9
      vertex 2.25061 -5.60305 9.9
      vertex 2.25061 -4.39695 9.9
    endloop
  endfacet
  facet normal 0 0 1
    outer loop
      vertex 2.01784 -3.835 9.9
      vertex 2.01784 -6.165 9.9
      vertex 2.25061 -5.60305 9.9
    endloop
  endfacet
  facet normal 0 0 1
    outer loop
      vertex 1.64756 -3.35244 9.9
      vertex 2.01784 -6.165 9.9
      vertex 2.01784 -3.835 9.9
    endloop
  endfacet
  facet normal 0 0 1
    outer loop
      vertex 1.64756 -3.35244 9.9
      vertex 1.64756 -6.64756 9.9
      vertex 2.01784 -6.165 9.9
    endloop
  endfacet
  facet normal 0 0 1
    outer loop
      vertex 1.165 -2.98216 9.9
      vertex 1.64756 -6.64756 9.9
      vertex 1.64756 -3.35244 9.9
    endloop
  endfacet
  facet normal 0 0 1
    outer loop
      vertex 1.165 -2.98216 9.9
      vertex 1.165 -7.01784 9.9
      vertex 1.64756 -6.64756 9.9
    endloop
  endfacet
  facet normal 0 0 1
    outer loop
      vertex 0.603048 -2.74939 9.9
      vertex 1.165 -7.01784 9.9
      vertex 1.165 -2.98216 9.9
    endloop
  endfacet
  facet normal 0 0 1
    outer loop
      vertex 0.603048 -2.74939 9.9
      vertex 0.603048 -7.25061 9.9
      vertex 1.165 -7.01784 9.9
    endloop
  endfacet
  facet normal 0 0 1
    outer loop
      vertex -7.62939e-007 -2.67 9.9
      vertex 0.603048 -7.25061 9.9
      vertex 0.603048 -2.74939 9.9
    endloop
  endfacet
  facet normal 0 0 1
    outer loop
      vertex -7.62939e-007 -2.67 9.9
      vertex -7.62939e-007 -7.33 9.9
      vertex 0.603048 -7.25061 9.9
    endloop
  endfacet
  facet normal -0 0 1
    outer loop
      vertex -0.603049 -2.74939 9.9
      vertex -7.62939e-007 -7.33 9.9
      vertex -7.62939e-007 -2.67 9.9
    endloop
  endfacet
  facet normal 0 0 1
    outer loop
      vertex -0.603049 -2.74939 9.9
      vertex -0.603049 -7.25061 9.9
      vertex -7.62939e-007 -7.33 9.9
    endloop
  endfacet
  facet normal -0 0 1
    outer loop
      vertex -1.165 -2.98216 9.9
      vertex -0.603049 -7.25061 9.9
      vertex -0.603049 -2.74939 9.9
    endloop
  endfacet
  facet normal 0 0 1
    outer loop
      vertex -1.165 -2.98216 9.9
      vertex -1.165 -7.01784 9.9
      vertex -0.603049 -7.25061 9.9
    endloop
  endfacet
  facet normal -0 0 1
    outer loop
      vertex -1.64756 -3.35244 9.9
      vertex -1.165 -7.01784 9.9
      vertex -1.165 -2.98216 9.9
    endloop
  endfacet
  facet normal 0 0 1
    outer loop
      vertex -1.64756 -3.35244 9.9
      vertex -1.64756 -6.64756 9.9
      vertex -1.165 -7.01784 9.9
    endloop
  endfacet
  facet normal -0 0 1
    outer loop
      vertex -2.01784 -3.835 9.9
      vertex -1.64756 -6.64756 9.9
      vertex -1.64756 -3.35244 9.9
    endloop
  endfacet
  facet normal 0 0 1
    outer loop
      vertex -2.01784 -3.835 9.9
      vertex -2.01784 -6.165 9.9
      vertex -1.64756 -6.64756 9.9
    endloop
  endfacet
  facet normal -0 0 1
    outer loop
      vertex -2.25061 -4.39695 9.9
      vertex -2.01784 -6.165 9.9
      vertex -2.01784 -3.835 9.9
    endloop
  endfacet
  facet normal 0 0 1
    outer loop
      vertex -2.25061 -4.39695 9.9
      vertex -2.25061 -5.60305 9.9
      vertex -2.01784 -6.165 9.9
    endloop
  endfacet
  facet normal 0 -0 1
    outer loop
      vertex -2.25061 -5.60305 9.9
      vertex -2.25061 -4.39695 9.9
      vertex -2.33 -5 9.9
    endloop
  endfacet
  facet normal 0.130527 -0.991445 0
    outer loop
      vertex -7.62939e-007 -7.33 6.9
      vertex 0.603048 -7.25061 9.9
      vertex -7.62939e-007 -7.33 9.9
    endloop
  endfacet
  facet normal 0.130527 -0.991445 0
    outer loop
      vertex 0.603048 -7.25061 9.9
      vertex -7.62939e-007 -7.33 6.9
      vertex 0.603048 -7.25061 6.9
    endloop
  endfacet
  facet normal 0.608761 -0.793354 0
    outer loop
      vertex 1.165 -7.01784 6.9
      vertex 1.64756 -6.64756 9.9
      vertex 1.165 -7.01784 9.9
    endloop
  endfacet
  facet normal 0.608761 -0.793354 0
    outer loop
      vertex 1.64756 -6.64756 9.9
      vertex 1.165 -7.01784 6.9
      vertex 1.64756 -6.64756 6.9
    endloop
  endfacet
  facet normal 0.991445 -0.130526 0
    outer loop
      vertex 2.25061 -5.60305 9.9
      vertex 2.33 -5 6.9
      vertex 2.33 -5 9.9
    endloop
  endfacet
  facet normal 0.991445 -0.130526 0
    outer loop
      vertex 2.33 -5 6.9
      vertex 2.25061 -5.60305 9.9
      vertex 2.25061 -5.60305 6.9
    endloop
  endfacet
  facet normal -0.382684 -0.923879 0
    outer loop
      vertex -1.165 -7.01784 6.9
      vertex -0.603049 -7.25061 9.9
      vertex -1.165 -7.01784 9.9
    endloop
  endfacet
  facet normal -0.382684 -0.923879 -0
    outer loop
      vertex -0.603049 -7.25061 9.9
      vertex -1.165 -7.01784 6.9
      vertex -0.603049 -7.25061 6.9
    endloop
  endfacet
  facet normal -0.793353 -0.608762 0
    outer loop
      vertex -1.64756 -6.64756 6.9
      vertex -2.01784 -6.165 9.9
      vertex -2.01784 -6.165 6.9
    endloop
  endfacet
  facet normal -0.793353 -0.608762 0
    outer loop
      vertex -2.01784 -6.165 9.9
      vertex -1.64756 -6.64756 6.9
      vertex -1.64756 -6.64756 9.9
    endloop
  endfacet
  facet normal -0.991445 -0.130527 0
    outer loop
      vertex -2.25061 -5.60305 6.9
      vertex -2.33 -5 9.9
      vertex -2.33 -5 6.9
    endloop
  endfacet
  facet normal -0.991445 -0.130527 0
    outer loop
      vertex -2.33 -5 9.9
      vertex -2.25061 -5.60305 6.9
      vertex -2.25061 -5.60305 9.9
    endloop
  endfacet
  facet normal 0.382683 -0.92388 0
    outer loop
      vertex 0.603048 -7.25061 6.9
      vertex 1.165 -7.01784 9.9
      vertex 0.603048 -7.25061 9.9
    endloop
  endfacet
  facet normal 0.382683 -0.92388 0
    outer loop
      vertex 1.165 -7.01784 9.9
      vertex 0.603048 -7.25061 6.9
      vertex 1.165 -7.01784 6.9
    endloop
  endfacet
  facet normal 0.793353 -0.608762 0
    outer loop
      vertex 1.64756 -6.64756 9.9
      vertex 2.01784 -6.165 6.9
      vertex 2.01784 -6.165 9.9
    endloop
  endfacet
  facet normal 0.793353 -0.608762 0
    outer loop
      vertex 2.01784 -6.165 6.9
      vertex 1.64756 -6.64756 9.9
      vertex 1.64756 -6.64756 6.9
    endloop
  endfacet
  facet normal -0.130527 -0.991445 0
    outer loop
      vertex -0.603049 -7.25061 6.9
      vertex -7.62939e-007 -7.33 9.9
      vertex -0.603049 -7.25061 9.9
    endloop
  endfacet
  facet normal -0.130527 -0.991445 -0
    outer loop
      vertex -7.62939e-007 -7.33 9.9
      vertex -0.603049 -7.25061 6.9
      vertex -7.62939e-007 -7.33 6.9
    endloop
  endfacet
  facet normal -0.923879 -0.382684 0
    outer loop
      vertex -2.01784 -6.165 6.9
      vertex -2.25061 -5.60305 9.9
      vertex -2.25061 -5.60305 6.9
    endloop
  endfacet
  facet normal -0.923879 -0.382684 0
    outer loop
      vertex -2.25061 -5.60305 9.9
      vertex -2.01784 -6.165 6.9
      vertex -2.01784 -6.165 9.9
    endloop
  endfacet
endsolid OpenSCAD_Model
